<?xml version="1.0" encoding="utf-8"?>
<!-- Generator: Adobe Illustrator 16.0.4, SVG Export Plug-In . SVG Version: 6.00 Build 0)  -->
<!DOCTYPE svg PUBLIC "-//W3C//DTD SVG 1.0//EN" "http://www.w3.org/TR/2001/REC-SVG-20010904/DTD/svg10.dtd">
<svg version="1.0" id="Layer_1" xmlns="http://www.w3.org/2000/svg" xmlns:xlink="http://www.w3.org/1999/xlink" x="0px" y="0px"
	 width="108.823px" height="8.025px" viewBox="0 0 108.823 8.025" enable-background="new 0 0 108.823 8.025" xml:space="preserve">
<g>
	<path fill="#FFFFFF" d="M2.991,7.901H0l2.703-7.777h3.125l2.774,7.777H5.611l-0.258-0.97H3.218L2.991,7.901z M4.858,5.085
		l-0.33-1.372c-0.083-0.33-0.134-0.67-0.186-1H4.24L3.724,5.085H4.858z"/>
	<path fill="#FFFFFF" d="M9.193,0.124h3.414c1.753,0,3.239,0.743,3.239,2.702c0,1.176-0.454,1.671-1.506,2.022V4.91
		c0.145,0.113,0.32,0.237,0.475,0.464l1.691,2.527h-3.259l-1.238-2.496h-0.052v2.496H9.193V0.124z M11.958,3.569h0.196
		c0.464,0,0.928-0.072,0.928-0.65c0-0.599-0.423-0.67-0.908-0.67h-0.217V3.569z"/>
	<path fill="#FFFFFF" d="M16.261,0.124h5.941v2.527l-1.558-0.072v5.322h-2.826V2.579l-1.558,0.072V0.124z"/>
	<path fill="#FFFFFF" d="M22.968,0.124h2.826v7.777h-2.826V0.124z"/>
	<path fill="#FFFFFF" d="M27.569,5.116l0.145,0.114c0.505,0.392,1.114,0.711,1.764,0.711c0.279,0,0.722-0.113,0.722-0.464
		c0-0.351-0.371-0.382-0.629-0.434l-0.567-0.103c-1.104-0.196-2.032-0.846-2.032-2.063C26.971,1.032,28.652,0,30.344,0
		c0.887,0,1.702,0.217,2.465,0.681l-0.763,1.991c-0.485-0.33-1.032-0.588-1.64-0.588c-0.248,0-0.609,0.093-0.609,0.412
		c0,0.289,0.351,0.33,0.567,0.382l0.64,0.145c1.197,0.268,2.063,0.908,2.063,2.228c0,1.856-1.691,2.775-3.373,2.775
		c-0.98,0-2.114-0.269-2.991-0.712L27.569,5.116z"/>
	<path fill="#FFFFFF" d="M33.41,0.124h5.941v2.527l-1.558-0.072v5.322h-2.826V2.579L33.41,2.651V0.124z"/>
	<path fill="#FFFFFF" d="M44.852,5.116l0.145,0.114c0.505,0.392,1.114,0.711,1.764,0.711c0.278,0,0.722-0.113,0.722-0.464
		c0-0.351-0.371-0.382-0.629-0.434l-0.567-0.103c-1.104-0.196-2.032-0.846-2.032-2.063C44.254,1.032,45.936,0,47.627,0
		c0.887,0,1.702,0.217,2.465,0.681l-0.763,1.991c-0.485-0.33-1.032-0.588-1.64-0.588c-0.248,0-0.609,0.093-0.609,0.412
		c0,0.289,0.351,0.33,0.567,0.382l0.64,0.145C49.483,3.291,50.35,3.93,50.35,5.25c0,1.856-1.692,2.775-3.373,2.775
		c-0.98,0-2.115-0.269-2.991-0.712L44.852,5.116z"/>
	<path fill="#FFFFFF" d="M50.692,0.124h5.941v2.527l-1.558-0.072v5.322H52.25V2.579l-1.558,0.072V0.124z"/>
	<path fill="#FFFFFF" d="M58.844,7.901h-2.991l2.702-7.777h3.125l2.775,7.777h-2.991l-0.258-0.97H59.07L58.844,7.901z M60.711,5.085
		l-0.33-1.372c-0.083-0.33-0.135-0.67-0.187-1h-0.103l-0.516,2.373H60.711z"/>
	<path fill="#FFFFFF" d="M63.684,0.124h5.941v2.527l-1.558-0.072v5.322h-2.826V2.579l-1.558,0.072V0.124z"/>
	<path fill="#FFFFFF" d="M70.328,0.124h5.229v2.125h-2.383v0.742h2.177v2.022h-2.177v0.763h2.465v2.125h-5.312V0.124z"/>
	<path fill="#FFFFFF" d="M77.746,0.124h2.909l1.072,4.084H81.8c0.052-0.34,0.104-0.701,0.196-1.031l0.877-3.053h2.878l1.278,7.777
		h-2.733l-0.382-4.26h-0.051c-0.052,0.258-0.104,0.526-0.187,0.774l-1.124,3.486h-1.65l-1.011-3.291
		c-0.082-0.33-0.154-0.64-0.176-0.97h-0.093c-0.021,0.31-0.041,0.629-0.071,0.939l-0.33,3.321h-2.734L77.746,0.124z"/>
	<path fill="#FFFFFF" d="M87.941,0.124h5.229v2.125h-2.383v0.742h2.177v2.022h-2.177v0.763h2.465v2.125h-5.312V0.124z"/>
	<path fill="#FFFFFF" d="M94.38,0.124h2.713l2.537,4.312h0.082c-0.113-0.65-0.236-1.32-0.236-1.98V0.124h2.702v7.777h-2.702
		l-2.486-4.085h-0.083c0.093,0.537,0.176,1.042,0.176,1.558v2.527H94.38V0.124z"/>
	<path fill="#FFFFFF" d="M102.882,0.124h5.941v2.527l-1.558-0.072v5.322h-2.826V2.579l-1.558,0.072V0.124z"/>
</g>
</svg>
