<?xml version="1.0" encoding="utf-8"?>
<!-- Generator: Adobe Illustrator 16.0.4, SVG Export Plug-In . SVG Version: 6.00 Build 0)  -->
<!DOCTYPE svg PUBLIC "-//W3C//DTD SVG 1.0//EN" "http://www.w3.org/TR/2001/REC-SVG-20010904/DTD/svg10.dtd">
<svg version="1.0" id="Layer_1" xmlns="http://www.w3.org/2000/svg" xmlns:xlink="http://www.w3.org/1999/xlink" x="0px" y="0px"
	 width="133.691px" height="22.555px" viewBox="0 0 133.691 22.555" enable-background="new 0 0 133.691 22.555"
	 xml:space="preserve">
<g>
	<path d="M0.66,1.271h2.878c2.609,0,4.611,1.145,4.611,4.002c0,2.311-1.63,3.775-3.91,3.775H0.66V1.271z M3.486,6.718h0.175
		c0.939,0,1.661-0.433,1.661-1.455c0-1.093-0.629-1.558-1.661-1.558H3.486V6.718z"/>
	<path d="M9.173,1.271h3.414c1.753,0,3.239,0.743,3.239,2.703c0,1.176-0.454,1.671-1.506,2.021v0.062
		c0.145,0.113,0.32,0.237,0.475,0.464l1.691,2.527h-3.259l-1.238-2.496h-0.052v2.496H9.173V1.271z M11.937,4.716h0.196
		c0.464,0,0.928-0.072,0.928-0.649c0-0.599-0.423-0.671-0.908-0.671h-0.217V4.716z"/>
	<path d="M19.273,9.049h-2.992l2.703-7.777h3.125l2.775,7.777h-2.992l-0.258-0.97H19.5L19.273,9.049z M21.14,6.233l-0.33-1.372
		c-0.083-0.33-0.134-0.67-0.186-1h-0.103l-0.516,2.373H21.14z"/>
	<path d="M33.696,4.469c-0.021,1.269-0.021,2.331-0.938,3.321c-0.825,0.897-2.094,1.382-3.301,1.382
		c-2.373,0-4.291-1.464-4.291-3.961c0-2.537,1.867-4.064,4.312-4.064c1.352,0,3.208,0.67,3.817,2.001l-2.641,0.969
		C30.437,3.726,30.034,3.52,29.58,3.52c-1.011,0-1.567,0.866-1.567,1.805c0,0.856,0.536,1.661,1.454,1.661
		c0.443,0,1.011-0.206,1.145-0.681h-1.279V4.469H33.696z"/>
	<path d="M41.251,9.049h-2.992l2.703-7.777h3.125l2.775,7.777h-2.992l-0.258-0.97h-2.135L41.251,9.049z M43.118,6.233l-0.33-1.372
		c-0.083-0.33-0.134-0.67-0.186-1h-0.103l-0.516,2.373H43.118z"/>
	<path d="M47.411,1.271h2.713l2.538,4.312h0.083c-0.113-0.65-0.237-1.32-0.237-1.98V1.271h2.703v7.777h-2.703l-2.486-4.084h-0.083
		c0.093,0.536,0.175,1.042,0.175,1.557v2.527h-2.703V1.271z"/>
	<path d="M60.763,1.271h2.826v7.777h-2.826V1.271z"/>
	<path d="M65.839,1.271h2.909l1.073,4.084h0.072c0.052-0.34,0.104-0.701,0.196-1.031l0.876-3.053h2.878l1.279,7.777h-2.734
		l-0.381-4.26h-0.052c-0.051,0.258-0.103,0.526-0.186,0.774l-1.125,3.486h-1.65l-1.011-3.291c-0.083-0.33-0.155-0.64-0.175-0.97
		h-0.093c-0.021,0.31-0.042,0.629-0.072,0.939l-0.33,3.321h-2.733L65.839,1.271z"/>
	<path d="M78.364,9.049h-2.991l2.703-7.777h3.125l2.774,7.777h-2.991l-0.258-0.97h-2.135L78.364,9.049z M80.231,6.233l-0.33-1.372
		c-0.083-0.33-0.134-0.67-0.186-1h-0.103l-0.516,2.373H80.231z"/>
	<path d="M92.788,4.469c-0.021,1.269-0.021,2.331-0.938,3.321c-0.825,0.897-2.094,1.382-3.301,1.382
		c-2.373,0-4.291-1.464-4.291-3.961c0-2.537,1.867-4.064,4.312-4.064c1.352,0,3.208,0.67,3.817,2.001l-2.641,0.969
		c-0.217-0.392-0.619-0.598-1.073-0.598c-1.011,0-1.567,0.866-1.567,1.805c0,0.856,0.536,1.661,1.454,1.661
		c0.443,0,1.011-0.206,1.145-0.681h-1.279V4.469H92.788z"/>
	<path d="M93.719,1.271h5.23v2.125h-2.383v0.743h2.176v2.021h-2.176v0.763h2.465v2.125h-5.312V1.271z"/>
	<path d="M104.491,1.271h2.723v2.62h1.733v-2.62h2.723v7.777h-2.723V6.346h-1.733v2.703h-2.723V1.271z"/>
	<path d="M112.899,1.271h5.23v2.125h-2.383v0.743h2.176v2.021h-2.176v0.763h2.465v2.125h-5.312V1.271z"/>
	<path d="M119.379,1.271h3.414c1.753,0,3.239,0.743,3.239,2.703c0,1.176-0.454,1.671-1.506,2.021v0.062
		c0.145,0.113,0.32,0.237,0.475,0.464l1.691,2.527h-3.259l-1.238-2.496h-0.052v2.496h-2.764V1.271z M122.144,4.716h0.196
		c0.464,0,0.928-0.072,0.928-0.649c0-0.599-0.423-0.671-0.908-0.671h-0.217V4.716z"/>
	<path d="M127.149,1.271h5.23v2.125h-2.383v0.743h2.176v2.021h-2.176v0.763h2.465v2.125h-5.312V1.271z"/>
	<path d="M31.856,13.653h5.941v2.527l-1.558-0.072v5.323h-2.826v-5.323l-1.558,0.072V13.653z"/>
	<path d="M46.867,17.562c0,2.496-1.929,3.992-4.301,3.992c-2.373,0-4.302-1.496-4.302-3.992c0-2.445,1.939-4.033,4.302-4.033
		C44.927,13.529,46.867,15.118,46.867,17.562z M41.111,17.604c0,0.887,0.598,1.496,1.455,1.496c0.856,0,1.454-0.609,1.454-1.496
		c0-0.825-0.557-1.517-1.454-1.517C41.668,16.087,41.111,16.779,41.111,17.604z"/>
	<path d="M52.626,18.646l0.145,0.114c0.505,0.392,1.114,0.711,1.764,0.711c0.279,0,0.722-0.113,0.722-0.464
		c0-0.351-0.371-0.382-0.629-0.434L54.06,18.47c-1.104-0.196-2.032-0.846-2.032-2.063c0-1.846,1.681-2.878,3.373-2.878
		c0.887,0,1.702,0.217,2.465,0.681l-0.763,1.991c-0.485-0.33-1.032-0.588-1.64-0.588c-0.248,0-0.609,0.093-0.609,0.413
		c0,0.289,0.351,0.33,0.567,0.381l0.64,0.145c1.197,0.268,2.063,0.908,2.063,2.228c0,1.856-1.691,2.774-3.373,2.774
		c-0.98,0-2.114-0.268-2.991-0.711L52.626,18.646z"/>
	<path d="M59.024,13.653h2.826v7.777h-2.826V13.653z"/>
	<path d="M64.1,13.653h2.909l1.073,4.084h0.072c0.052-0.34,0.103-0.701,0.196-1.031l0.876-3.053h2.878l1.279,7.777H70.65
		l-0.382-4.26h-0.052c-0.051,0.258-0.103,0.526-0.186,0.774l-1.125,3.486h-1.65l-1.011-3.291c-0.083-0.33-0.155-0.64-0.175-0.97
		h-0.093c-0.021,0.31-0.042,0.629-0.072,0.939l-0.33,3.321h-2.733L64.1,13.653z"/>
	<path d="M74.336,13.653h3.579c1.815,0,3.156,0.928,3.156,2.857c0,1.589-0.99,2.579-2.568,2.579h-1.444v2.341h-2.723V13.653z
		 M77.059,17.129h0.278c0.495,0,1.032-0.083,1.032-0.712c0-0.608-0.578-0.64-1.042-0.64h-0.268V17.129z"/>
	<path d="M81.848,13.653h2.826v5.281h2.373v2.496h-5.199V13.653z"/>
	<path d="M87.842,13.653h2.826v7.777h-2.826V13.653z"/>
	<path d="M91.98,13.653h5.209v2.228h-2.362v0.805H96.9v2.021h-2.073v2.723H91.98V13.653z"/>
	<path d="M100.667,13.653l0.866,2.032h0.083c0.083-0.248,0.155-0.495,0.258-0.732l0.557-1.299h3.177l-2.662,4.425v3.353h-2.764
		v-3.353l-2.713-4.425H100.667z"/>
</g>
</svg>
