<?xml version="1.0" encoding="utf-8"?>
<!-- Generator: Adobe Illustrator 16.0.4, SVG Export Plug-In . SVG Version: 6.00 Build 0)  -->
<!DOCTYPE svg PUBLIC "-//W3C//DTD SVG 1.0//EN" "http://www.w3.org/TR/2001/REC-SVG-20010904/DTD/svg10.dtd">
<svg version="1.0" id="Layer_1" xmlns="http://www.w3.org/2000/svg" xmlns:xlink="http://www.w3.org/1999/xlink" x="0px" y="0px"
	 width="110.935px" height="18.707px" viewBox="0 0 110.935 18.707" enable-background="new 0 0 110.935 18.707"
	 xml:space="preserve">
<g>
	<path d="M14.529,0.12h2.789c2.528,0,4.467,1.109,4.467,3.877c0,2.239-1.579,3.658-3.788,3.658h-3.468V0.12z M17.268,5.397h0.17
		c0.91,0,1.609-0.42,1.609-1.409c0-1.06-0.61-1.509-1.609-1.509h-0.17V5.397z"/>
	<path d="M22.779,0.12h3.308c1.699,0,3.138,0.719,3.138,2.618c0,1.14-0.439,1.619-1.459,1.959v0.06c0.14,0.11,0.31,0.23,0.46,0.45
		l1.639,2.449h-3.158l-1.199-2.418h-0.05v2.418h-2.679V0.12z M25.458,3.458h0.19c0.45,0,0.899-0.07,0.899-0.629
		c0-0.58-0.41-0.65-0.879-0.65h-0.21V3.458z"/>
	<path d="M32.568,7.656h-2.898l2.619-7.536h3.028l2.688,7.536h-2.898l-0.25-0.939h-2.069L32.568,7.656z M34.377,4.927l-0.32-1.329
		c-0.08-0.32-0.13-0.65-0.18-0.97h-0.1l-0.5,2.299H34.377z"/>
	<path d="M46.545,3.218c-0.02,1.229-0.02,2.259-0.91,3.218c-0.8,0.87-2.029,1.339-3.198,1.339c-2.299,0-4.158-1.419-4.158-3.838
		C38.279,1.479,40.088,0,42.457,0c1.309,0,3.108,0.649,3.698,1.939l-2.559,0.939c-0.209-0.38-0.6-0.58-1.039-0.58
		c-0.979,0-1.52,0.839-1.52,1.749c0,0.83,0.52,1.609,1.409,1.609c0.43,0,0.979-0.2,1.109-0.66h-1.239V3.218H46.545z"/>
	<path d="M56.826,7.086c-0.759,0.5-1.469,0.69-2.378,0.69c-1.489,0-3.018-0.67-3.018-2.379c0-1.109,0.899-1.689,1.889-1.879
		c-0.43-0.4-0.739-0.8-0.739-1.409C52.579,0.62,54.078,0,55.357,0c1.209,0,2.759,0.68,2.759,2.089c0,0.879-0.64,1.629-1.47,1.879
		l0.68,0.689c0.46-0.3,0.81-0.729,1.159-1.139l1.43,1.619l-1.18,0.89l1.739,1.629h-3.148L56.826,7.086z M54.438,4.748
		c-0.21,0.14-0.45,0.3-0.45,0.58c0,0.39,0.32,0.57,0.68,0.57c0.28,0,0.479-0.1,0.719-0.2L54.438,4.748z M55.047,2.129
		c0,0.21,0.19,0.49,0.37,0.589c0.23-0.13,0.52-0.359,0.52-0.64c0-0.22-0.19-0.439-0.41-0.439
		C55.247,1.639,55.047,1.859,55.047,2.129z"/>
	<path d="M65.449,0.12h2.788c2.529,0,4.468,1.109,4.468,3.877c0,2.239-1.579,3.658-3.788,3.658h-3.468V0.12z M68.187,5.397h0.17
		c0.91,0,1.609-0.42,1.609-1.409c0-1.06-0.609-1.509-1.609-1.509h-0.17V5.397z"/>
	<path d="M73.699,0.12h3.308c1.699,0,3.139,0.719,3.139,2.618c0,1.14-0.44,1.619-1.46,1.959v0.06c0.141,0.11,0.311,0.23,0.46,0.45
		l1.64,2.449h-3.158l-1.199-2.418h-0.051v2.418h-2.678V0.12z M76.376,3.458h0.19c0.449,0,0.899-0.07,0.899-0.629
		c0-0.58-0.41-0.65-0.88-0.65h-0.21V3.458z"/>
	<path d="M89.334,3.908c0,2.419-1.869,3.868-4.168,3.868s-4.168-1.449-4.168-3.868C80.999,1.539,82.877,0,85.167,0
		S89.334,1.539,89.334,3.908z M83.757,3.948c0,0.859,0.579,1.449,1.409,1.449c0.829,0,1.409-0.59,1.409-1.449
		c0-0.799-0.54-1.469-1.409-1.469S83.757,3.148,83.757,3.948z"/>
	<path d="M90.309,0.12h3.468c1.759,0,3.059,0.899,3.059,2.768c0,1.54-0.96,2.499-2.489,2.499h-1.399v2.269h-2.638V0.12z
		 M92.947,3.488h0.271c0.479,0,0.999-0.08,0.999-0.69c0-0.589-0.56-0.62-1.01-0.62h-0.26V3.488z"/>
	<path d="M2.978,17.587c0,0.789-0.759,1.239-1.489,1.239C0.759,18.827,0,18.376,0,17.587c0-0.8,0.759-1.27,1.489-1.27
		C2.219,16.318,2.978,16.788,2.978,17.587z"/>
	<path d="M8.247,11.17v5.077c0,1.5-1.059,2.579-2.568,2.579c-0.78,0-1.639-0.34-2.249-0.819l0.93-2.329
		c0.14,0.359,0.3,0.79,0.729,0.79c0.44,0,0.48-0.5,0.48-0.82V11.17H8.247z"/>
	<path d="M9.479,11.17h3.468c1.759,0,3.058,0.899,3.058,2.769c0,1.539-0.959,2.499-2.489,2.499h-1.399v2.269H9.479V11.17z
		 M12.118,14.539h0.27c0.48,0,1-0.08,1-0.689c0-0.59-0.56-0.619-1.009-0.619h-0.26V14.539z"/>
	<path d="M24.726,14.269c-0.02,1.229-0.02,2.259-0.91,3.218c-0.8,0.87-2.029,1.34-3.198,1.34c-2.299,0-4.158-1.419-4.158-3.838
		c0-2.459,1.809-3.938,4.178-3.938c1.309,0,3.108,0.65,3.698,1.939l-2.559,0.939c-0.209-0.38-0.6-0.58-1.039-0.58
		c-0.979,0-1.52,0.84-1.52,1.749c0,0.83,0.52,1.609,1.409,1.609c0.43,0,0.979-0.2,1.109-0.659h-1.239v-1.779H24.726z"/>
	<path d="M37.895,14.958c0,2.419-1.869,3.868-4.167,3.868s-4.168-1.449-4.168-3.868c0-2.368,1.879-3.908,4.168-3.908
		S37.895,12.59,37.895,14.958z M32.318,14.999c0,0.859,0.58,1.449,1.409,1.449s1.409-0.59,1.409-1.449c0-0.8-0.54-1.469-1.409-1.469
		S32.318,14.199,32.318,14.999z"/>
	<path d="M38.869,11.17h3.308c1.699,0,3.138,0.72,3.138,2.619c0,1.139-0.439,1.619-1.459,1.959v0.06c0.14,0.11,0.31,0.229,0.46,0.45
		l1.639,2.448h-3.158l-1.199-2.419h-0.05v2.419h-2.679V11.17z M41.548,14.509h0.19c0.45,0,0.899-0.07,0.899-0.63
		c0-0.58-0.41-0.649-0.879-0.649h-0.21V14.509z"/>
	<path d="M53.547,17.587c0,0.789-0.759,1.239-1.489,1.239c-0.729,0-1.489-0.45-1.489-1.239c0-0.8,0.759-1.27,1.489-1.27
		C52.788,16.318,53.547,16.788,53.547,17.587z"/>
	<path d="M54.759,11.17h3.468c1.759,0,3.059,0.899,3.059,2.769c0,1.539-0.96,2.499-2.489,2.499h-1.399v2.269h-2.638V11.17z
		 M57.397,14.539h0.271c0.479,0,0.999-0.08,0.999-0.689c0-0.59-0.56-0.619-1.009-0.619h-0.261V14.539z"/>
	<path d="M62,11.17h2.628l2.459,4.178h0.08c-0.11-0.63-0.23-1.279-0.23-1.919V11.17h2.619v7.536h-2.619l-2.408-3.958h-0.08
		c0.09,0.52,0.17,1.01,0.17,1.51v2.448H62V11.17z"/>
	<path d="M78.724,14.269c-0.02,1.229-0.02,2.259-0.909,3.218c-0.8,0.87-2.029,1.34-3.198,1.34c-2.299,0-4.158-1.419-4.158-3.838
		c0-2.459,1.81-3.938,4.178-3.938c1.31,0,3.108,0.65,3.698,1.939l-2.559,0.939c-0.21-0.38-0.6-0.58-1.039-0.58
		c-0.979,0-1.52,0.84-1.52,1.749c0,0.83,0.52,1.609,1.409,1.609c0.43,0,0.979-0.2,1.109-0.659h-1.239v-1.779H78.724z"/>
	<path d="M83.829,11.17h2.638v2.539h1.68V11.17h2.639v7.536h-2.639v-2.618h-1.68v2.618h-2.638V11.17z"/>
	<path d="M91.979,11.17h5.066v2.06h-2.309v0.719h2.109v1.959h-2.109v0.74h2.389v2.059h-5.146V11.17z"/>
	<path d="M98.258,11.17h3.308c1.699,0,3.139,0.72,3.139,2.619c0,1.139-0.44,1.619-1.46,1.959v0.06c0.141,0.11,0.311,0.229,0.46,0.45
		l1.64,2.448h-3.158l-1.199-2.419h-0.051v2.419h-2.678V11.17z M100.936,14.509h0.19c0.449,0,0.899-0.07,0.899-0.63
		c0-0.58-0.41-0.649-0.88-0.649h-0.21V14.509z"/>
	<path d="M105.789,11.17h5.066v2.06h-2.309v0.719h2.109v1.959h-2.109v0.74h2.389v2.059h-5.146V11.17z"/>
</g>
</svg>
