<?xml version="1.0" encoding="utf-8"?>
<!-- Generator: Adobe Illustrator 16.0.4, SVG Export Plug-In . SVG Version: 6.00 Build 0)  -->
<!DOCTYPE svg PUBLIC "-//W3C//DTD SVG 1.0//EN" "http://www.w3.org/TR/2001/REC-SVG-20010904/DTD/svg10.dtd">
<svg version="1.0" id="Layer_1" xmlns="http://www.w3.org/2000/svg" xmlns:xlink="http://www.w3.org/1999/xlink" x="0px" y="0px"
	 width="8.825px" height="11.01px" viewBox="0 0 8.825 11.01" enable-background="new 0 0 8.825 11.01" xml:space="preserve">
<g>
	<path d="M8.643,8.867c0.126,0.11,0.184,0.266,0.184,0.434c0,0.042,0,0.084-0.029,0.112c-0.027,0.279-0.195,0.49-0.435,0.615
		c0,0.07,0.015,0.113,0.015,0.154c0,0.226-0.069,0.42-0.225,0.588c-0.154,0.154-0.35,0.238-0.561,0.238s-0.406-0.098-0.561-0.294
		c-0.125-0.153-0.211-0.378-0.211-0.573c0-0.029,0-0.029,0-0.043c-0.265-0.14-2.213-1.078-2.409-1.176
		c-0.195,0.098-2.129,1.036-2.409,1.178c0,0.014,0,0.014,0,0.041c0,0.196-0.07,0.42-0.21,0.574
		c-0.154,0.196-0.351,0.294-0.561,0.294s-0.42-0.084-0.56-0.237c-0.154-0.168-0.225-0.363-0.225-0.588c0-0.043,0-0.084,0.014-0.154
		C0.238,9.903,0.056,9.692,0.014,9.413C0,9.385,0,9.343,0,9.301c0-0.168,0.056-0.321,0.168-0.434
		C0.309,8.67,0.519,8.571,0.757,8.571c0.21,0,0.42,0.058,0.602,0.197C1.541,8.67,2.241,8.334,2.745,8.097
		C2.241,7.858,1.583,7.536,1.373,7.438C1.205,7.563,0.98,7.647,0.757,7.647C0.519,7.634,0.309,7.536,0.168,7.382
		C0.056,7.242,0,7.088,0,6.92c0-0.043,0-0.084,0.014-0.142c0.042-0.252,0.225-0.477,0.448-0.602c0-0.043-0.014-0.084-0.014-0.127
		c0-0.224,0.07-0.447,0.225-0.602c0.14-0.154,0.35-0.238,0.56-0.225c0.21,0,0.406,0.112,0.561,0.266
		c0.14,0.183,0.21,0.379,0.21,0.604c0.28,0.153,2.214,1.092,2.409,1.189c0.196-0.098,2.144-1.036,2.409-1.189
		c0-0.225,0.085-0.421,0.212-0.604c0.152-0.153,0.35-0.266,0.559-0.266c0.212-0.014,0.406,0.07,0.562,0.225
		C8.309,5.603,8.379,5.826,8.379,6.05c0,0.043-0.016,0.084-0.016,0.127c0.238,0.125,0.406,0.35,0.436,0.602
		C8.825,6.836,8.825,6.877,8.825,6.92c0,0.168-0.057,0.322-0.183,0.462C8.517,7.536,8.307,7.634,8.068,7.647
		c-0.224,0-0.435-0.084-0.616-0.211c-0.209,0.1-0.854,0.42-1.357,0.658C6.598,8.334,7.284,8.67,7.48,8.769
		c0.168-0.14,0.378-0.195,0.588-0.195C8.307,8.571,8.517,8.67,8.643,8.867z M1.513,2.745C1.513,1.092,2.676,0,4.412,0
		c1.737,0,2.915,1.092,2.915,2.745c0,0.967-0.42,1.821-1.178,2.423c0,0.169,0,0.743,0,0.743L6.051,5.995
		C6.023,6.01,5.366,6.64,4.356,6.64c-1.036,0-1.583-0.645-1.611-0.659L2.676,5.896c0,0,0-0.56,0-0.729
		C1.933,4.566,1.513,3.712,1.513,2.745z"/>
</g>
</svg>
