<?xml version="1.0" encoding="utf-8"?>
<!-- Generator: Adobe Illustrator 16.0.4, SVG Export Plug-In . SVG Version: 6.00 Build 0)  -->
<!DOCTYPE svg PUBLIC "-//W3C//DTD SVG 1.0//EN" "http://www.w3.org/TR/2001/REC-SVG-20010904/DTD/svg10.dtd">
<svg version="1.0" id="Layer_1" xmlns="http://www.w3.org/2000/svg" xmlns:xlink="http://www.w3.org/1999/xlink" x="0px" y="0px"
	 width="2158.393px" height="199px" viewBox="0 0 2158.393 199" enable-background="new 0 0 2158.393 199" xml:space="preserve">
<g>
	<path fill="#CFFF8A" d="M254.001,177.329h-244c-5.523,0-10-4.478-10-10V10c0-5.523,4.477-10,10-10h244c5.523,0,10,4.477,10,10
		v157.329C264.001,172.852,259.524,177.329,254.001,177.329z M20.001,157.329h224V20h-224V157.329z"/>
</g>
<g>
	<path fill="#CFFF8A" d="M132.001,108.159c-2.054,0-4.109-0.632-5.857-1.896l-122-88.159c-3.515-2.541-4.992-7.057-3.657-11.184
		C1.821,2.795,5.664,0,10.001,0h244c4.337,0,8.18,2.795,9.515,6.922c1.335,4.126-0.142,8.643-3.658,11.184l-122,88.16
		C136.11,107.527,134.055,108.159,132.001,108.159z M40.913,20l91.088,65.821L223.088,20H40.913z"/>
</g>
<g>
	<path fill="#CFFF8A" d="M406.712,170.703c-7.89,3.324-15.86,4.99-23.902,4.99c-12.687,0-24.098-2.205-34.228-6.614
		c-10.134-4.409-18.681-10.479-25.642-18.216c-6.962-7.734-12.299-16.824-16.012-27.268c-3.713-10.443-5.57-21.697-5.57-33.765
		c0-12.375,1.857-23.862,5.57-34.46c3.713-10.595,9.05-19.841,16.012-27.73c6.962-7.89,15.508-14.076,25.642-18.564
		c10.131-4.486,21.541-6.73,34.228-6.73c8.506,0,16.744,1.276,24.714,3.829c7.966,2.552,15.159,6.305,21.581,11.254
		c6.418,4.953,11.719,11.063,15.896,18.333c4.177,7.273,6.73,15.627,7.658,25.062h-34.81c-2.168-9.282-6.345-16.244-12.53-20.885
		c-6.19-4.641-13.691-6.961-22.51-6.961c-8.202,0-15.163,1.588-20.885,4.757c-5.725,3.173-10.366,7.426-13.923,12.763
		c-3.561,5.337-6.149,11.41-7.774,18.216c-1.624,6.809-2.437,13.847-2.437,21.117c0,6.961,0.812,13.73,2.437,20.305
		c1.624,6.578,4.213,12.495,7.774,17.754c3.557,5.26,8.198,9.478,13.923,12.646c5.722,3.173,12.683,4.758,20.885,4.758
		c12.067,0,21.386-3.054,27.962-9.166c6.574-6.11,10.403-14.968,11.487-26.571h-36.665V82.407h69.617v89.573h-23.206l-3.713-18.795
		C421.796,161.537,414.602,167.378,406.712,170.703z"/>
	<path fill="#CFFF8A" d="M608.599,6.291v30.632h-87.484v35.504h80.292v28.312h-80.292v40.61h89.342v30.631H484.681V6.291H608.599z"
		/>
	<path fill="#CFFF8A" d="M622.057,36.922V6.291h135.754v30.632h-49.659V171.98h-36.434V36.922H622.057z"/>
	<path fill="#CFFF8A" d="M889.269,110.368c-0.388,1.78-0.579,3.444-0.579,4.989c0,1.549,0.308,2.824,0.928,3.83
		c0.616,1.006,1.625,1.508,3.017,1.508c3.249,0,6.534-1.045,9.862-3.133c3.325-2.088,6.266-5.025,8.818-8.818
		c2.553-3.789,4.641-8.314,6.265-13.575c1.625-5.257,2.437-10.982,2.437-17.172c0-9.282-1.625-17.44-4.873-24.482
		c-3.249-7.037-7.697-12.995-13.343-17.868c-5.648-4.873-12.299-8.547-19.957-11.023c-7.658-2.473-15.896-3.713-24.714-3.713
		c-9.902,0-18.913,1.741-27.035,5.221c-8.122,3.481-15.047,8.278-20.769,14.388c-5.726,6.113-10.134,13.383-13.228,21.813
		c-3.097,8.434-4.641,17.521-4.641,27.267c0,10.21,1.7,19.457,5.105,27.73c3.4,8.277,8.121,15.396,14.155,21.35
		c6.034,5.957,13.265,10.559,21.697,13.807c8.43,3.25,17.596,4.873,27.499,4.873c9.746,0,18.989-1.659,27.731-4.988
		c8.737-3.325,16.128-8.006,22.161-14.04H929.3c-7.89,12.067-18.023,21.312-30.399,27.729c-12.379,6.418-25.838,9.631-40.378,9.631
		c-12.38,0-23.982-2.168-34.81-6.498c-10.831-4.329-20.305-10.362-28.427-18.101c-8.122-7.733-14.504-16.899-19.146-27.499
		c-4.641-10.595-6.962-22.082-6.962-34.46c0-12.219,2.321-23.63,6.962-34.229c4.642-10.595,10.983-19.761,19.029-27.5
		c8.042-7.733,17.404-13.843,28.079-18.332c10.675-4.486,22.046-6.73,34.113-6.73c10.519,0,20.652,1.704,30.399,5.105
		c9.746,3.404,18.332,8.162,25.758,14.271c7.427,6.114,13.381,13.539,17.868,22.277c4.485,8.742,6.73,18.449,6.73,29.124
		c0,11.915-2.128,22.125-6.381,30.631c-4.257,8.511-9.362,15.472-15.316,20.886c-5.957,5.416-11.991,9.397-18.1,11.95
		c-6.113,2.552-11.023,3.829-14.736,3.829c-4.953,0-8.934-1.236-11.951-3.713c-3.017-2.473-4.681-5.646-4.989-9.516h-0.464
		c-2.784,4.642-6.421,8.047-10.905,10.211c-4.489,2.168-9.206,3.25-14.156,3.25c-4.953,0-9.63-1.045-14.04-3.133
		c-4.409-2.09-8.278-4.949-11.604-8.586c-3.327-3.634-5.956-7.851-7.89-12.647c-1.936-4.794-2.901-9.899-2.901-15.315
		c0-7.27,1.197-14.464,3.598-21.582c2.396-7.113,5.801-13.458,10.21-19.028c4.409-5.569,9.746-10.055,16.012-13.459
		c6.266-3.401,13.188-5.105,20.77-5.105c4.948,0,10.054,1.2,15.315,3.597c5.258,2.4,9.203,6.614,11.835,12.647l3.713-12.531h19.029
		l-14.62,59.871C890.082,106.927,889.654,108.591,889.269,110.368z M833.344,112.921c3.325,3.792,7.694,5.687,13.111,5.687
		c4.177,0,8.006-1.082,11.487-3.25c3.48-2.164,6.498-4.909,9.05-8.237c2.553-3.325,4.524-7.078,5.917-11.255
		c1.392-4.177,2.089-8.274,2.089-12.298c0-5.722-1.74-10.443-5.221-14.156c-3.481-3.713-7.698-5.569-12.647-5.569
		c-4.177,0-8.046,1.044-11.603,3.133c-3.562,2.088-6.614,4.796-9.166,8.122c-2.553,3.328-4.525,7.001-5.917,11.022
		c-1.393,4.025-2.089,7.969-2.089,11.835C828.354,104.143,830.015,109.132,833.344,112.921z"/>
	<path fill="#CFFF8A" d="M949.485,36.922V6.291h135.753v30.632h-49.66V171.98h-36.434V36.922H949.485z"/>
	<path fill="#CFFF8A" d="M1140.699,6.291v63.583h67.064V6.291h36.434V171.98h-36.434v-71.475h-67.064v71.475h-36.434V6.291H1140.699
		z"/>
	<path fill="#CFFF8A" d="M1358.832,6.291l61.959,165.689h-37.825l-12.53-36.897h-61.959l-12.995,36.897h-36.665l62.655-165.689
		H1358.832L1358.832,6.291z M1360.92,107.932l-20.885-60.799h-0.464l-21.582,60.799H1360.92z"/>
	<path fill="#CFFF8A" d="M1400.835,36.922V6.291h135.754v30.632h-49.66V171.98h-36.433V36.922H1400.835z"/>
	<path fill="#CFFF8A" d="M1583.462,131.139c2.009,3.867,4.677,7,8.006,9.396c3.325,2.4,7.23,4.178,11.72,5.338
		c4.484,1.16,9.125,1.74,13.923,1.74c3.249,0,6.729-0.268,10.442-0.812c3.713-0.539,7.194-1.585,10.443-3.133
		c3.249-1.544,5.954-3.673,8.122-6.381c2.165-2.705,3.249-6.148,3.249-10.327c0-4.483-1.433-8.122-4.293-10.905
		c-2.864-2.785-6.614-5.105-11.255-6.963c-4.642-1.857-9.902-3.48-15.78-4.873c-5.881-1.393-11.835-2.937-17.868-4.641
		c-6.19-1.544-12.223-3.441-18.101-5.686c-5.881-2.241-11.14-5.141-15.78-8.702c-4.642-3.557-8.395-8.006-11.255-13.343
		c-2.864-5.337-4.293-11.795-4.293-19.377c0-8.506,1.816-15.896,5.453-22.162c3.633-6.265,8.39-11.486,14.271-15.664
		c5.878-4.176,12.531-7.27,19.957-9.282c7.426-2.008,14.853-3.016,22.277-3.016c8.662,0,16.976,0.968,24.946,2.901
		c7.966,1.936,15.043,5.068,21.232,9.397c6.187,4.333,11.1,9.863,14.736,16.592c3.633,6.73,5.453,14.892,5.453,24.482h-35.273
		c-0.312-4.949-1.355-9.05-3.133-12.299c-1.78-3.249-4.141-5.801-7.078-7.657c-2.941-1.857-6.305-3.17-10.094-3.945
		c-3.793-0.772-7.931-1.161-12.415-1.161c-2.941,0-5.881,0.312-8.818,0.929c-2.94,0.62-5.608,1.704-8.006,3.249
		c-2.4,1.548-4.373,3.481-5.917,5.802c-1.548,2.32-2.321,5.261-2.321,8.817c0,3.249,0.616,5.882,1.856,7.89
		c1.236,2.013,3.673,3.869,7.31,5.57c3.634,1.704,8.662,3.404,15.084,5.105c6.418,1.704,14.812,3.869,25.179,6.498
		c3.093,0.621,7.386,1.741,12.879,3.365c5.489,1.625,10.942,4.217,16.359,7.774c5.414,3.56,10.094,8.318,14.04,14.271
		c3.945,5.958,5.917,13.576,5.917,22.858c0,7.581-1.472,14.618-4.409,21.116c-2.94,6.498-7.31,12.107-13.11,16.824
		c-5.801,4.722-12.995,8.395-21.581,11.023s-18.528,3.945-29.819,3.945c-9.13,0-17.984-1.125-26.57-3.365
		c-8.586-2.241-16.168-5.762-22.741-10.559c-6.577-4.793-11.799-10.906-15.664-18.334c-3.869-7.424-5.726-16.244-5.569-26.453
		h35.273C1580.445,122.551,1581.45,127.271,1583.462,131.139z"/>
	<path fill="#CFFF8A" d="M1742.65,6.291v63.583h67.063V6.291h36.433V171.98h-36.433v-71.475h-67.063v71.475h-36.434V6.291H1742.65z"
		/>
	<path fill="#CFFF8A" d="M1912.516,136.242v35.736h-36.433v-35.736H1912.516z"/>
	<path fill="#CFFF8A" d="M1979.115,6.291V171.98h-36.434V6.291H1979.115z"/>
	<path fill="#CFFF8A" d="M1998.145,36.922V6.291h135.754v30.632h-49.66V171.98h-36.434V36.922H1998.145z"/>
</g>
</svg>
