<?xml version="1.0" encoding="utf-8"?>
<!-- Generator: Adobe Illustrator 16.0.4, SVG Export Plug-In . SVG Version: 6.00 Build 0)  -->
<!DOCTYPE svg PUBLIC "-//W3C//DTD SVG 1.0//EN" "http://www.w3.org/TR/2001/REC-SVG-20010904/DTD/svg10.dtd">
<svg version="1.0" id="Layer_1" xmlns="http://www.w3.org/2000/svg" xmlns:xlink="http://www.w3.org/1999/xlink" x="0px" y="0px"
	 width="126.625px" height="104.076px" viewBox="0 0 126.625 104.076" enable-background="new 0 0 126.625 104.076"
	 xml:space="preserve">
<g>
	<polygon points="16.772,53.75 16.772,74.713 8.383,74.713 8.383,53.75 0,53.75 0,104.076 8.383,104.076 8.383,83.106 
		16.772,83.106 16.772,104.076 25.155,104.076 25.155,53.75 	"/>
	<path d="M50.319,53.75v39.834c0,1.16-0.926,2.096-2.092,2.096h-4.191c-1.157,0-2.103-0.936-2.103-2.096V53.75h-8.382v41.93
		c0,4.641,3.762,8.396,8.382,8.396h8.386c4.644,0,8.396-3.755,8.396-8.396V53.75H50.319z"/>
	<polygon points="125.82,62.132 125.82,53.75 109.042,53.75 100.659,53.75 100.659,104.076 109.042,104.076 125.82,104.076 
		125.82,95.68 109.042,95.68 109.042,83.106 117.437,83.106 117.437,74.713 109.042,74.713 109.042,62.132 	"/>
	<path d="M92.275,66.327v-4.195l0,0c0-4.631-3.768-8.382-8.402-8.382l0,0h-8.376c-4.634,0-8.396,3.751-8.396,8.382V95.68
		c0,4.641,3.755,8.396,8.396,8.396h8.376l0,0c4.635,0,8.402-3.755,8.402-8.396V74.713H79.691v8.393h4.182v10.485
		c0,1.153-0.932,2.089-2.089,2.089H77.6c-1.167,0-2.103-0.936-2.103-2.096V64.222c0-1.167,0.936-2.089,2.103-2.089h4.185
		c1.157,0,2.089,0.922,2.089,2.089v2.105H92.275z"/>
</g>
</svg>
