<?xml version="1.0" encoding="utf-8"?>
<!-- Generator: Adobe Illustrator 16.0.4, SVG Export Plug-In . SVG Version: 6.00 Build 0)  -->
<!DOCTYPE svg PUBLIC "-//W3C//DTD SVG 1.0//EN" "http://www.w3.org/TR/2001/REC-SVG-20010904/DTD/svg10.dtd">
<svg version="1.0" id="Layer_1" xmlns="http://www.w3.org/2000/svg" xmlns:xlink="http://www.w3.org/1999/xlink" x="0px" y="0px"
	 width="370.973px" height="24.895px" viewBox="0 0 370.973 24.895" enable-background="new 0 0 370.973 24.895"
	 xml:space="preserve">
<g>
	<path d="M2.688,15.871l0.448,0.353c1.567,1.216,3.455,2.208,5.472,2.208c0.864,0,2.24-0.353,2.24-1.44s-1.152-1.184-1.952-1.344
		l-1.76-0.32c-3.425-0.608-6.305-2.624-6.305-6.4C0.832,3.2,6.048,0,11.295,0c2.751,0,5.279,0.672,7.647,2.112l-2.368,6.176
		c-1.504-1.023-3.2-1.824-5.087-1.824c-0.769,0-1.888,0.288-1.888,1.28c0,0.896,1.088,1.024,1.76,1.185l1.983,0.447
		c3.712,0.832,6.399,2.815,6.399,6.911c0,5.76-5.248,8.607-10.463,8.607c-3.04,0-6.561-0.832-9.279-2.208L2.688,15.871z"/>
	<path d="M23.328,0.384h8.769V24.51h-8.769V0.384z"/>
	<path d="M39.872,0.384h9.023l3.328,12.672h0.224c0.16-1.057,0.32-2.177,0.608-3.2l2.72-9.473h8.928l3.967,24.126H60.19
		l-1.185-13.215h-0.159c-0.16,0.8-0.32,1.632-0.576,2.399L54.783,24.51h-5.12l-3.136-10.206c-0.256-1.024-0.48-1.984-0.544-3.009
		h-0.288c-0.064,0.96-0.128,1.952-0.224,2.912L44.447,24.51h-8.479L39.872,0.384z"/>
	<path d="M72.416,0.384h11.104c5.632,0,9.792,2.881,9.792,8.864c0,4.927-3.072,7.999-7.968,7.999h-4.479v7.264h-8.447L72.416,0.384
		L72.416,0.384z M80.863,11.167h0.864c1.536,0,3.199-0.256,3.199-2.208c0-1.888-1.792-1.983-3.231-1.983h-0.832V11.167z"/>
	<path d="M96.512,0.384h8.768v16.384h7.359v7.743H96.512V0.384z"/>
	<path d="M115.903,0.384h8.768V24.51h-8.768V0.384z"/>
	<path d="M129.535,0.384h16.159v6.912h-7.327v2.496h6.431v6.271h-6.431v8.446h-8.832V0.384z"/>
	<path d="M157.278,0.384l2.688,6.305h0.257c0.256-0.769,0.479-1.536,0.8-2.272l1.728-4.032h9.855l-8.255,13.728V24.51h-8.576V14.111
		l-8.415-13.728H157.278z"/>
	<path d="M181.375,20.926c0,2.528-2.432,3.969-4.768,3.969c-2.335,0-4.769-1.44-4.769-3.969c0-2.56,2.433-4.062,4.769-4.062
		C178.942,16.863,181.375,18.367,181.375,20.926z"/>
	<path d="M184.383,0.384h18.432v7.841L197.982,8v16.51h-8.769V8l-4.832,0.225L184.383,0.384L184.383,0.384z"/>
	<path d="M205.918,0.384h8.448V8.51h5.375V0.384h8.447V24.51h-8.447v-8.383h-5.375v8.383h-8.448V0.384z"/>
	<path d="M240.029,24.51h-9.279l8.384-24.126h9.695l8.607,24.126h-9.279l-0.8-3.008h-6.624L240.029,24.51z M245.821,15.775
		l-1.023-4.256c-0.257-1.024-0.416-2.08-0.575-3.104h-0.32l-1.601,7.359L245.821,15.775L245.821,15.775z"/>
	<path d="M255.839,0.384h18.432v7.841L269.438,8v16.51h-8.769V8l-4.831,0.225V0.384L255.839,0.384z"/>
	<path d="M278.814,15.871l0.448,0.353c1.566,1.216,3.454,2.208,5.472,2.208c0.863,0,2.239-0.353,2.239-1.44
		s-1.151-1.184-1.952-1.344l-1.76-0.32c-3.425-0.608-6.304-2.624-6.304-6.4C276.959,3.2,282.174,0,287.422,0
		c2.752,0,5.279,0.672,7.647,2.112l-2.368,6.176c-1.504-1.023-3.199-1.824-5.088-1.824c-0.769,0-1.888,0.288-1.888,1.28
		c0,0.896,1.088,1.024,1.76,1.185l1.983,0.447c3.713,0.832,6.399,2.815,6.399,6.911c0,5.76-5.248,8.607-10.463,8.607
		c-3.04,0-6.561-0.832-9.279-2.208L278.814,15.871z"/>
	<path d="M299.39,0.384h8.447V8.51h5.375V0.384h8.447V24.51h-8.447v-8.383h-5.375v8.383h-8.447V0.384z"/>
	<path d="M335.836,20.926c0,2.528-2.432,3.969-4.768,3.969s-4.769-1.44-4.769-3.969c0-2.56,2.433-4.062,4.769-4.062
		S335.836,18.367,335.836,20.926z"/>
	<path d="M340.573,0.384h8.768V24.51h-8.768V0.384z"/>
	<path d="M352.541,0.384h18.432v7.841L366.14,8v16.51h-8.769V8l-4.831,0.225V0.384L352.541,0.384z"/>
</g>
</svg>
