<?xml version="1.0" encoding="utf-8"?>
<!-- Generator: Adobe Illustrator 16.0.4, SVG Export Plug-In . SVG Version: 6.00 Build 0)  -->
<!DOCTYPE svg PUBLIC "-//W3C//DTD SVG 1.0//EN" "http://www.w3.org/TR/2001/REC-SVG-20010904/DTD/svg10.dtd">
<svg version="1.0" id="Layer_1" xmlns="http://www.w3.org/2000/svg" xmlns:xlink="http://www.w3.org/1999/xlink" x="0px" y="0px"
	 width="2158.392px" height="199px" viewBox="0 0 2158.392 199" enable-background="new 0 0 2158.392 199" xml:space="preserve">
<g>
	<polyline fill="#FFFFFF" points="468.684,103.115 468.684,167.328 311.358,167.328 311.358,10.001 376.25,10.001 	"/>
	<path d="M468.684,177.328H311.358c-5.523,0-10-4.477-10-10V10.001c0-5.523,4.477-10,10-10h64.892c5.523,0,10,4.477,10,10
		s-4.477,10-10,10h-54.892v137.326h137.326v-54.213c0-5.523,4.477-10,10-10s10,4.477,10,10v64.213
		C478.684,172.851,474.207,177.328,468.684,177.328z"/>
</g>
<g>
	<g>
		<line fill="none" x1="384.452" y1="94.334" x2="468.786" y2="10.001"/>
		<path d="M384.452,104.334c-2.56,0-5.118-0.976-7.071-2.929c-3.905-3.905-3.905-10.237,0-14.142l84.334-84.333
			c3.905-3.905,10.237-3.905,14.142,0c3.905,3.905,3.905,10.237,0,14.142l-84.334,84.333
			C389.571,103.357,387.011,104.334,384.452,104.334z"/>
	</g>
	<g>
		<path d="M468.786,77.25c-5.523,0-10-4.477-10-10V20.001h-47.247c-5.523,0-10-4.477-10-10s4.477-10,10-10h57.247
			c5.523,0,10,4.477,10,10V67.25C478.786,72.772,474.309,77.25,468.786,77.25z"/>
	</g>
</g>
<g>
	<path d="M524.123,35.832V4.976h136.749v30.856h-50.024v136.048h-36.7V35.832H524.123z"/>
	<path d="M716.738,4.976v64.05h67.556V4.976h36.7v166.904h-36.7V99.881h-67.556v71.998h-36.7V4.976H716.738z"/>
	<path d="M936.471,4.976l62.414,166.904h-38.104l-12.623-37.167h-62.414l-13.091,37.167h-36.934L898.837,4.976H936.471z
		 M938.575,107.361l-21.038-61.244h-0.468l-21.74,61.244H938.575z"/>
	<path d="M978.782,35.832V4.976h136.749v30.856h-50.023v136.048h-36.7V35.832H978.782z"/>
	<path d="M1162.749,130.738c2.023,3.896,4.712,7.053,8.065,9.467c3.349,2.418,7.283,4.208,11.805,5.376
		c4.519,1.169,9.193,1.753,14.026,1.753c3.272,0,6.779-0.27,10.519-0.818c3.74-0.543,7.247-1.596,10.52-3.156
		c3.272-1.556,5.997-3.699,8.182-6.428c2.181-2.725,3.273-6.195,3.273-10.402c0-4.518-1.443-8.182-4.325-10.986
		c-2.885-2.805-6.662-5.143-11.337-7.014c-4.675-1.869-9.976-3.506-15.896-4.908c-5.924-1.402-11.922-2.958-17.999-4.675
		c-6.234-1.556-12.312-3.466-18.232-5.728c-5.924-2.257-11.221-5.179-15.896-8.766c-4.675-3.583-8.456-8.065-11.337-13.441
		c-2.885-5.376-4.325-11.881-4.325-19.519c0-8.569,1.83-16.013,5.493-22.324c3.66-6.312,8.452-11.571,14.376-15.779
		c5.921-4.208,12.623-7.323,20.104-9.35c7.479-2.021,14.96-3.037,22.44-3.037c8.727,0,17.102,0.975,25.129,2.922
		c8.024,1.951,15.154,5.106,21.39,9.467c6.23,4.365,11.18,9.935,14.844,16.714c3.66,6.779,5.493,15.001,5.493,24.662h-35.531
		c-0.314-4.986-1.366-9.117-3.156-12.389c-1.793-3.273-4.171-5.844-7.13-7.714c-2.962-1.87-6.352-3.192-10.169-3.974
		c-3.82-0.778-7.988-1.169-12.506-1.169c-2.962,0-5.924,0.314-8.883,0.935c-2.962,0.625-5.65,1.717-8.065,3.272
		c-2.418,1.56-4.405,3.507-5.961,5.844c-1.56,2.337-2.338,5.3-2.338,8.883c0,3.272,0.621,5.924,1.87,7.948
		c1.245,2.027,3.7,3.897,7.363,5.61c3.659,1.717,8.726,3.43,15.193,5.143c6.465,1.717,14.92,3.897,25.363,6.545
		c3.116,0.625,7.44,1.753,12.974,3.389c5.53,1.637,11.023,4.248,16.48,7.831c5.453,3.587,10.169,8.379,14.142,14.376
		c3.975,6.001,5.961,13.676,5.961,23.025c0,7.638-1.482,14.727-4.44,21.271c-2.962,6.545-7.363,12.195-13.207,16.947
		c-5.844,4.756-13.091,8.456-21.74,11.104c-8.648,2.648-18.664,3.975-30.038,3.975c-9.197,0-18.116-1.133-26.765-3.391
		c-8.649-2.256-16.286-5.804-22.908-10.636c-6.626-4.829-11.885-10.987-15.779-18.467c-3.896-7.479-5.767-16.362-5.609-26.647h35.53
		C1159.71,122.088,1160.722,126.844,1162.749,130.738z"/>
	<path d="M1323.105,4.976v64.05h67.556V4.976h36.7v166.904h-36.7V99.881h-67.556v71.998h-36.7V4.976H1323.105z"/>
	<path d="M1494.217,135.88v35.999h-36.7V135.88H1494.217z"/>
	<path d="M1561.305,4.976v166.904h-36.7V4.976H1561.305z"/>
	<path d="M1580.472,35.832V4.976h136.749v30.856h-50.024v136.048h-36.7V35.832H1580.472z"/>
</g>
</svg>
