<?xml version="1.0" encoding="utf-8"?>
<!-- Generator: Adobe Illustrator 16.0.4, SVG Export Plug-In . SVG Version: 6.00 Build 0)  -->
<!DOCTYPE svg PUBLIC "-//W3C//DTD SVG 1.0//EN" "http://www.w3.org/TR/2001/REC-SVG-20010904/DTD/svg10.dtd">
<svg version="1.0" id="Layer_1" xmlns="http://www.w3.org/2000/svg" xmlns:xlink="http://www.w3.org/1999/xlink" x="0px" y="0px"
	 width="529.607px" height="56.35px" viewBox="0 0 529.607 56.35" enable-background="new 0 0 529.607 56.35" xml:space="preserve">
<g>
	<path fill="#FFA35F" d="M40.757,50.907c-4.168,3.628-9.932,5.441-17.292,5.441c-7.461,0-13.238-1.799-17.329-5.402
		C2.045,47.346,0,41.788,0,34.273V0h12.119v34.272c0,1.493,0.128,2.959,0.386,4.398c0.257,1.44,0.797,2.718,1.621,3.821
		c0.822,1.107,1.967,2.008,3.435,2.701c1.466,0.695,3.435,1.042,5.904,1.042c4.324,0,7.308-0.966,8.955-2.895
		c1.647-1.931,2.471-4.952,2.471-9.069V0h12.118v34.272C47.009,41.734,44.925,47.28,40.757,50.907"/>
	<path fill="#FFA35F" d="M63.221,15.207v5.559h0.231c1.389-2.315,3.191-4.002,5.403-5.058c2.213-1.054,4.478-1.582,6.794-1.582
		c2.933,0,5.338,0.399,7.217,1.197c1.877,0.799,3.357,1.904,4.438,3.319c1.081,1.415,1.84,3.139,2.277,5.171
		c0.437,2.034,0.657,4.285,0.657,6.755v24.548H79.277V32.574c0-3.293-0.516-5.75-1.545-7.371c-1.03-1.621-2.855-2.433-5.48-2.433
		c-2.985,0-5.147,0.889-6.484,2.663c-1.339,1.775-2.007,4.695-2.007,8.762v20.92H52.799V15.207H63.221z"/>
	<path fill="#FFA35F" d="M96.952,0h10.961v9.031H96.952V0z M107.914,55.115H96.953V15.207h10.961V55.115z"/>
	<polygon fill="#FFA35F" points="123.351,55.115 109.688,15.207 121.19,15.207 129.604,42.456 129.758,42.456 138.172,15.207 
		149.056,15.207 135.548,55.115 	"/>
	<path fill="#FFA35F" d="M162.642,45.544c1.646,1.595,4.014,2.394,7.101,2.394c2.212,0,4.117-0.556,5.713-1.661
		c1.594-1.105,2.572-2.276,2.932-3.512h9.65c-1.544,4.785-3.912,8.208-7.102,10.268c-3.192,2.059-7.051,3.087-11.579,3.087
		c-3.139,0-5.97-0.502-8.491-1.507c-2.522-1.001-4.658-2.431-6.407-4.283s-3.101-4.063-4.052-6.639
		c-0.953-2.571-1.429-5.401-1.429-8.491c0-2.982,0.49-5.763,1.468-8.336c0.977-2.572,2.366-4.798,4.168-6.677
		c1.8-1.878,3.949-3.358,6.445-4.438c2.495-1.082,5.262-1.622,8.298-1.622c3.396,0,6.356,0.656,8.877,1.968
		c2.521,1.312,4.594,3.077,6.214,5.288c1.621,2.213,2.791,4.736,3.513,7.565c0.72,2.83,0.977,5.789,0.771,8.877H159.94
		C160.095,41.376,160.994,43.947,162.642,45.544 M175.031,24.547c-1.312-1.44-3.308-2.161-5.982-2.161
		c-1.75,0-3.204,0.296-4.362,0.887c-1.157,0.593-2.084,1.326-2.779,2.2c-0.694,0.876-1.184,1.803-1.466,2.779
		c-0.284,0.978-0.451,1.854-0.502,2.626h17.832C177.257,28.098,176.343,25.988,175.031,24.547"/>
	<path fill="#FFA35F" d="M203.708,15.207v7.411h0.154c0.514-1.235,1.209-2.381,2.084-3.436c0.874-1.055,1.878-1.955,3.011-2.703
		c1.131-0.745,2.34-1.322,3.628-1.735c1.286-0.411,2.625-0.618,4.014-0.618c0.719,0,1.517,0.13,2.393,0.387v10.189
		c-0.515-0.104-1.133-0.193-1.853-0.271c-0.721-0.077-1.416-0.116-2.084-0.116c-2.008,0-3.705,0.335-5.095,1.004
		c-1.389,0.67-2.508,1.582-3.358,2.74c-0.849,1.157-1.455,2.509-1.814,4.052c-0.36,1.546-0.54,3.217-0.54,5.018v17.987h-10.962
		V15.207H203.708z"/>
	<path fill="#FFA35F" d="M230.222,45.195c0.489,0.85,1.12,1.546,1.892,2.085c0.772,0.54,1.659,0.939,2.662,1.196
		c1.004,0.258,2.047,0.386,3.127,0.386c0.772,0,1.583-0.09,2.431-0.271c0.849-0.178,1.622-0.461,2.316-0.848
		c0.695-0.387,1.274-0.899,1.737-1.542c0.463-0.644,0.694-1.455,0.694-2.435c0-1.645-1.093-2.881-3.28-3.704
		c-2.188-0.822-5.237-1.647-9.147-2.471c-1.596-0.359-3.154-0.784-4.67-1.273c-1.519-0.487-2.869-1.131-4.053-1.93
		c-1.185-0.799-2.136-1.8-2.855-3.01c-0.722-1.21-1.082-2.688-1.082-4.439c0-2.571,0.502-4.681,1.506-6.329
		c1.003-1.646,2.327-2.945,3.974-3.897c1.648-0.952,3.5-1.622,5.559-2.007c2.058-0.387,4.168-0.579,6.33-0.579
		c2.161,0,4.257,0.206,6.291,0.617c2.032,0.413,3.845,1.107,5.442,2.084c1.594,0.978,2.92,2.277,3.975,3.897
		c1.054,1.622,1.686,3.667,1.891,6.137h-10.421c-0.154-2.108-0.952-3.536-2.393-4.282s-3.139-1.12-5.094-1.12
		c-0.618,0-1.287,0.038-2.007,0.116c-0.722,0.076-1.377,0.244-1.969,0.502c-0.592,0.258-1.094,0.63-1.504,1.118
		c-0.413,0.489-0.619,1.146-0.619,1.969c0,0.978,0.36,1.774,1.081,2.394c0.72,0.616,1.66,1.118,2.818,1.505
		c1.157,0.386,2.482,0.733,3.975,1.042c1.492,0.31,3.011,0.645,4.555,1.004c1.594,0.358,3.151,0.799,4.669,1.312
		c1.518,0.515,2.869,1.196,4.053,2.045c1.183,0.851,2.134,1.904,2.856,3.167c0.72,1.262,1.081,2.814,1.081,4.667
		c0,2.627-0.529,4.826-1.583,6.603c-1.055,1.774-2.431,3.203-4.13,4.285c-1.697,1.08-3.64,1.839-5.827,2.274
		c-2.189,0.438-4.413,0.657-6.677,0.657c-2.316,0-4.581-0.232-6.793-0.694c-2.214-0.463-4.182-1.235-5.905-2.317
		c-1.725-1.081-3.14-2.507-4.245-4.282c-1.108-1.775-1.712-4.003-1.815-6.676h10.422C229.49,43.33,229.733,44.347,230.222,45.195"/>
	<path fill="#FFA35F" d="M263.298,21.073c1.129-1.698,2.573-3.061,4.323-4.092c1.749-1.028,3.717-1.762,5.903-2.199
		c2.188-0.437,4.389-0.656,6.603-0.656c2.006,0,4.038,0.143,6.097,0.425c2.06,0.283,3.938,0.837,5.635,1.66
		c1.699,0.823,3.089,1.968,4.17,3.434c1.08,1.467,1.621,3.41,1.621,5.828V46.24c0,1.801,0.103,3.523,0.31,5.171
		c0.203,1.648,0.563,2.884,1.079,3.707h-11.115c-0.206-0.619-0.374-1.248-0.501-1.895c-0.13-0.642-0.22-1.299-0.271-1.967
		c-1.75,1.803-3.81,3.062-6.176,3.78c-2.369,0.722-4.785,1.082-7.256,1.082c-1.904,0-3.681-0.232-5.326-0.694
		c-1.646-0.463-3.088-1.183-4.323-2.161c-1.235-0.977-2.201-2.213-2.894-3.707c-0.696-1.491-1.043-3.266-1.043-5.325
		c0-2.265,0.398-4.129,1.196-5.598c0.797-1.465,1.827-2.635,3.088-3.511c1.261-0.875,2.702-1.531,4.323-1.971
		c1.619-0.436,3.254-0.783,4.9-1.041c1.647-0.258,3.27-0.461,4.863-0.616c1.596-0.155,3.012-0.386,4.246-0.695
		c1.234-0.308,2.211-0.759,2.934-1.351c0.72-0.593,1.055-1.454,1.004-2.586c0-1.183-0.193-2.121-0.58-2.817
		c-0.385-0.694-0.899-1.234-1.543-1.621c-0.645-0.386-1.391-0.643-2.238-0.772c-0.85-0.127-1.764-0.191-2.74-0.191
		c-2.161,0-3.859,0.463-5.095,1.389s-1.958,2.471-2.161,4.631h-10.962C261.522,24.907,262.166,22.772,263.298,21.073 M284.951,36.55
		c-0.696,0.232-1.442,0.425-2.24,0.578c-0.798,0.156-1.633,0.286-2.508,0.388c-0.876,0.104-1.75,0.231-2.624,0.385
		c-0.824,0.156-1.635,0.362-2.432,0.618c-0.799,0.259-1.494,0.604-2.086,1.043c-0.594,0.437-1.067,0.99-1.428,1.658
		c-0.359,0.671-0.541,1.521-0.541,2.547c0,0.979,0.182,1.802,0.541,2.473c0.359,0.67,0.85,1.194,1.467,1.582
		c0.617,0.386,1.338,0.655,2.16,0.811c0.823,0.155,1.674,0.232,2.549,0.232c2.16,0,3.834-0.36,5.019-1.081
		c1.183-0.721,2.058-1.582,2.624-2.587c0.564-1.003,0.913-2.019,1.042-3.048s0.192-1.854,0.192-2.471v-4.093
		C286.224,35.998,285.646,36.318,284.951,36.55"/>
	<rect x="304.132" y="0" fill="#FFA35F" width="10.962" height="55.115"/>
	<path fill="#FFA35F" d="M330.261,45.195c0.489,0.85,1.12,1.546,1.893,2.085c0.771,0.54,1.658,0.939,2.662,1.196
		c1.004,0.258,2.047,0.386,3.129,0.386c0.77,0,1.58-0.09,2.431-0.271c0.849-0.178,1.621-0.461,2.313-0.848
		c0.696-0.387,1.275-0.899,1.737-1.542c0.464-0.644,0.695-1.455,0.695-2.435c0-1.645-1.095-2.881-3.281-3.704
		c-2.188-0.822-5.237-1.647-9.146-2.471c-1.596-0.359-3.154-0.784-4.672-1.273c-1.517-0.487-2.869-1.131-4.051-1.93
		c-1.186-0.799-2.138-1.8-2.856-3.01c-0.722-1.21-1.081-2.688-1.081-4.439c0-2.571,0.503-4.681,1.507-6.329
		c1.001-1.646,2.325-2.945,3.976-3.897c1.646-0.952,3.498-1.622,5.558-2.007c2.059-0.387,4.168-0.579,6.329-0.579
		c2.162,0,4.257,0.206,6.291,0.617c2.031,0.413,3.847,1.107,5.441,2.084c1.596,0.978,2.92,2.277,3.977,3.897
		c1.055,1.622,1.686,3.667,1.892,6.137h-10.42c-0.156-2.108-0.954-3.536-2.396-4.282c-1.439-0.746-3.138-1.12-5.092-1.12
		c-0.621,0-1.289,0.038-2.011,0.116c-0.722,0.076-1.377,0.244-1.966,0.502c-0.596,0.258-1.096,0.63-1.508,1.118
		c-0.41,0.489-0.617,1.146-0.617,1.969c0,0.978,0.359,1.774,1.08,2.394c0.723,0.616,1.66,1.118,2.818,1.505
		c1.156,0.386,2.481,0.733,3.977,1.042c1.49,0.31,3.01,0.645,4.555,1.004c1.594,0.358,3.15,0.799,4.669,1.312
		c1.519,0.515,2.869,1.196,4.052,2.045c1.185,0.851,2.138,1.904,2.857,3.167c0.721,1.262,1.079,2.814,1.079,4.667
		c0,2.627-0.526,4.826-1.582,6.603c-1.056,1.774-2.431,3.203-4.129,4.285c-1.697,1.08-3.642,1.839-5.829,2.274
		c-2.188,0.438-4.413,0.657-6.678,0.657c-2.313,0-4.581-0.232-6.791-0.694c-2.213-0.463-4.184-1.235-5.905-2.317
		c-1.726-1.081-3.142-2.507-4.246-4.282c-1.106-1.775-1.711-4.003-1.813-6.676h10.422C329.528,43.33,329.771,44.347,330.261,45.195"
		/>
	<path fill="#FFA35F" d="M379.626,22.386c-1.751,0-3.216,0.399-4.4,1.196c-1.185,0.799-2.148,1.827-2.895,3.089
		c-0.747,1.26-1.275,2.649-1.583,4.166c-0.312,1.521-0.462,3.025-0.462,4.517c0,1.44,0.15,2.909,0.462,4.4
		c0.308,1.493,0.812,2.845,1.504,4.053c0.696,1.21,1.634,2.201,2.817,2.971c1.185,0.772,2.628,1.16,4.324,1.16
		c2.623,0,4.644-0.734,6.06-2.202c1.414-1.466,2.303-3.436,2.662-5.904h10.578c-0.724,5.303-2.779,9.34-6.177,12.119
		c-3.398,2.778-7.744,4.169-13.047,4.169c-2.984,0-5.724-0.502-8.22-1.505c-2.499-1.003-4.621-2.406-6.369-4.206
		c-1.749-1.804-3.116-3.949-4.092-6.446c-0.979-2.495-1.468-5.236-1.468-8.221c0-3.089,0.451-5.955,1.352-8.606
		s2.227-4.941,3.977-6.871c1.748-1.93,3.886-3.436,6.406-4.515c2.521-1.082,5.403-1.622,8.646-1.622
		c2.366,0,4.646,0.309,6.831,0.927c2.188,0.617,4.143,1.557,5.865,2.817c1.725,1.262,3.127,2.831,4.209,4.709
		c1.079,1.879,1.696,4.104,1.853,6.677h-10.729C387.01,24.677,384.308,22.386,379.626,22.386"/>
	<path fill="#FFA35F" d="M415.828,45.544c1.646,1.595,4.013,2.394,7.103,2.394c2.211,0,4.114-0.556,5.711-1.661
		c1.596-1.105,2.574-2.276,2.935-3.512h9.647c-1.545,4.785-3.908,8.208-7.101,10.268c-3.192,2.059-7.053,3.087-11.58,3.087
		c-3.137,0-5.97-0.502-8.491-1.507c-2.521-1.001-4.657-2.431-6.404-4.283c-1.75-1.853-3.103-4.063-4.054-6.639
		c-0.954-2.571-1.429-5.401-1.429-8.491c0-2.982,0.489-5.763,1.468-8.336c0.978-2.572,2.365-4.798,4.168-6.677
		c1.8-1.878,3.947-3.358,6.446-4.438c2.495-1.082,5.26-1.622,8.296-1.622c3.398,0,6.356,0.656,8.876,1.968
		c2.521,1.312,4.597,3.077,6.218,5.288c1.618,2.213,2.79,4.736,3.512,7.565c0.72,2.83,0.977,5.789,0.771,8.877h-28.793
		C413.282,41.376,414.182,43.947,415.828,45.544 M428.217,24.547c-1.311-1.44-3.306-2.161-5.981-2.161
		c-1.749,0-3.203,0.296-4.359,0.887c-1.158,0.593-2.086,1.326-2.779,2.2c-0.695,0.876-1.186,1.803-1.469,2.779
		c-0.282,0.978-0.449,1.854-0.5,2.626h17.831C430.443,28.098,429.528,25.988,428.217,24.547"/>
	<path fill="#FFA35F" d="M457.664,15.207v5.559h0.229c1.391-2.315,3.189-4.002,5.402-5.058c2.213-1.054,4.478-1.582,6.794-1.582
		c2.932,0,5.338,0.399,7.215,1.197c1.88,0.799,3.358,1.904,4.44,3.319c1.081,1.415,1.84,3.139,2.277,5.171
		c0.436,2.034,0.656,4.285,0.656,6.755v24.548h-10.963V32.574c0-3.293-0.515-5.75-1.545-7.371s-2.854-2.433-5.479-2.433
		c-2.984,0-5.146,0.889-6.482,2.663c-1.337,1.775-2.007,4.695-2.007,8.762v20.92H447.24V15.207H457.664z"/>
	<path fill="#FFA35F" d="M503.447,45.544c1.646,1.595,4.014,2.394,7.103,2.394c2.211,0,4.114-0.556,5.71-1.661
		c1.597-1.105,2.575-2.276,2.935-3.512h9.649c-1.545,4.785-3.911,8.208-7.104,10.268c-3.19,2.059-7.051,3.087-11.578,3.087
		c-3.138,0-5.969-0.502-8.491-1.507c-2.521-1.001-4.658-2.431-6.407-4.283s-3.102-4.063-4.052-6.639
		c-0.953-2.571-1.429-5.401-1.429-8.491c0-2.982,0.489-5.763,1.469-8.336c0.978-2.572,2.365-4.798,4.168-6.677
		c1.8-1.878,3.948-3.358,6.445-4.438c2.496-1.082,5.261-1.622,8.297-1.622c3.396,0,6.354,0.656,8.877,1.968
		c2.522,1.312,4.595,3.077,6.216,5.288c1.619,2.213,2.79,4.736,3.513,7.565c0.72,2.83,0.977,5.789,0.771,8.877h-28.795
		C500.9,41.376,501.801,43.947,503.447,45.544 M515.836,24.547c-1.311-1.44-3.306-2.161-5.98-2.161
		c-1.749,0-3.204,0.296-4.362,0.887c-1.157,0.593-2.084,1.326-2.777,2.2c-0.696,0.876-1.187,1.803-1.469,2.779
		c-0.283,0.978-0.45,1.854-0.502,2.626h17.833C518.062,28.098,517.146,25.988,515.836,24.547"/>
</g>
</svg>
