<?xml version="1.0" encoding="utf-8"?>
<!-- Generator: Adobe Illustrator 16.0.4, SVG Export Plug-In . SVG Version: 6.00 Build 0)  -->
<!DOCTYPE svg PUBLIC "-//W3C//DTD SVG 1.0//EN" "http://www.w3.org/TR/2001/REC-SVG-20010904/DTD/svg10.dtd">
<svg version="1.0" id="Layer_1" xmlns="http://www.w3.org/2000/svg" xmlns:xlink="http://www.w3.org/1999/xlink" x="0px" y="0px"
	 width="1442px" height="199px" viewBox="285.696 0 1442 199" enable-background="new 285.696 0 1442 199" xml:space="preserve">
<g>
	<polyline fill="none" points="468.684,103.115 468.684,167.328 311.358,167.328 311.358,10.001 376.25,10.001 	"/>
	<path fill="#8AC4FF" d="M468.684,177.328H311.358c-5.523,0-10-4.477-10-10V10.001c0-5.523,4.477-10,10-10h64.892
		c5.523,0,10,4.477,10,10s-4.477,10-10,10h-54.892v137.326h137.326v-54.213c0-5.523,4.479-10,10-10c5.523,0,10,4.477,10,10v64.213
		C478.684,172.852,474.207,177.328,468.684,177.328z"/>
</g>
<g>
	<g>
		<line fill="none" x1="384.452" y1="94.334" x2="468.786" y2="10.001"/>
		<path fill="#8AC4FF" d="M384.452,104.334c-2.56,0-5.118-0.977-7.071-2.93c-3.905-3.904-3.905-10.236,0-14.141L461.715,2.93
			c3.905-3.905,10.237-3.905,14.144,0c3.903,3.905,3.903,10.237,0,14.142l-84.334,84.333
			C389.571,103.357,387.011,104.334,384.452,104.334z"/>
	</g>
	<g>
		<path fill="#8AC4FF" d="M468.786,77.25c-5.523,0-10-4.477-10-10V20.001h-47.247c-5.523,0-10-4.477-10-10s4.477-10,10-10h57.247
			c5.521,0,10,4.477,10,10V67.25C478.786,72.772,474.309,77.25,468.786,77.25z"/>
	</g>
</g>
<g>
	<path fill="#8AC4FF" d="M524.123,35.832V4.976h136.749v30.856h-50.024V171.88h-36.698V35.832H524.123z"/>
	<path fill="#8AC4FF" d="M716.738,4.976v64.05h67.556V4.976h36.7V171.88h-36.7V99.881h-67.556v71.998h-36.7V4.976H716.738z"/>
	<path fill="#8AC4FF" d="M936.471,4.976l62.414,166.904h-38.104l-12.623-37.167h-62.414l-13.091,37.167h-36.936L898.837,4.976
		H936.471z M938.575,107.361l-21.038-61.244h-0.468l-21.74,61.244H938.575z"/>
	<path fill="#8AC4FF" d="M978.782,35.832V4.976h136.749v30.856h-50.023V171.88h-36.699V35.832H978.782z"/>
	<path fill="#8AC4FF" d="M1162.749,130.738c2.022,3.896,4.712,7.053,8.065,9.467c3.349,2.418,7.281,4.208,11.805,5.376
		c4.519,1.169,9.193,1.753,14.025,1.753c3.271,0,6.778-0.27,10.52-0.818c3.74-0.543,7.247-1.596,10.52-3.156
		c3.272-1.555,5.997-3.697,8.184-6.428c2.181-2.725,3.271-6.195,3.271-10.4c0-4.52-1.441-8.184-4.323-10.986
		c-2.887-2.805-6.662-5.145-11.339-7.014c-4.675-1.869-9.976-3.508-15.896-4.908c-5.924-1.4-11.922-2.958-17.999-4.675
		c-6.234-1.556-12.312-3.466-18.232-5.728c-5.924-2.257-11.221-5.179-15.896-8.766c-4.675-3.583-8.456-8.065-11.337-13.441
		c-2.885-5.376-4.325-11.881-4.325-19.519c0-8.569,1.83-16.013,5.493-22.324c3.66-6.312,8.452-11.571,14.376-15.779
		c5.921-4.208,12.623-7.323,20.104-9.35c7.479-2.021,14.96-3.037,22.44-3.037c8.727,0,17.102,0.975,25.129,2.922
		c8.024,1.951,15.154,5.106,21.39,9.467c6.23,4.365,11.182,9.935,14.846,16.714c3.659,6.779,5.491,15.001,5.491,24.662h-35.529
		c-0.314-4.986-1.366-9.117-3.156-12.389c-1.793-3.273-4.171-5.844-7.13-7.714c-2.962-1.87-6.354-3.192-10.169-3.974
		c-3.82-0.778-7.988-1.169-12.506-1.169c-2.963,0-5.924,0.314-8.885,0.935c-2.962,0.625-5.648,1.717-8.063,3.272
		c-2.418,1.56-4.405,3.507-5.961,5.844c-1.562,2.337-2.338,5.3-2.338,8.883c0,3.272,0.62,5.924,1.87,7.948
		c1.244,2.027,3.698,3.897,7.361,5.61c3.659,1.717,8.728,3.43,15.193,5.143c6.465,1.717,14.92,3.897,25.363,6.545
		c3.114,0.625,7.438,1.753,12.974,3.389c5.53,1.637,11.022,4.248,16.479,7.831c5.452,3.587,10.17,8.379,14.143,14.376
		c3.975,6.001,5.961,13.678,5.961,23.025c0,7.638-1.482,14.727-4.439,21.271c-2.963,6.545-7.362,12.194-13.207,16.946
		c-5.845,4.756-13.092,8.456-21.739,11.104c-8.648,2.647-18.664,3.976-30.038,3.976c-9.197,0-18.116-1.133-26.766-3.392
		c-8.648-2.256-16.285-5.805-22.907-10.637c-6.626-4.828-11.886-10.986-15.779-18.467c-3.896-7.479-5.767-16.361-5.609-26.646h35.53
		C1159.71,122.088,1160.722,126.844,1162.749,130.738z"/>
	<path fill="#8AC4FF" d="M1323.105,4.976v64.05h67.556V4.976h36.7V171.88h-36.7V99.881h-67.556v71.998h-36.7V4.976H1323.105z"/>
	<path fill="#8AC4FF" d="M1494.217,135.88v35.999h-36.699V135.88H1494.217z"/>
	<path fill="#8AC4FF" d="M1561.305,4.976V171.88h-36.698V4.976H1561.305z"/>
	<path fill="#8AC4FF" d="M1580.472,35.832V4.976h136.749v30.856h-50.022V171.88h-36.7V35.832H1580.472z"/>
</g>
</svg>
