<?xml version="1.0" standalone="no"?>
<!DOCTYPE svg PUBLIC "-//W3C//DTD SVG 1.1//EN" "http://www.w3.org/Graphics/SVG/1.1/DTD/svg11.dtd" >
<svg xmlns="http://www.w3.org/2000/svg" width="100%" height="100%">
<metadata>
Created by FontXChange 20100429 at Mon Jan 21 13:17:55 2013
 By jpg
 Copyright 1987, 1991, 1992, 1993, 2002 Fundicion Tipografica Neufville S. A.
 This record material and the data recorded thereon is the property of
 Fundicion Tipografica Neufville S. A. and Adobe Systems Incorporated,
 or its licensors, and may not be reproduced, used, displayed, modified,
 disclosed or transferred in any manner without the express written
 approval of Fundicion Tipografica Neufville S. A. and Adobe Systems
 Incorporated. 
</metadata>
<defs>
<font id="FuturaStd-CondensedExtraBd" horiz-adv-x="604" >
  <font-face 
    font-family="Futura Std"
    font-weight="750"
    font-stretch="condensed"
    units-per-em="1000"
    panose-1="2 11 8 6 2 2 4 3 2 4"
    ascent="825"
    descent="-175"
    x-height="528"
    cap-height="754"
    bbox="-191 -247 1123 999"
    underline-thickness="50"
    underline-position="-50"
    stemh="157"
    stemv="196"
    unicode-range="U+0020-FB02"
  />
<missing-glyph horiz-adv-x="500" 
d="M0 0v700h500v-700h-500zM250 395l170 255h-340zM280 350l170 -255v510zM80 50h340l-170 255zM50 605v-510l170 255z" />
    <glyph glyph-name="fi" unicode="fi" horiz-adv-x="685" 
d="M283 0h-196v371h-57v157h57v61c0 139 57 219 171 219c32 0 64 -5 95 -14v-181c-12 9 -25 18 -40 18c-32 0 -30 -29 -30 -78v-25h70v-157h-70v-371zM632 0h-196v528h196v-528zM535 579c-63 0 -115 51 -115 115c0 62 51 114 113 114c63 0 116 -49 116 -113
c0 -63 -50 -116 -114 -116z" />
    <glyph glyph-name="fl" unicode="fl" horiz-adv-x="685" 
d="M632 0h-196v797h196v-797zM283 0h-196v371h-57v157h57v61c0 139 57 219 171 219c32 0 64 -5 95 -14v-181c-12 9 -25 18 -40 18c-28 0 -30 -29 -30 -78v-25h70v-157h-70v-371z" />
    <glyph glyph-name=".notdef" horiz-adv-x="500" 
d="M0 0v700h500v-700h-500zM250 395l170 255h-340zM280 350l170 -255v510zM80 50h340l-170 255zM50 605v-510l170 255z" />
    <glyph glyph-name="space" unicode=" " horiz-adv-x="302" 
 />
    <glyph glyph-name="exclam" unicode="!" horiz-adv-x="304" 
d="M150 -11c-64 0 -114 52 -114 116c0 61 51 113 110 113c65 0 119 -49 119 -116c0 -63 -52 -113 -115 -113zM254 270h-199v527h199v-527z" />
    <glyph glyph-name="quotedbl" unicode="&#x22;" horiz-adv-x="550" 
d="M471 392h-139l-30 362h199zM218 392h-139l-30 362h199z" />
    <glyph glyph-name="numbersign" unicode="#" 
d="M517 336v-114h-101l-30 -222h-87l29 222h-85l-30 -222h-90l30 222h-92v114h108l14 95h-94v114h108l28 205h87l-27 -205h86l27 205h90l-28 -205h83v-114h-99l-12 -95h85zM356 431h-86l-12 -95h86z" />
    <glyph glyph-name="dollar" unicode="$" 
d="M269 761v103h91v-97c43 -4 83 -17 121 -40v-226c-30 39 -71 82 -124 82c-25 0 -50 -16 -50 -45c0 -36 45 -63 68 -81c77 -61 124 -110 124 -214s-50 -198 -145 -238v-111h-92v93c-54 1 -108 10 -157 33v236c27 -44 79 -85 131 -85c31 0 59 15 59 53c0 35 -34 58 -59 77
c-74 60 -131 113 -131 215c0 113 58 208 164 245z" />
    <glyph glyph-name="percent" unicode="%" horiz-adv-x="795" 
d="M198 767c108 0 164 -86 164 -185s-56 -185 -164 -185s-164 86 -164 185s56 185 164 185zM198 656c-30 0 -31 -54 -31 -74c0 -19 1 -74 31 -74s31 55 31 74c0 20 -1 74 -31 74zM597 357c108 0 164 -86 164 -185s-56 -185 -164 -185s-164 86 -164 185s56 185 164 185z
M597 246c-30 0 -31 -54 -31 -74c0 -19 1 -74 31 -74s31 55 31 74c0 20 -1 74 -31 74zM169 -26l-79 56l534 755l81 -57z" />
    <glyph glyph-name="ampersand" unicode="&#x26;" horiz-adv-x="732" 
d="M347 630c-42 0 -58 -33 -58 -56c0 -27 10 -54 50 -99c42 40 65 67 65 98c0 25 -20 57 -57 57zM492 0l-29 41c-55 -34 -115 -54 -175 -54c-128 0 -237 103 -237 233c0 89 54 158 130 200c-34 42 -59 95 -59 150c0 116 103 197 213 197c127 0 227 -83 227 -203
c0 -84 -61 -154 -135 -196l74 -97l76 86l104 -138l-84 -78l110 -141h-215zM360 175l-81 115c-31 -17 -52 -40 -52 -67c0 -57 36 -76 76 -76c18 0 37 13 57 28z" />
    <glyph glyph-name="quoteright" unicode="&#x2019;" horiz-adv-x="368" 
d="M330 754l-132 -362h-160l92 362h200z" />
    <glyph glyph-name="parenleft" unicode="(" horiz-adv-x="320" 
d="M38 318c0 158 43 313 121 449l133 -62c-61 -116 -94 -262 -94 -388c0 -124 33 -271 94 -386l-133 -61c-78 136 -121 290 -121 448z" />
    <glyph glyph-name="parenright" unicode=")" horiz-adv-x="320" 
d="M161 767c78 -136 121 -291 121 -449s-43 -312 -121 -448l-133 61c61 115 94 262 94 386c0 126 -33 272 -94 388z" />
    <glyph glyph-name="asterisk" unicode="*" horiz-adv-x="422" 
d="M262 425l-58 81l-62 -74l-71 56l62 77l-95 36l33 85l90 -34v102h92v-109l104 35l27 -88l-102 -34l56 -82z" />
    <glyph glyph-name="plus" unicode="+" horiz-adv-x="500" 
d="M193 313v185h115v-185h167v-115h-167v-192h-115v192h-167v115h167z" />
    <glyph glyph-name="comma" unicode="," horiz-adv-x="302" 
d="M285 203l-132 -363h-160l92 363h200z" />
    <glyph glyph-name="hyphen" unicode="-" horiz-adv-x="321" 
d="M283 239h-245v162h245v-162z" />
    <glyph glyph-name="period" unicode="." horiz-adv-x="302" 
d="M151 -11c-64 0 -114 52 -114 116c0 61 51 113 110 113c65 0 119 -49 119 -116c0 -63 -52 -113 -115 -113z" />
    <glyph glyph-name="slash" unicode="/" horiz-adv-x="661" 
d="M204 -120h-126l379 917h126z" />
    <glyph glyph-name="zero" unicode="0" 
d="M302 767c210 0 267 -223 267 -390s-57 -390 -267 -390s-267 223 -267 390s57 390 267 390zM302 593c-62 0 -66 -131 -66 -216s4 -216 66 -216s66 131 66 216s-4 216 -66 216z" />
    <glyph glyph-name="one" unicode="1" 
d="M432 0h-204v580h-81v174h285v-754z" />
    <glyph glyph-name="two" unicode="2" 
d="M74 479l-1 27c0 151 102 261 255 261c143 0 238 -108 238 -247c0 -142 -99 -261 -197 -351l2 -2c34 2 68 7 102 7h84v-174h-520l199 265c56 75 131 170 131 267c0 29 -12 67 -47 67c-44 0 -49 -61 -49 -92v-28h-197z" />
    <glyph glyph-name="three" unicode="3" 
d="M248 222l1 -13c3 -41 25 -58 49 -58c40 0 56 32 56 68c0 62 -45 83 -90 83h-28v159h25c54 0 83 18 83 77c0 25 -9 65 -42 65c-42 0 -41 -51 -41 -58v-5l-197 -1c9 138 107 228 246 228c126 0 233 -91 233 -221c0 -65 -33 -125 -91 -156c69 -36 102 -101 102 -178
c0 -145 -125 -225 -259 -225c-140 0 -251 90 -246 235h199z" />
    <glyph glyph-name="four" unicode="4" 
d="M312 315v129c0 32 5 64 8 96l-2 2l-121 -227h115zM305 153h-274v159l227 442h250v-439h65v-162h-65v-153h-203v153z" />
    <glyph glyph-name="five" unicode="5" 
d="M54 46l24 178c46 -28 105 -54 160 -54c52 0 106 28 106 86c0 65 -63 85 -118 85c-48 0 -91 -9 -135 -27l58 440h376v-174h-215l-16 -88c10 1 19 2 29 2c127 0 226 -105 226 -231c0 -161 -126 -276 -285 -276c-71 0 -149 22 -210 59z" />
    <glyph glyph-name="six" unicode="6" 
d="M458 754l-158 -272l2 -2c22 14 42 21 70 21c121 0 185 -133 185 -239c0 -159 -101 -275 -263 -275c-160 0 -248 124 -248 274c0 118 75 268 130 373l63 120h219zM304 149c53 0 58 71 58 109c0 37 -10 96 -58 96c-49 0 -57 -62 -57 -99c0 -38 5 -106 57 -106z" />
    <glyph glyph-name="seven" unicode="7" 
d="M264 0h-219l279 580h-256v174h536z" />
    <glyph glyph-name="eight" unicode="8" 
d="M302 148c40 0 51 46 51 89c0 30 -13 76 -51 76s-51 -46 -51 -76c0 -43 11 -89 51 -89zM302 606c-35 0 -44 -37 -44 -63c0 -28 8 -69 44 -69s44 41 44 69c0 26 -9 63 -44 63zM302 -13c-132 0 -257 87 -257 224c0 88 45 153 127 181v2c-76 22 -113 80 -113 159
c0 132 113 214 243 214s243 -82 243 -214c0 -79 -37 -137 -113 -159v-2c82 -28 127 -93 127 -181c0 -137 -125 -224 -257 -224z" />
    <glyph glyph-name="nine" unicode="9" 
d="M146 0l158 272l-2 2c-22 -13 -42 -21 -70 -21c-122 0 -186 133 -186 239c0 159 101 275 264 275c160 0 247 -123 247 -274c0 -118 -75 -268 -129 -372l-64 -121h-218zM299 606c-52 0 -57 -72 -57 -110c0 -36 10 -96 58 -96s55 62 55 99c0 39 -4 107 -56 107z" />
    <glyph glyph-name="colon" unicode=":" horiz-adv-x="302" 
d="M151 290c-64 0 -114 52 -114 116c0 61 51 113 110 113c65 0 119 -49 119 -116c0 -63 -52 -113 -115 -113zM151 -11c-64 0 -114 52 -114 116c0 61 51 113 110 113c65 0 119 -49 119 -116c0 -63 -52 -113 -115 -113z" />
    <glyph glyph-name="semicolon" unicode=";" horiz-adv-x="302" 
d="M285 203l-132 -363h-160l92 363h200zM192 290c-65 0 -115 53 -115 117c0 60 51 112 111 112c65 0 118 -49 118 -115c0 -64 -51 -114 -114 -114z" />
    <glyph glyph-name="less" unicode="&#x3c;" horiz-adv-x="500" 
d="M145 256l329 -162v-111l-449 225v99l449 227v-111z" />
    <glyph glyph-name="equal" unicode="=" horiz-adv-x="500" 
d="M475 411v-115h-449v115h449zM475 216v-115h-449v115h449z" />
    <glyph glyph-name="greater" unicode="&#x3e;" horiz-adv-x="500" 
d="M26 94l329 162l-329 167v111l449 -227v-99l-449 -225v111z" />
    <glyph glyph-name="question" unicode="?" horiz-adv-x="545" 
d="M363 273h-194v185l35 -1c68 0 107 23 107 97c0 28 -5 85 -44 85c-40 0 -43 -56 -43 -86h-196v15c-3 142 98 239 237 239c144 0 247 -102 247 -246c0 -95 -45 -187 -149 -210v-78zM269 -11c-64 0 -114 52 -114 116c0 61 51 113 110 113c65 0 119 -49 119 -116
c0 -63 -52 -113 -115 -113z" />
    <glyph glyph-name="at" unicode="@" horiz-adv-x="830" 
d="M503 372c5 60 -19 113 -82 113c-62 0 -113 -66 -113 -138c0 -57 31 -96 81 -96c67 0 109 65 114 121zM537 517l11 53h98l-53 -306c-3 -16 3 -22 13 -22c37 0 110 84 110 183c0 167 -116 270 -285 270c-185 0 -316 -133 -316 -315c0 -193 146 -321 333 -321
c79 0 148 41 205 93h96c-74 -101 -181 -165 -309 -165c-223 0 -403 168 -403 393c0 221 176 387 397 387c178 0 360 -123 360 -314c0 -180 -142 -294 -260 -294c-25 0 -50 24 -42 58l-2 2c-43 -40 -82 -60 -123 -60c-106 0 -169 73 -169 178c0 125 83 240 212 240
c53 0 97 -17 127 -60z" />
    <glyph glyph-name="A" unicode="A" horiz-adv-x="605" 
d="M598 0h-211l-15 97h-137l-17 -97h-210l181 754h249zM262 257h86l-22 175c-6 47 -10 95 -15 142h-2c-6 -47 -11 -95 -19 -142z" />
    <glyph glyph-name="B" unicode="B" horiz-adv-x="610" 
d="M60 0v754h240c120 0 260 -52 260 -215c0 -85 -55 -151 -141 -151v-2c100 -8 153 -70 153 -171c0 -93 -56 -215 -238 -215h-274zM264 163h17c45 0 85 22 85 73s-39 72 -86 72h-16v-145zM264 461h12c42 0 81 17 81 66c0 45 -31 64 -73 64h-20v-130z" />
    <glyph glyph-name="C" unicode="C" horiz-adv-x="534" 
d="M473 749v-216c-29 28 -53 44 -95 44c-106 0 -132 -117 -132 -200c0 -88 26 -200 128 -200c46 0 75 18 108 48l-12 -211c-41 -18 -78 -27 -123 -27c-167 0 -309 127 -309 385c0 338 232 395 331 395c36 0 71 -5 104 -18z" />
    <glyph glyph-name="D" unicode="D" horiz-adv-x="619" 
d="M60 0v754h164c232 0 357 -146 357 -374c0 -348 -219 -380 -343 -380h-178zM264 566v-384c93 1 109 117 109 188c0 82 -16 196 -109 196z" />
    <glyph glyph-name="E" unicode="E" horiz-adv-x="499" 
d="M60 0v754h379v-178h-175v-105h157v-178h-157v-115h175v-178h-379z" />
    <glyph glyph-name="F" unicode="F" horiz-adv-x="481" 
d="M264 0h-204v754h360v-178h-156v-109h146v-178h-146v-289z" />
    <glyph glyph-name="G" unicode="G" horiz-adv-x="634" 
d="M319 436h284l1 -32c0 -186 -36 -417 -272 -417c-222 0 -294 195 -294 386c0 187 71 394 292 394c122 0 213 -77 257 -186l-197 -73c-2 30 -22 77 -58 77c-94 0 -86 -173 -86 -230c3 -54 -1 -186 78 -186c54 0 71 64 70 108h-75v159z" />
    <glyph glyph-name="H" unicode="H" horiz-adv-x="626" 
d="M565 0h-204v306h-97v-306h-204v754h204v-270h97v270h204v-754z" />
    <glyph glyph-name="I" unicode="I" horiz-adv-x="324" 
d="M264 0h-204v754h204v-754z" />
    <glyph glyph-name="J" unicode="J" horiz-adv-x="430" 
d="M24 11v211c19 -26 49 -44 83 -44c57 0 59 61 59 105v471h204v-511c0 -101 -13 -256 -211 -256c-47 0 -91 9 -135 24z" />
    <glyph glyph-name="K" unicode="K" horiz-adv-x="634" 
d="M377 754h215l-163 -364l182 -390h-219l-127 346h-1v-346h-204v754h204v-321h1z" />
    <glyph glyph-name="L" unicode="L" horiz-adv-x="440" 
d="M417 0h-357v754h204v-576h153v-178z" />
    <glyph glyph-name="M" unicode="M" horiz-adv-x="825" 
d="M810 0h-212l-19 474h-2c-9 -55 -16 -110 -26 -165l-58 -309h-166l-71 474h-2c-1 -56 0 -111 -3 -167l-17 -307h-219l88 754h254l58 -401h2c6 47 11 93 20 140l49 261h251z" />
    <glyph glyph-name="N" unicode="N" horiz-adv-x="652" 
d="M60 0v754h194l163 -454l2 2c-8 87 -23 173 -23 260v192h196v-754h-196l-152 435l-2 -2c5 -71 14 -141 14 -212v-221h-196z" />
    <glyph glyph-name="O" unicode="O" horiz-adv-x="651" 
d="M37 377c0 184 81 390 288 390s288 -206 288 -390s-81 -390 -288 -390s-288 206 -288 390zM245 377c0 -47 3 -200 80 -200s80 153 80 200s-3 200 -80 200s-80 -153 -80 -200z" />
    <glyph glyph-name="P" unicode="P" horiz-adv-x="584" 
d="M264 0h-204v754h186c178 0 315 -58 315 -256c0 -196 -120 -256 -297 -251v-247zM355 501c0 48 -26 91 -76 91l-15 -1v-174c56 -3 91 28 91 84z" />
    <glyph glyph-name="Q" unicode="Q" horiz-adv-x="651" 
d="M618 -15l-164 -90l-70 101c-9 -3 -19 -5 -29 -7c-10 -1 -20 -2 -30 -2c-207 0 -288 206 -288 390s81 390 288 390s288 -206 288 -390c-2 -107 -24 -212 -84 -288zM325 577c-77 0 -80 -153 -80 -200s3 -200 80 -200s80 153 80 200s-3 200 -80 200z" />
    <glyph glyph-name="R" unicode="R" 
d="M597 0h-221l-113 314l-2 -2c1 -37 3 -74 3 -111v-201h-204v754h197c177 0 305 -52 305 -251c0 -83 -36 -157 -117 -189zM264 406l13 -1c54 0 83 47 83 96c0 66 -40 94 -96 91v-186z" />
    <glyph glyph-name="S" unicode="S" horiz-adv-x="472" 
d="M41 18v236c28 -42 77 -84 129 -84c28 0 60 17 60 50c0 18 -6 31 -16 42c-9 11 -21 20 -34 29c-40 31 -75 60 -101 96c-25 35 -41 77 -41 132c0 88 56 248 230 248c49 0 102 -15 145 -38v-229c-24 38 -73 81 -120 81c-24 0 -53 -17 -53 -46c0 -16 9 -30 20 -42
s26 -22 37 -31c43 -30 77 -58 100 -92c24 -34 37 -74 37 -131c0 -140 -98 -252 -240 -252c-52 0 -105 11 -153 31z" />
    <glyph glyph-name="T" unicode="T" horiz-adv-x="478" 
d="M339 0h-204v570h-112v184h433v-184h-117v-570z" />
    <glyph glyph-name="U" unicode="U" horiz-adv-x="622" 
d="M363 754h204v-493c0 -91 -20 -274 -256 -274s-256 183 -256 274v493h204v-474c0 -20 -1 -46 5 -66c6 -21 19 -37 47 -37c29 0 42 16 47 36c6 21 5 47 5 66v475z" />
    <glyph glyph-name="V" unicode="V" horiz-adv-x="586" 
d="M381 0h-208l-173 754h214l48 -310c9 -61 14 -121 22 -182h2c9 61 12 121 23 182l56 310h221z" />
    <glyph glyph-name="W" unicode="W" horiz-adv-x="852" 
d="M700 0h-197l-55 306c-11 61 -14 114 -21 166h-2c-5 -52 -7 -105 -16 -166l-43 -306h-198l-168 754h201l45 -304c8 -56 14 -111 21 -167h2c6 56 7 111 17 167l53 304h175l52 -304c9 -55 15 -109 23 -164h2c6 47 8 105 17 164l45 304h199z" />
    <glyph glyph-name="X" unicode="X" horiz-adv-x="615" 
d="M600 0h-226l-42 117l-24 85h-2l-24 -85l-45 -117h-222l183 391l-173 363h227l33 -91c10 -28 15 -58 23 -87h2c7 29 12 58 21 87l27 91h229l-172 -363z" />
    <glyph glyph-name="Y" unicode="Y" horiz-adv-x="581" 
d="M398 0h-204v320l-186 434h212l70 -233h2l71 233h211l-176 -434v-320z" />
    <glyph glyph-name="Z" unicode="Z" horiz-adv-x="590" 
d="M542 0h-519l206 479c14 33 37 69 58 103c-40 -2 -85 -6 -129 -6h-90v178h499l-223 -516c-10 -24 -22 -46 -32 -69c37 3 75 9 114 9h116v-178z" />
    <glyph glyph-name="bracketleft" unicode="[" horiz-adv-x="300" 
d="M290 7v-124h-258v871h258v-125h-111v-622h111z" />
    <glyph glyph-name="backslash" unicode="\" horiz-adv-x="250" 
d="M377 -120h-126l-378 917h126z" />
    <glyph glyph-name="bracketright" unicode="]" horiz-adv-x="300" 
d="M268 -117h-258v124h111v622h-111v125h258v-871z" />
    <glyph glyph-name="asciicircum" unicode="^" horiz-adv-x="500" 
d="M117 330l-102 47l176 377h118l176 -377l-102 -47l-134 279z" />
    <glyph glyph-name="underscore" unicode="_" horiz-adv-x="500" 
d="M0 -75h500v-50h-500v50z" />
    <glyph glyph-name="quoteleft" unicode="&#x2018;" horiz-adv-x="368" 
d="M38 392l131 362h161l-92 -362h-200z" />
    <glyph glyph-name="a" unicode="a" horiz-adv-x="569" 
d="M272 151c25 0 37 22 42 48c6 27 6 57 6 72c0 14 1 40 -4 64c-5 23 -15 43 -38 43c-24 0 -35 -24 -41 -53c-5 -28 -5 -61 -5 -78c0 -15 1 -39 6 -60c5 -20 15 -36 34 -36zM516 528v-528h-196l9 87l-2 2c-25 -56 -71 -100 -135 -100c-136 0 -162 177 -162 280
c0 104 31 270 166 270c63 0 102 -42 127 -94l2 2l-8 81h199z" />
    <glyph glyph-name="b" unicode="b" horiz-adv-x="569" 
d="M289 157c45 0 48 81 48 110c0 33 -3 109 -52 109c-40 0 -43 -81 -43 -108c0 -31 1 -111 47 -111zM53 0v797h196v-271l-3 -72l2 -2c23 53 61 87 122 87c143 0 169 -171 169 -280c0 -73 -15 -270 -169 -270c-60 0 -93 34 -119 82l-2 -2l4 -69h-200z" />
    <glyph glyph-name="c" unicode="c" horiz-adv-x="366" 
d="M320 172v-179c-18 -1 -35 -4 -53 -4c-152 0 -237 136 -237 277c0 145 97 273 249 273c14 0 27 -1 41 -2v-171c-58 -3 -88 -40 -88 -96c0 -42 25 -98 75 -98h13z" />
    <glyph glyph-name="d" unicode="d" horiz-adv-x="569" 
d="M279 157c43 0 47 55 47 111c0 52 -7 108 -43 108c-41 0 -51 -51 -51 -109c0 -54 9 -110 47 -110zM316 0l4 69l-2 2c-26 -48 -59 -82 -120 -82c-138 0 -168 164 -168 270c0 109 26 280 168 280c61 0 100 -34 123 -87l2 2c-1 24 -3 48 -3 72v271h196v-797h-200z" />
    <glyph glyph-name="e" unicode="e" horiz-adv-x="544" 
d="M226 329h91c-1 29 -12 67 -47 67c-33 0 -45 -40 -44 -67zM315 179h192c-22 -122 -115 -190 -233 -190c-163 0 -244 110 -244 265c0 151 87 285 249 285c81 0 140 -34 178 -86c51 -69 57 -147 57 -230h-288c0 -31 5 -81 46 -81c22 0 39 16 43 37z" />
    <glyph glyph-name="f" unicode="f" horiz-adv-x="383" 
d="M283 0h-196v371h-57v157h57v61c0 139 57 219 171 219c32 0 64 -5 95 -14v-181c-12 9 -25 18 -40 18c-29 0 -30 -29 -30 -78v-25h70v-157h-70v-371z" />
    <glyph glyph-name="g" unicode="g" horiz-adv-x="568" 
d="M278 154c40 0 45 61 45 112c0 55 -4 114 -45 114c-39 0 -46 -56 -46 -111c0 -48 8 -115 46 -115zM515 528v-531c0 -163 -76 -244 -242 -244c-129 0 -221 55 -235 191h200c0 -23 16 -43 40 -43c36 0 41 34 41 90v70h-2c-19 -38 -67 -68 -114 -68c-134 0 -173 164 -173 269
c0 100 38 277 169 277c57 0 90 -36 118 -80l2 2l-4 67h200z" />
    <glyph glyph-name="h" unicode="h" horiz-adv-x="575" 
d="M522 0h-196v267c0 45 -2 77 -36 77c-39 0 -41 -41 -41 -90v-254h-196v797h196l-1 -287c0 -27 -3 -53 -4 -80l2 -2c19 57 70 111 135 111c113 0 141 -96 141 -191v-348z" />
    <glyph glyph-name="i" unicode="i" horiz-adv-x="302" 
d="M249 0h-196v528h196v-528zM152 579c-63 0 -115 51 -115 115c0 62 51 114 113 114c63 0 116 -49 116 -113c0 -63 -50 -116 -114 -116z" />
    <glyph glyph-name="j" unicode="j" horiz-adv-x="302" 
d="M249 -236h-196v764h196v-764zM154 579c-64 0 -116 51 -116 115c0 62 51 114 114 114c62 0 115 -49 115 -113c0 -63 -49 -116 -113 -116z" />
    <glyph glyph-name="k" unicode="k" horiz-adv-x="576" 
d="M343 0l-92 265h-2v-265h-196v797h196v-507h2l92 238h212l-130 -242l143 -286h-225z" />
    <glyph glyph-name="l" unicode="l" horiz-adv-x="302" 
d="M249 0h-196v797h196v-797z" />
    <glyph glyph-name="m" unicode="m" horiz-adv-x="842" 
d="M251 528l-3 -86l2 -2c21 55 67 99 130 99c71 0 116 -46 138 -109h2c17 59 60 109 128 109c103 0 141 -73 141 -189v-350h-196v286c0 21 -3 63 -32 63c-25 0 -33 -15 -38 -35c-5 -19 -4 -42 -4 -59v-255h-196v292c0 24 -5 54 -30 54c-24 0 -35 -16 -40 -36s-4 -43 -4 -59
v-251h-196v528h198z" />
    <glyph glyph-name="n" unicode="n" horiz-adv-x="575" 
d="M249 528l-5 -98l2 -2c19 57 70 111 135 111c113 0 141 -96 141 -191v-348h-196v267c0 45 -3 77 -36 77c-38 0 -41 -36 -41 -90v-254h-196v528h196z" />
    <glyph glyph-name="o" unicode="o" horiz-adv-x="552" 
d="M276 539c169 0 246 -127 246 -275s-77 -275 -246 -275s-246 127 -246 275s77 275 246 275zM276 392c-47 0 -54 -74 -54 -128s7 -128 54 -128s54 74 54 128s-7 128 -54 128z" />
    <glyph glyph-name="p" unicode="p" horiz-adv-x="567" 
d="M287 154c44 0 48 81 48 119s-8 105 -47 105c-38 0 -45 -64 -45 -109c0 -50 6 -115 44 -115zM249 528l-5 -73l2 -2c22 51 60 86 119 86c134 0 172 -169 172 -275c0 -104 -31 -275 -166 -275c-60 0 -97 34 -125 83l-2 -2c2 -33 5 -65 5 -98v-208h-196v764h196z" />
    <glyph glyph-name="q" unicode="q" horiz-adv-x="567" 
d="M281 154c37 0 43 68 43 115c0 48 -7 109 -45 109c-37 0 -47 -57 -47 -105c0 -53 8 -119 49 -119zM323 455l-5 73h196v-764h-196v208c0 33 3 65 5 98l-2 2c-28 -49 -65 -83 -125 -83c-135 0 -168 171 -166 275c0 106 38 275 172 275c59 0 97 -35 119 -86z" />
    <glyph glyph-name="r" unicode="r" horiz-adv-x="424" 
d="M386 539v-219c-18 9 -41 19 -55 19c-73 0 -82 -70 -82 -125v-214h-196v528h197l-11 -101l2 -2c22 65 72 117 145 114z" />
    <glyph glyph-name="s" unicode="s" horiz-adv-x="461" 
d="M30 44l72 146c23 -25 62 -55 98 -55c17 0 38 8 38 27s-17 30 -51 42c-77 27 -138 67 -138 157c0 109 89 178 212 178c53 0 115 -17 161 -43l-67 -143c-23 21 -49 47 -82 47c-14 0 -29 -9 -29 -26c0 -27 38 -41 59 -49c71 -27 128 -65 128 -151
c0 -119 -102 -185 -211 -185c-72 0 -128 21 -190 55z" />
    <glyph glyph-name="t" unicode="t" horiz-adv-x="393" 
d="M294 0h-196v371h-56v157h56v155h196v-155h65v-157h-65v-371z" />
    <glyph glyph-name="u" unicode="u" horiz-adv-x="565" 
d="M48 528h196v-284c0 -63 4 -91 38 -91c35 0 39 27 39 91v284h196v-311c0 -156 -91 -228 -235 -228c-152 0 -234 84 -234 228v311z" />
    <glyph glyph-name="v" unicode="v" horiz-adv-x="534" 
d="M366 0h-205l-146 528h198l38 -222c6 -37 9 -78 14 -115h2l15 115l44 222h193z" />
    <glyph glyph-name="w" unicode="w" horiz-adv-x="802" 
d="M633 0h-194l-39 316h-2l-59 -316h-192l-132 528h193l29 -192c6 -42 13 -84 17 -126h2c9 42 13 84 22 126l40 192h167l27 -192c6 -42 12 -84 16 -126h2c9 42 13 84 22 126l39 192h196z" />
    <glyph glyph-name="x" unicode="x" horiz-adv-x="591" 
d="M568 0h-227l-44 125c-14 -33 -25 -65 -41 -98l-14 -27h-219l160 272l-152 256h224l37 -114h2c5 14 8 28 13 41l29 73h217l-156 -252z" />
    <glyph glyph-name="y" unicode="y" horiz-adv-x="546" 
d="M285 -236h-203l90 258l-157 506h197l38 -182l23 -118h2c7 39 10 79 19 118l41 182h196z" />
    <glyph glyph-name="z" unicode="z" horiz-adv-x="499" 
d="M445 0h-422l179 374c-25 -1 -51 -3 -76 -3h-75v157h426l-178 -370c22 1 43 2 65 2h81v-160z" />
    <glyph glyph-name="braceleft" unicode="{" horiz-adv-x="300" 
d="M298 -117h-110c-98 0 -112 73 -112 153v122c0 60 -17 95 -75 110v92c58 9 75 60 75 113v145c0 100 46 136 118 136h104v-102c-62 0 -75 -48 -75 -106v-100c0 -72 -14 -114 -82 -130v-2c71 -10 82 -73 82 -139v-97c0 -52 13 -103 75 -103v-92z" />
    <glyph glyph-name="bar" unicode="|" horiz-adv-x="250" 
d="M68 786h115v-1000h-115v1000z" />
    <glyph glyph-name="braceright" unicode="}" horiz-adv-x="300" 
d="M112 -117h-110v92c62 0 75 51 75 103v97c0 66 11 129 82 139v2c-68 16 -82 58 -82 130v100c0 58 -13 106 -75 106v102h104c72 0 118 -36 118 -136v-145c0 -53 17 -104 75 -113v-92c-58 -15 -75 -50 -75 -110v-122c0 -80 -14 -153 -112 -153z" />
    <glyph glyph-name="asciitilde" unicode="~" horiz-adv-x="500" 
d="M418 359l57 -73c-31 -54 -63 -117 -129 -117c-60 0 -154 66 -186 66c-31 0 -49 -18 -77 -82l-57 74c28 57 68 124 133 124s145 -66 187 -66c27 0 42 19 72 74z" />
    <glyph glyph-name="exclamdown" unicode="&#xa1;" horiz-adv-x="304" 
d="M152 342c-64 0 -114 52 -114 116c0 61 51 113 110 113c65 0 119 -49 119 -116c0 -63 -52 -113 -115 -113zM46 291h199v-527h-199v527z" />
    <glyph glyph-name="cent" unicode="&#xa2;" 
d="M387 123v-102h-95v124c-94 49 -141 148 -141 251c0 99 45 208 141 251v89h95v-66c6 0 12 1 18 1c12 1 24 -1 36 -4v-167c-56 1 -87 -45 -87 -98c0 -43 26 -93 74 -93h13v-182c-18 -1 -36 -3 -54 -4z" />
    <glyph glyph-name="sterling" unicode="&#xa3;" 
d="M102 -5l-57 93c28 20 57 40 89 54c16 27 20 46 20 78c0 36 -8 72 -20 106h-69v105h37l-2 7c-13 43 -25 78 -25 123c0 126 103 206 222 206c85 0 165 -43 220 -106l-109 -108c-16 26 -39 57 -73 57c-33 0 -56 -27 -56 -60c0 -35 25 -82 28 -119h183v-105h-171
c3 -52 -17 -105 -48 -146c33 -1 55 -11 84 -24c16 -7 29 -12 47 -12c22 0 41 15 55 36l101 -55c-29 -80 -88 -138 -178 -138c-81 0 -123 43 -178 43c-41 0 -67 -13 -100 -35z" />
    <glyph glyph-name="fraction" unicode="&#x2044;" horiz-adv-x="234" 
d="M-113 -26l-78 56l533 755l82 -57z" />
    <glyph glyph-name="yen" unicode="&#xa5;" 
d="M409 0h-204v222h-144v82h144v16l-31 74h-113v82h78l-120 278h212l45 -166c10 -36 17 -71 25 -107h2c7 36 10 72 21 107l50 166h211l-113 -278h82v-82h-115l-30 -74v-16h145v-82h-145v-222z" />
    <glyph glyph-name="florin" unicode="&#x192;" 
d="M462 372h-60l-60 -351c-17 -101 -91 -171 -195 -171c-30 0 -58 6 -87 15l25 161c12 -1 23 -2 35 -2c43 0 49 14 55 52l49 296h-62l26 158h63l16 98c20 118 50 201 188 201c28 0 49 -4 76 -10l12 -2l-21 -157c-12 1 -24 4 -36 4c-35 0 -39 -22 -44 -50l-14 -84h61z" />
    <glyph glyph-name="section" unicode="&#xa7;" horiz-adv-x="559" 
d="M233 394c-27 -18 -45 -44 -35 -82c8 -33 59 -63 128 -91c32 31 44 59 36 89c-19 36 -53 50 -129 84zM501 583v-18h-140l1 16c0 45 -35 76 -82 76c-43 0 -68 -27 -68 -57c0 -42 41 -62 74 -78c47 -23 96 -44 142 -69c69 -37 94 -108 95 -141c2 -44 -18 -116 -72 -164
c30 -14 73 -67 73 -115c0 -111 -50 -199 -249 -202c-218 -3 -234 151 -234 185v15h146c-3 -56 38 -90 92 -90c39 0 79 20 79 68c0 33 -27 56 -100 91c-42 20 -94 43 -137 71c-73 48 -86 103 -86 145c0 56 26 110 78 146c-21 26 -50 50 -50 126c0 104 82 179 231 179
c115 0 207 -60 207 -184z" />
    <glyph glyph-name="currency" unicode="&#xa4;" 
d="M48 137l44 44c-24 43 -37 77 -37 128c0 49 12 90 37 131l-44 43l79 80l44 -44c38 23 85 38 129 38c47 0 94 -13 134 -38l44 44l79 -80l-44 -43c23 -40 36 -82 36 -130c0 -45 -12 -92 -36 -129l44 -44l-79 -79l-44 44c-40 -24 -83 -39 -129 -39c-48 0 -94 13 -134 39
l-44 -44zM302 187c70 0 123 58 123 123s-53 123 -123 123s-123 -58 -123 -123s53 -123 123 -123z" />
    <glyph glyph-name="quotesingle" unicode="'" horiz-adv-x="297" 
d="M218 392h-139l-30 362h199z" />
    <glyph glyph-name="quotedblleft" unicode="&#x201c;" horiz-adv-x="613" 
d="M38 392l131 362h161l-92 -362h-200zM283 392l132 362h160l-92 -362h-200z" />
    <glyph glyph-name="guillemotleft" unicode="&#xab;" horiz-adv-x="531" 
d="M209 93l-171 227l171 227l88 -66l-128 -161l128 -161zM405 93l-171 227l171 227l88 -66l-128 -161l128 -161z" />
    <glyph glyph-name="guilsinglleft" unicode="&#x2039;" horiz-adv-x="335" 
d="M209 93l-171 227l171 227l88 -66l-128 -161l128 -161z" />
    <glyph glyph-name="guilsinglright" unicode="&#x203a;" horiz-adv-x="335" 
d="M126 547l171 -227l-171 -227l-88 66l128 161l-128 161z" />
    <glyph glyph-name="endash" unicode="&#x2013;" horiz-adv-x="500" 
d="M500 239h-500v162h500v-162z" />
    <glyph glyph-name="dagger" unicode="&#x2020;" horiz-adv-x="599" 
d="M386 -166h-173v571h-175v151h175v198h173v-198h175v-151h-175v-571z" />
    <glyph glyph-name="daggerdbl" unicode="&#x2021;" horiz-adv-x="599" 
d="M386 -166h-173v298h-175v151h175v132h-175v151h175v188h173v-188h175v-151h-175v-132h175v-151h-175v-298z" />
    <glyph glyph-name="periodcentered" unicode="&#xb7;" horiz-adv-x="302" 
d="M151 141c-64 0 -114 52 -114 116c0 61 51 113 110 113c65 0 119 -49 119 -116c0 -63 -52 -113 -115 -113z" />
    <glyph glyph-name="paragraph" unicode="&#xb6;" horiz-adv-x="550" 
d="M381 -112v751h-66v-751h-135v517c-101 0 -169 64 -169 171c0 135 81 178 216 178h326v-115h-37v-751h-135z" />
    <glyph glyph-name="bullet" unicode="&#x2022;" horiz-adv-x="420" 
d="M400 379c0 -105 -86 -191 -191 -191s-188 86 -188 191c0 103 83 188 188 188s191 -85 191 -188z" />
    <glyph glyph-name="quotesinglbase" unicode="&#x201a;" horiz-adv-x="368" 
d="M330 204l-132 -363h-160l92 363h200z" />
    <glyph glyph-name="quotedblbase" unicode="&#x201e;" horiz-adv-x="613" 
d="M575 204l-131 -363h-161l92 363h200zM330 204l-132 -363h-160l92 363h200z" />
    <glyph glyph-name="quotedblright" unicode="&#x201d;" horiz-adv-x="613" 
d="M575 754l-131 -362h-161l92 362h200zM330 754l-132 -362h-160l92 362h200z" />
    <glyph glyph-name="guillemotright" unicode="&#xbb;" horiz-adv-x="531" 
d="M322 93l-88 66l128 161l-128 161l88 66l171 -227zM125 93l-87 66l128 161l-128 161l87 66l172 -227z" />
    <glyph glyph-name="ellipsis" unicode="&#x2026;" horiz-adv-x="1000" 
d="M166 -11c-64 0 -114 52 -114 116c0 61 51 113 110 113c65 0 119 -49 119 -116c0 -63 -52 -113 -115 -113zM499 -11c-64 0 -114 52 -114 116c0 61 51 113 110 113c65 0 119 -49 119 -116c0 -63 -52 -113 -115 -113zM832 -11c-64 0 -114 52 -114 116c0 61 51 113 110 113
c65 0 119 -49 119 -116c0 -63 -52 -113 -115 -113z" />
    <glyph glyph-name="perthousand" unicode="&#x2030;" horiz-adv-x="1157" 
d="M597 357c108 0 164 -86 164 -185s-56 -185 -164 -185s-164 86 -164 185s56 185 164 185zM597 246c-30 0 -31 -54 -31 -74c0 -19 1 -74 31 -74s31 55 31 74c0 20 -1 74 -31 74zM959 357c108 0 164 -86 164 -185s-56 -185 -164 -185s-164 86 -164 185s56 185 164 185z
M959 246c-30 0 -31 -54 -31 -74c0 -19 1 -74 31 -74s31 55 31 74c0 20 -1 74 -31 74zM198 767c108 0 164 -86 164 -185s-56 -185 -164 -185s-164 86 -164 185s56 185 164 185zM198 656c-30 0 -31 -54 -31 -74c0 -19 1 -74 31 -74s31 55 31 74c0 20 -1 74 -31 74zM169 -26
l-79 56l534 755l81 -57z" />
    <glyph glyph-name="questiondown" unicode="&#xbf;" horiz-adv-x="545" 
d="M376 287v-185l-35 1c-68 0 -107 -23 -107 -97c0 -28 5 -85 44 -85c40 0 43 56 43 86h196v-15c3 -142 -98 -239 -237 -239c-144 0 -247 102 -247 246c0 95 45 187 149 210v78h194zM271 343c-64 0 -114 52 -114 116c0 61 51 113 110 113c65 0 119 -49 119 -116
c0 -63 -52 -113 -115 -113z" />
    <glyph glyph-name="grave" unicode="`" horiz-adv-x="380" 
d="M270 597h-109l-100 168h156z" />
    <glyph glyph-name="acute" unicode="&#xb4;" horiz-adv-x="380" 
d="M101 597l54 168h155l-99 -168h-110z" />
    <glyph glyph-name="circumflex" unicode="&#x2c6;" horiz-adv-x="380" 
d="M194 694l-50 -89h-120l84 149h175l73 -149h-116z" />
    <glyph glyph-name="tilde" unicode="&#x2dc;" horiz-adv-x="380" 
d="M282 755h101v-17c0 -70 -43 -134 -118 -134c-62 0 -98 38 -134 38c-22 0 -30 -21 -30 -40h-103c-5 74 33 150 116 150c33 0 57 -11 87 -23c16 -7 32 -15 49 -15c24 0 31 21 32 41z" />
    <glyph glyph-name="macron" unicode="&#xaf;" horiz-adv-x="380" 
d="M-3 626v106h386v-106h-386z" />
    <glyph glyph-name="breve" unicode="&#x2d8;" horiz-adv-x="380" 
d="M9 758h79c16 -50 54 -61 102 -61c49 0 86 11 103 61h78c-6 -101 -80 -169 -181 -169c-51 0 -103 18 -136 57c-25 29 -45 72 -45 112z" />
    <glyph glyph-name="dotaccent" unicode="&#x2d9;" horiz-adv-x="380" 
d="M191 599c-46 0 -83 37 -83 83c0 43 37 80 80 80c46 0 85 -35 85 -82c0 -45 -36 -81 -82 -81z" />
    <glyph glyph-name="dieresis" unicode="&#xa8;" horiz-adv-x="380" 
d="M82 599c-46 0 -83 37 -83 83c0 43 37 80 81 80c45 0 84 -35 84 -82c0 -45 -36 -81 -82 -81zM300 599c-46 0 -83 37 -83 83c0 43 37 80 81 80c45 0 84 -35 84 -82c0 -45 -36 -81 -82 -81z" />
    <glyph glyph-name="ring" unicode="&#x2da;" horiz-adv-x="380" 
d="M188 788c62 0 111 -47 111 -109c0 -61 -49 -109 -109 -109c-58 0 -109 48 -109 108c0 59 47 110 107 110zM190 633c26 0 46 21 46 47c0 25 -20 45 -45 45s-47 -20 -47 -45c0 -26 20 -47 46 -47z" />
    <glyph glyph-name="cedilla" unicode="&#xb8;" horiz-adv-x="380" 
d="M144 -34h118c-7 -69 -39 -133 -108 -157l-36 87c17 14 26 40 26 61v9z" />
    <glyph glyph-name="hungarumlaut" unicode="&#x2dd;" horiz-adv-x="380" 
d="M0 597l54 168h155l-99 -168h-110zM201 597l54 168h155l-99 -168h-110z" />
    <glyph glyph-name="ogonek" unicode="&#x2db;" horiz-adv-x="380" 
d="M154 0h69c-19 -17 -38 -44 -38 -71s20 -40 45 -40c13 0 26 3 38 7l-8 -79c-15 -7 -30 -10 -46 -10c-56 0 -119 27 -119 91c0 39 30 79 59 102z" />
    <glyph glyph-name="caron" unicode="&#x2c7;" horiz-adv-x="380" 
d="M240 754h116l-73 -149h-175l-84 149h120l50 -89z" />
    <glyph glyph-name="emdash" unicode="&#x2014;" horiz-adv-x="1000" 
d="M870 239h-740v162h740v-162z" />
    <glyph glyph-name="AE" unicode="&#xc6;" horiz-adv-x="708" 
d="M260 253h84l-27 212c-5 42 -7 75 -11 107h-2c-4 -32 -6 -65 -12 -107zM379 0l-13 96h-131l-16 -96h-211l174 754h488v-178h-203l16 -105h171v-178h-140l20 -115h136v-178h-291z" />
    <glyph glyph-name="ordfeminine" unicode="&#xaa;" horiz-adv-x="341" 
d="M198 606c0 8 1 24 -3 38c-3 14 -10 26 -25 26c-18 0 -27 -14 -31 -31s-4 -37 -4 -47c0 -9 0 -24 4 -36s12 -22 27 -22c17 0 25 14 28 29c4 16 4 34 4 43zM200 444l4 52l-1 -1l-2 2c-13 -34 -43 -60 -85 -60c-88 0 -105 106 -105 168s20 162 108 162c41 0 66 -25 81 -56
l2 1l-3 23l-1 25h129v-316h-127z" />
    <glyph glyph-name="Lslash" unicode="&#x141;" horiz-adv-x="440" 
d="M417 0h-357v245l-68 -53v148l68 49v365h204v-256l84 68v-150l-84 -63v-175h153v-178z" />
    <glyph glyph-name="Oslash" unicode="&#xd8;" horiz-adv-x="651" 
d="M323 170c77 0 86 152 86 202v45h-2l-136 -202c6 -24 26 -45 52 -45zM322 584c-81 0 -81 -177 -81 -226v-21h2l133 200c-7 27 -27 47 -54 47zM555 766l74 -51l-67 -97c34 -72 51 -153 51 -241c0 -184 -81 -390 -288 -390c-71 0 -132 25 -178 67l-53 -77l-73 50l70 104
c-38 73 -54 159 -54 246c0 184 81 390 288 390c70 0 127 -23 180 -74z" />
    <glyph glyph-name="OE" unicode="&#x152;" horiz-adv-x="825" 
d="M399 382c0 48 0 197 -71 197c-39 0 -60 -41 -71 -88s-12 -99 -12 -121c0 -24 1 -73 12 -116c11 -42 32 -79 70 -79c70 0 72 160 72 207zM603 576v-105h151v-178h-151v-115h169v-178h-361c-17 -4 -35 -8 -53 -10s-35 -3 -53 -3c-205 0 -268 228 -268 396
c0 164 70 384 271 384c38 0 74 -8 113 -13h349v-178h-167z" />
    <glyph glyph-name="ordmasculine" unicode="&#xba;" horiz-adv-x="341" 
d="M169 437c-107 0 -159 74 -159 164c0 92 56 166 162 166c108 0 158 -76 158 -168c0 -93 -55 -162 -161 -162zM169 525c32 0 37 57 37 77s-5 77 -37 77c-31 0 -35 -57 -35 -77s4 -77 35 -77z" />
    <glyph glyph-name="ae" unicode="&#xe6;" horiz-adv-x="830" 
d="M512 329h91c-1 29 -12 67 -47 67c-33 0 -45 -40 -44 -67zM800 223h-288v-11c2 -28 10 -70 46 -70c22 0 39 16 43 37h192c-22 -122 -115 -190 -233 -190c-64 0 -109 14 -159 54c-50 -34 -110 -54 -171 -54c-105 0 -200 70 -200 181c0 114 85 170 192 170
c34 0 67 -4 100 -11c-6 51 -57 64 -102 64s-91 -9 -132 -30v153c53 14 106 23 160 23c57 0 117 -12 160 -52c47 35 96 52 157 52c162 0 235 -136 235 -283v-33zM273 123c29 0 50 16 50 47s-22 46 -52 46c-28 0 -50 -17 -50 -47c0 -31 23 -46 52 -46z" />
    <glyph glyph-name="dotlessi" unicode="&#x131;" horiz-adv-x="302" 
d="M249 0h-196v528h196v-528z" />
    <glyph glyph-name="lslash" unicode="&#x142;" horiz-adv-x="302" 
d="M249 0h-196v287l-60 -47v148l60 45v364h196v-261l60 48v-142l-60 -52v-390z" />
    <glyph glyph-name="oslash" unicode="&#xf8;" horiz-adv-x="552" 
d="M276 392c-47 0 -54 -74 -54 -128s7 -128 54 -128s54 74 54 128s-7 128 -54 128zM524 530l-59 -76c44 -55 57 -127 57 -190c0 -148 -77 -275 -246 -275c-42 0 -77 6 -115 25l-55 -74l-74 62l54 70c-38 48 -56 121 -56 192c0 148 77 275 246 275c37 0 81 -8 115 -26l55 77z
" />
    <glyph glyph-name="oe" unicode="&#x153;" horiz-adv-x="833" 
d="M515 329h91c-1 29 -12 67 -47 67c-33 0 -45 -40 -44 -67zM803 223h-288v-11c0 -28 10 -70 46 -70c22 0 39 16 43 37h192c-22 -122 -115 -190 -228 -190c-55 0 -110 17 -154 47c-41 -32 -90 -47 -134 -47c-163 0 -250 117 -250 278c0 154 87 272 243 272
c53 0 105 -16 151 -48c41 31 95 48 149 48c157 0 230 -136 230 -283v-33zM277 136c48 0 56 95 56 128c0 34 -7 128 -57 128c-47 0 -54 -95 -54 -128s7 -128 55 -128z" />
    <glyph glyph-name="germandbls" unicode="&#xdf;" horiz-adv-x="613" 
d="M84 0v371h-54v157h54c0 65 3 126 41 180c43 63 120 100 196 100c118 0 233 -83 233 -207c0 -66 -32 -141 -103 -153v-2c90 -6 132 -106 132 -185c0 -151 -97 -273 -253 -273v168c45 8 51 65 51 103c0 37 -8 102 -51 112v157c26 7 38 28 38 55c0 25 -15 50 -43 50
c-45 0 -45 -42 -45 -74v-559h-196z" />
    <glyph glyph-name="onesuperior" unicode="&#xb9;" horiz-adv-x="362" 
d="M253 308h-131v347h-55v105h186v-452z" />
    <glyph glyph-name="logicalnot" unicode="&#xac;" horiz-adv-x="500" 
d="M360 121v175h-334v115h449v-290h-115z" />
    <glyph glyph-name="mu" unicode="&#xb5;" horiz-adv-x="575" 
d="M326 528h196v-348c0 -95 -28 -191 -141 -191c-65 0 -116 54 -135 111l-2 -2l5 -80v-254h-196v764h196v-254c0 -44 2 -90 41 -90c34 0 36 37 36 77v267z" />
    <glyph glyph-name="trademark" unicode="&#x2122;" horiz-adv-x="860" 
d="M838 754v-404h-93v316h-2l-112 -316h-62l-112 316h-2v-316h-93v404h147l90 -249h2l90 249h147zM318 754v-88h-119v-316h-102v316h-114v88h335z" />
    <glyph glyph-name="Eth" unicode="&#xd0;" horiz-adv-x="625" 
d="M66 0v293h-60v178h60v283h164c232 0 357 -146 357 -374c0 -348 -219 -380 -343 -380h-178zM270 566v-384c93 1 109 117 109 188c0 67 -16 203 -109 196z" />
    <glyph glyph-name="onehalf" unicode="&#xbd;" horiz-adv-x="906" 
d="M187 -26l-78 56l533 755l82 -57zM258 308h-131v347h-55v105h186v-452zM850 0h-338l129 159c37 45 86 102 86 159c0 17 -8 40 -31 40c-29 0 -32 -37 -32 -55v-17h-129v16c0 91 67 157 166 157c93 0 155 -65 155 -149c0 -83 -64 -155 -125 -204l2 -2h117v-104z" />
    <glyph glyph-name="plusminus" unicode="&#xb1;" horiz-adv-x="500" 
d="M193 398v118h115v-118h167v-115h-167v-125h-115v125h-167v115h167zM26 -6v115h449v-115h-449z" />
    <glyph glyph-name="Thorn" unicode="&#xde;" horiz-adv-x="584" 
d="M264 0h-204v754h204v-100c160 0 297 -58 297 -256c0 -196 -120 -256 -297 -251v-147zM264 489v-172c56 -3 91 28 91 84c0 46 -26 89 -76 89z" />
    <glyph glyph-name="onequarter" unicode="&#xbc;" horiz-adv-x="906" 
d="M675 189l2 77c0 19 2 39 3 58l-1 -1l-2 2l-77 -136h75zM849 92h-42v-92h-132v92h-178v95l147 265h163v-263h42v-97zM202 -26l-78 56l533 755l82 -57zM263 308h-131v347h-55v105h186v-452z" />
    <glyph glyph-name="divide" unicode="&#xf7;" horiz-adv-x="500" 
d="M26 198v115h449v-115h-449zM171 498h159v-115h-159v115zM171 128h159v-115h-159v115z" />
    <glyph glyph-name="brokenbar" unicode="&#xa6;" horiz-adv-x="250" 
d="M68 661h115v-250h-115v250zM68 161h115v-250h-115v250z" />
    <glyph glyph-name="degree" unicode="&#xb0;" horiz-adv-x="400" 
d="M350 617c0 -83 -68 -150 -150 -150c-83 0 -150 67 -150 150c-1 82 67 150 150 150c82 0 150 -68 150 -150zM244 617c0 24 -20 44 -44 44s-44 -20 -44 -44s20 -44 44 -44s44 20 44 44z" />
    <glyph glyph-name="thorn" unicode="&#xfe;" horiz-adv-x="567" 
d="M537 264c0 -104 -31 -275 -166 -275c-60 0 -97 34 -125 83l-2 -2l3 -38l2 -60v-208h-196v966h196v-187c0 -29 -3 -59 -5 -88l2 -2c22 51 60 86 119 86c134 0 172 -169 172 -275zM287 154c45 0 48 91 48 119s-6 105 -47 105c-42 0 -45 -81 -45 -109c0 -27 3 -115 44 -115z
" />
    <glyph glyph-name="threequarters" unicode="&#xbe;" horiz-adv-x="906" 
d="M695 189l2 77c0 19 2 39 3 58l-1 -1l-2 2l-77 -136h75zM869 92h-42v-92h-132v92h-178v95l147 265h163v-263h42v-97zM247 -26l-78 56l533 755l82 -57zM35 442h130v-8c1 -18 9 -35 32 -35c26 0 36 24 36 44c0 40 -30 50 -68 47h-8v93h16c35 0 54 11 54 46
c0 15 -6 37 -27 37c-22 0 -25 -18 -27 -32v-4h-128c6 83 69 137 160 137c82 0 151 -55 151 -132c0 -38 -21 -74 -59 -92c45 -22 66 -61 66 -107c0 -87 -81 -135 -168 -135c-91 0 -163 54 -160 141z" />
    <glyph glyph-name="twosuperior" unicode="&#xb2;" horiz-adv-x="362" 
d="M340 308h-338l129 159c37 45 86 102 86 159c0 17 -8 40 -31 40c-29 0 -32 -37 -32 -55v-17h-129v16c0 91 67 157 166 157c93 0 155 -65 155 -149c0 -83 -64 -155 -125 -204l2 -2h117v-104z" />
    <glyph glyph-name="registered" unicode="&#xae;" horiz-adv-x="830" 
d="M415 767c256 0 391 -187 391 -390c0 -214 -155 -390 -391 -390c-274 0 -391 205 -391 390c0 181 115 390 391 390zM413 672c-176 0 -292 -120 -292 -295s116 -295 292 -295c175 0 296 124 296 299s-121 291 -296 291zM331 331v-167h-97v422h237c88 -3 141 -35 141 -130
c0 -79 -41 -110 -112 -115l99 -177h-110l-90 167h-68zM429 510h-98v-103h119c42 0 65 14 65 48c0 47 -31 55 -86 55z" />
    <glyph glyph-name="minus" unicode="&#x2212;" horiz-adv-x="500" 
d="M26 198v115h449v-115h-449z" />
    <glyph glyph-name="eth" unicode="&#xf0;" horiz-adv-x="551" 
d="M277 136c48 0 56 95 56 128c0 54 -7 138 -57 138c-47 0 -54 -85 -54 -138c0 -33 7 -128 55 -128zM278 754l76 42l50 -60l-74 -40c108 -122 198 -252 191 -437c-5 -149 -84 -270 -248 -270c-162 0 -243 123 -243 274c2 152 76 281 244 265c-14 24 -31 52 -72 96l-74 -42
l-46 62l70 40c-13 16 -68 61 -74 70l131 64c30 -24 44 -38 69 -64z" />
    <glyph glyph-name="multiply" unicode="&#xd7;" horiz-adv-x="500" 
d="M169 256l-136 136l82 81l135 -136l136 136l81 -81l-135 -136l135 -136l-81 -81l-136 136l-135 -136l-82 81z" />
    <glyph glyph-name="threesuperior" unicode="&#xb3;" horiz-adv-x="362" 
d="M15 442h130v-8c1 -18 9 -35 32 -35c26 0 36 24 36 44c0 40 -30 50 -68 47h-8v93h16c35 0 54 11 54 46c0 15 -6 37 -27 37c-22 0 -25 -18 -27 -32v-4h-128c6 83 69 137 160 137c82 0 151 -55 151 -132c0 -38 -21 -74 -59 -92c45 -22 66 -61 66 -107
c0 -87 -81 -135 -168 -135c-91 0 -163 54 -160 141z" />
    <glyph glyph-name="copyright" unicode="&#xa9;" horiz-adv-x="830" 
d="M521 309h92c-10 -95 -91 -152 -182 -152c-134 0 -215 99 -215 225c0 129 81 224 213 224c94 0 168 -54 184 -148h-92c-9 47 -44 66 -94 66c-81 0 -114 -63 -114 -138c0 -72 33 -147 112 -147c46 0 93 23 96 70zM415 -13c-274 0 -391 204 -391 391c0 181 115 389 391 389
c256 0 391 -187 391 -389c0 -216 -155 -391 -391 -391zM413 672c-176 0 -292 -119 -292 -294c0 -177 116 -296 292 -296c175 0 296 123 296 300c0 175 -121 290 -296 290z" />
    <glyph glyph-name="Aacute" unicode="&#xc1;" horiz-adv-x="605" 
d="M598 0h-211l-15 97h-137l-17 -97h-210l181 754h249zM262 257h86l-22 175c-6 47 -10 95 -15 142h-2c-6 -47 -11 -95 -19 -142zM239 808l54 168h155l-99 -168h-110z" />
    <glyph glyph-name="Acircumflex" unicode="&#xc2;" horiz-adv-x="605" 
d="M598 0h-211l-15 97h-137l-17 -97h-210l181 754h249zM262 257h86l-22 175c-6 47 -10 95 -15 142h-2c-6 -47 -11 -95 -19 -142zM312 905l-50 -89h-120l84 149h175l73 -149h-116z" />
    <glyph glyph-name="Adieresis" unicode="&#xc4;" horiz-adv-x="605" 
d="M598 0h-211l-15 97h-137l-17 -97h-210l181 754h249zM262 257h86l-22 175c-6 47 -10 95 -15 142h-2c-6 -47 -11 -95 -19 -142zM205 810c-46 0 -83 37 -83 83c0 43 37 80 81 80c45 0 84 -35 84 -82c0 -45 -36 -81 -82 -81zM423 810c-46 0 -83 37 -83 83c0 43 37 80 81 80
c45 0 84 -35 84 -82c0 -45 -36 -81 -82 -81z" />
    <glyph glyph-name="Agrave" unicode="&#xc0;" horiz-adv-x="605" 
d="M598 0h-211l-15 97h-137l-17 -97h-210l181 754h249zM262 257h86l-22 175c-6 47 -10 95 -15 142h-2c-6 -47 -11 -95 -19 -142zM383 808h-109l-100 168h156z" />
    <glyph glyph-name="Aring" unicode="&#xc5;" horiz-adv-x="605" 
d="M598 0h-211l-15 97h-137l-17 -97h-210l181 754h249zM262 257h86l-22 175c-6 47 -10 95 -15 142h-2c-6 -47 -11 -95 -19 -142zM306 999c62 0 111 -47 111 -109c0 -61 -49 -109 -109 -109c-58 0 -109 48 -109 108c0 59 47 110 107 110zM308 844c26 0 46 21 46 47
c0 25 -20 45 -45 45s-47 -20 -47 -45c0 -26 20 -47 46 -47z" />
    <glyph glyph-name="Atilde" unicode="&#xc3;" horiz-adv-x="605" 
d="M598 0h-211l-15 97h-137l-17 -97h-210l181 754h249zM262 257h86l-22 175c-6 47 -10 95 -15 142h-2c-6 -47 -11 -95 -19 -142zM395 966h101v-17c0 -70 -43 -134 -118 -134c-62 0 -98 38 -134 38c-22 0 -30 -21 -30 -40h-103c-5 74 33 150 116 150c33 0 57 -11 87 -23
c16 -7 32 -15 49 -15c24 0 31 21 32 41z" />
    <glyph glyph-name="Ccedilla" unicode="&#xc7;" horiz-adv-x="534" 
d="M473 749v-216c-29 28 -53 44 -95 44c-106 0 -132 -117 -132 -200c0 -88 26 -200 128 -200c46 0 75 18 108 48l-12 -211c-41 -18 -78 -27 -123 -27c-167 0 -309 127 -309 385c0 338 232 395 331 395c36 0 71 -5 104 -18zM253 -34h118c-7 -69 -39 -133 -108 -157l-36 87
c17 14 26 40 26 61v9z" />
    <glyph glyph-name="Eacute" unicode="&#xc9;" horiz-adv-x="499" 
d="M60 0v754h379v-178h-175v-105h157v-178h-157v-115h175v-178h-379zM176 808l54 168h155l-99 -168h-110z" />
    <glyph glyph-name="Ecircumflex" unicode="&#xca;" horiz-adv-x="499" 
d="M60 0v754h379v-178h-175v-105h157v-178h-157v-115h175v-178h-379zM254 905l-50 -89h-120l84 149h175l73 -149h-116z" />
    <glyph glyph-name="Edieresis" unicode="&#xcb;" horiz-adv-x="499" 
d="M60 0v754h379v-178h-175v-105h157v-178h-157v-115h175v-178h-379zM142 810c-46 0 -83 37 -83 83c0 43 37 80 81 80c45 0 84 -35 84 -82c0 -45 -36 -81 -82 -81zM360 810c-46 0 -83 37 -83 83c0 43 37 80 81 80c45 0 84 -35 84 -82c0 -45 -36 -81 -82 -81z" />
    <glyph glyph-name="Egrave" unicode="&#xc8;" horiz-adv-x="499" 
d="M60 0v754h379v-178h-175v-105h157v-178h-157v-115h175v-178h-379zM330 808h-109l-100 168h156z" />
    <glyph glyph-name="Iacute" unicode="&#xcd;" horiz-adv-x="324" 
d="M264 0h-204v754h204v-754zM73 808l54 168h155l-99 -168h-110z" />
    <glyph glyph-name="Icircumflex" unicode="&#xce;" horiz-adv-x="324" 
d="M264 0h-204v754h204v-754zM166 905l-50 -89h-120l84 149h175l73 -149h-116z" />
    <glyph glyph-name="Idieresis" unicode="&#xcf;" horiz-adv-x="324" 
d="M264 0h-204v754h204v-754zM54 810c-46 0 -83 37 -83 83c0 43 37 80 81 80c45 0 84 -35 84 -82c0 -45 -36 -81 -82 -81zM272 810c-46 0 -83 37 -83 83c0 43 37 80 81 80c45 0 84 -35 84 -82c0 -45 -36 -81 -82 -81z" />
    <glyph glyph-name="Igrave" unicode="&#xcc;" horiz-adv-x="324" 
d="M264 0h-204v754h204v-754zM242 808h-109l-100 168h156z" />
    <glyph glyph-name="Ntilde" unicode="&#xd1;" horiz-adv-x="652" 
d="M60 0v754h194l163 -454l2 2c-8 87 -23 173 -23 260v192h196v-754h-196l-152 435l-2 -2c5 -71 14 -141 14 -212v-221h-196zM418 966h101v-17c0 -70 -43 -134 -118 -134c-62 0 -98 38 -134 38c-22 0 -30 -21 -30 -40h-103c-5 74 33 150 116 150c33 0 57 -11 87 -23
c16 -7 32 -15 49 -15c24 0 31 21 32 41z" />
    <glyph glyph-name="Oacute" unicode="&#xd3;" horiz-adv-x="651" 
d="M37 377c0 184 81 390 288 390s288 -206 288 -390s-81 -390 -288 -390s-288 206 -288 390zM245 377c0 -47 3 -200 80 -200s80 153 80 200s-3 200 -80 200s-80 -153 -80 -200zM262 808l54 168h155l-99 -168h-110z" />
    <glyph glyph-name="Ocircumflex" unicode="&#xd4;" horiz-adv-x="651" 
d="M37 377c0 184 81 390 288 390s288 -206 288 -390s-81 -390 -288 -390s-288 206 -288 390zM245 377c0 -47 3 -200 80 -200s80 153 80 200s-3 200 -80 200s-80 -153 -80 -200zM330 905l-50 -89h-120l84 149h175l73 -149h-116z" />
    <glyph glyph-name="Odieresis" unicode="&#xd6;" horiz-adv-x="651" 
d="M37 377c0 184 81 390 288 390s288 -206 288 -390s-81 -390 -288 -390s-288 206 -288 390zM245 377c0 -47 3 -200 80 -200s80 153 80 200s-3 200 -80 200s-80 -153 -80 -200zM218 810c-46 0 -83 37 -83 83c0 43 37 80 81 80c45 0 84 -35 84 -82c0 -45 -36 -81 -82 -81z
M436 810c-46 0 -83 37 -83 83c0 43 37 80 81 80c45 0 84 -35 84 -82c0 -45 -36 -81 -82 -81z" />
    <glyph glyph-name="Ograve" unicode="&#xd2;" horiz-adv-x="651" 
d="M37 377c0 184 81 390 288 390s288 -206 288 -390s-81 -390 -288 -390s-288 206 -288 390zM245 377c0 -47 3 -200 80 -200s80 153 80 200s-3 200 -80 200s-80 -153 -80 -200zM381 808h-109l-100 168h156z" />
    <glyph glyph-name="Otilde" unicode="&#xd5;" horiz-adv-x="651" 
d="M37 377c0 184 81 390 288 390s288 -206 288 -390s-81 -390 -288 -390s-288 206 -288 390zM245 377c0 -47 3 -200 80 -200s80 153 80 200s-3 200 -80 200s-80 -153 -80 -200zM418 966h101v-17c0 -70 -43 -134 -118 -134c-62 0 -98 38 -134 38c-22 0 -30 -21 -30 -40h-103
c-5 74 33 150 116 150c33 0 57 -11 87 -23c16 -7 32 -15 49 -15c24 0 31 21 32 41z" />
    <glyph glyph-name="Scaron" unicode="&#x160;" horiz-adv-x="472" 
d="M41 18v236c28 -42 77 -84 129 -84c28 0 60 17 60 50c0 18 -6 31 -16 42c-9 11 -21 20 -34 29c-40 31 -75 60 -101 96c-25 35 -41 77 -41 132c0 88 56 248 230 248c49 0 102 -15 145 -38v-229c-24 38 -73 81 -120 81c-24 0 -53 -17 -53 -46c0 -16 9 -30 20 -42
s26 -22 37 -31c43 -30 77 -58 100 -92c24 -34 37 -74 37 -131c0 -140 -98 -252 -240 -252c-52 0 -105 11 -153 31zM298 965h116l-73 -149h-175l-84 149h120l50 -89z" />
    <glyph glyph-name="Uacute" unicode="&#xda;" horiz-adv-x="622" 
d="M363 754h204v-493c0 -91 -20 -274 -256 -274s-256 183 -256 274v493h204v-474c0 -20 -1 -46 5 -66c6 -21 19 -37 47 -37c29 0 42 16 47 36c6 21 5 47 5 66v475zM247 808l54 168h155l-99 -168h-110z" />
    <glyph glyph-name="Ucircumflex" unicode="&#xdb;" horiz-adv-x="622" 
d="M363 754h204v-493c0 -91 -20 -274 -256 -274s-256 183 -256 274v493h204v-474c0 -20 -1 -46 5 -66c6 -21 19 -37 47 -37c29 0 42 16 47 36c6 21 5 47 5 66v475zM315 905l-50 -89h-120l84 149h175l73 -149h-116z" />
    <glyph glyph-name="Udieresis" unicode="&#xdc;" horiz-adv-x="622" 
d="M363 754h204v-493c0 -91 -20 -274 -256 -274s-256 183 -256 274v493h204v-474c0 -20 -1 -46 5 -66c6 -21 19 -37 47 -37c29 0 42 16 47 36c6 21 5 47 5 66v475zM203 810c-46 0 -83 37 -83 83c0 43 37 80 81 80c45 0 84 -35 84 -82c0 -45 -36 -81 -82 -81zM421 810
c-46 0 -83 37 -83 83c0 43 37 80 81 80c45 0 84 -35 84 -82c0 -45 -36 -81 -82 -81z" />
    <glyph glyph-name="Ugrave" unicode="&#xd9;" horiz-adv-x="622" 
d="M363 754h204v-493c0 -91 -20 -274 -256 -274s-256 183 -256 274v493h204v-474c0 -20 -1 -46 5 -66c6 -21 19 -37 47 -37c29 0 42 16 47 36c6 21 5 47 5 66v475zM366 808h-109l-100 168h156z" />
    <glyph glyph-name="Yacute" unicode="&#xdd;" horiz-adv-x="581" 
d="M398 0h-204v320l-186 434h212l70 -233h2l71 233h211l-176 -434v-320zM227 808l54 168h155l-99 -168h-110z" />
    <glyph glyph-name="Ydieresis" unicode="&#x178;" horiz-adv-x="581" 
d="M398 0h-204v320l-186 434h212l70 -233h2l71 233h211l-176 -434v-320zM183 810c-46 0 -83 37 -83 83c0 43 37 80 81 80c45 0 84 -35 84 -82c0 -45 -36 -81 -82 -81zM401 810c-46 0 -83 37 -83 83c0 43 37 80 81 80c45 0 84 -35 84 -82c0 -45 -36 -81 -82 -81z" />
    <glyph glyph-name="Zcaron" unicode="&#x17d;" horiz-adv-x="590" 
d="M542 0h-519l206 479c14 33 37 69 58 103c-40 -2 -85 -6 -129 -6h-90v178h499l-223 -516c-10 -24 -22 -46 -32 -69c37 3 75 9 114 9h116v-178zM357 965h116l-73 -149h-175l-84 149h120l50 -89z" />
    <glyph glyph-name="aacute" unicode="&#xe1;" horiz-adv-x="569" 
d="M272 151c25 0 37 22 42 48c6 27 6 57 6 72c0 14 1 40 -4 64c-5 23 -15 43 -38 43c-24 0 -35 -24 -41 -53c-5 -28 -5 -61 -5 -78c0 -15 1 -39 6 -60c5 -20 15 -36 34 -36zM516 528v-528h-196l9 87l-2 2c-25 -56 -71 -100 -135 -100c-136 0 -162 177 -162 280
c0 104 31 270 166 270c63 0 102 -42 127 -94l2 2l-8 81h199zM221 597l54 168h155l-99 -168h-110z" />
    <glyph glyph-name="acircumflex" unicode="&#xe2;" horiz-adv-x="569" 
d="M272 151c25 0 37 22 42 48c6 27 6 57 6 72c0 14 1 40 -4 64c-5 23 -15 43 -38 43c-24 0 -35 -24 -41 -53c-5 -28 -5 -61 -5 -78c0 -15 1 -39 6 -60c5 -20 15 -36 34 -36zM516 528v-528h-196l9 87l-2 2c-25 -56 -71 -100 -135 -100c-136 0 -162 177 -162 280
c0 104 31 270 166 270c63 0 102 -42 127 -94l2 2l-8 81h199zM289 694l-50 -89h-120l84 149h175l73 -149h-116z" />
    <glyph glyph-name="adieresis" unicode="&#xe4;" horiz-adv-x="569" 
d="M272 151c25 0 37 22 42 48c6 27 6 57 6 72c0 14 1 40 -4 64c-5 23 -15 43 -38 43c-24 0 -35 -24 -41 -53c-5 -28 -5 -61 -5 -78c0 -15 1 -39 6 -60c5 -20 15 -36 34 -36zM516 528v-528h-196l9 87l-2 2c-25 -56 -71 -100 -135 -100c-136 0 -162 177 -162 280
c0 104 31 270 166 270c63 0 102 -42 127 -94l2 2l-8 81h199zM177 599c-46 0 -83 37 -83 83c0 43 37 80 81 80c45 0 84 -35 84 -82c0 -45 -36 -81 -82 -81zM395 599c-46 0 -83 37 -83 83c0 43 37 80 81 80c45 0 84 -35 84 -82c0 -45 -36 -81 -82 -81z" />
    <glyph glyph-name="agrave" unicode="&#xe0;" horiz-adv-x="569" 
d="M272 151c25 0 37 22 42 48c6 27 6 57 6 72c0 14 1 40 -4 64c-5 23 -15 43 -38 43c-24 0 -35 -24 -41 -53c-5 -28 -5 -61 -5 -78c0 -15 1 -39 6 -60c5 -20 15 -36 34 -36zM516 528v-528h-196l9 87l-2 2c-25 -56 -71 -100 -135 -100c-136 0 -162 177 -162 280
c0 104 31 270 166 270c63 0 102 -42 127 -94l2 2l-8 81h199zM365 597h-109l-100 168h156z" />
    <glyph glyph-name="aring" unicode="&#xe5;" horiz-adv-x="569" 
d="M272 151c25 0 37 22 42 48c6 27 6 57 6 72c0 14 1 40 -4 64c-5 23 -15 43 -38 43c-24 0 -35 -24 -41 -53c-5 -28 -5 -61 -5 -78c0 -15 1 -39 6 -60c5 -20 15 -36 34 -36zM516 528v-528h-196l9 87l-2 2c-25 -56 -71 -100 -135 -100c-136 0 -162 177 -162 280
c0 104 31 270 166 270c63 0 102 -42 127 -94l2 2l-8 81h199zM283 788c62 0 111 -47 111 -109c0 -61 -49 -109 -109 -109c-58 0 -109 48 -109 108c0 59 47 110 107 110zM285 633c26 0 46 21 46 47c0 25 -20 45 -45 45s-47 -20 -47 -45c0 -26 20 -47 46 -47z" />
    <glyph glyph-name="atilde" unicode="&#xe3;" horiz-adv-x="569" 
d="M272 151c25 0 37 22 42 48c6 27 6 57 6 72c0 14 1 40 -4 64c-5 23 -15 43 -38 43c-24 0 -35 -24 -41 -53c-5 -28 -5 -61 -5 -78c0 -15 1 -39 6 -60c5 -20 15 -36 34 -36zM516 528v-528h-196l9 87l-2 2c-25 -56 -71 -100 -135 -100c-136 0 -162 177 -162 280
c0 104 31 270 166 270c63 0 102 -42 127 -94l2 2l-8 81h199zM377 755h101v-17c0 -70 -43 -134 -118 -134c-62 0 -98 38 -134 38c-22 0 -30 -21 -30 -40h-103c-5 74 33 150 116 150c33 0 57 -11 87 -23c16 -7 32 -15 49 -15c24 0 31 21 32 41z" />
    <glyph glyph-name="ccedilla" unicode="&#xe7;" horiz-adv-x="366" 
d="M320 172v-179c-18 -1 -35 -4 -53 -4c-152 0 -237 136 -237 277c0 145 97 273 249 273c14 0 27 -1 41 -2v-171c-58 -3 -88 -40 -88 -96c0 -42 25 -98 75 -98h13zM157 -34h118c-7 -69 -39 -133 -108 -157l-36 87c17 14 26 40 26 61v9z" />
    <glyph glyph-name="eacute" unicode="&#xe9;" horiz-adv-x="544" 
d="M226 329h91c-1 29 -12 67 -47 67c-33 0 -45 -40 -44 -67zM315 179h192c-22 -122 -115 -190 -233 -190c-163 0 -244 110 -244 265c0 151 87 285 249 285c81 0 140 -34 178 -86c51 -69 57 -147 57 -230h-288c0 -31 5 -81 46 -81c22 0 39 16 43 37zM208 597l54 168h155
l-99 -168h-110z" />
    <glyph glyph-name="ecircumflex" unicode="&#xea;" horiz-adv-x="544" 
d="M226 329h91c-1 29 -12 67 -47 67c-33 0 -45 -40 -44 -67zM315 179h192c-22 -122 -115 -190 -233 -190c-163 0 -244 110 -244 265c0 151 87 285 249 285c81 0 140 -34 178 -86c51 -69 57 -147 57 -230h-288c0 -31 5 -81 46 -81c22 0 39 16 43 37zM276 694l-50 -89h-120
l84 149h175l73 -149h-116z" />
    <glyph glyph-name="edieresis" unicode="&#xeb;" horiz-adv-x="544" 
d="M226 329h91c-1 29 -12 67 -47 67c-33 0 -45 -40 -44 -67zM315 179h192c-22 -122 -115 -190 -233 -190c-163 0 -244 110 -244 265c0 151 87 285 249 285c81 0 140 -34 178 -86c51 -69 57 -147 57 -230h-288c0 -31 5 -81 46 -81c22 0 39 16 43 37zM164 599
c-46 0 -83 37 -83 83c0 43 37 80 81 80c45 0 84 -35 84 -82c0 -45 -36 -81 -82 -81zM382 599c-46 0 -83 37 -83 83c0 43 37 80 81 80c45 0 84 -35 84 -82c0 -45 -36 -81 -82 -81z" />
    <glyph glyph-name="egrave" unicode="&#xe8;" horiz-adv-x="544" 
d="M226 329h91c-1 29 -12 67 -47 67c-33 0 -45 -40 -44 -67zM315 179h192c-22 -122 -115 -190 -233 -190c-163 0 -244 110 -244 265c0 151 87 285 249 285c81 0 140 -34 178 -86c51 -69 57 -147 57 -230h-288c0 -31 5 -81 46 -81c22 0 39 16 43 37zM327 597h-109l-100 168
h156z" />
    <glyph glyph-name="iacute" unicode="&#xed;" horiz-adv-x="302" 
d="M249 0h-196v528h196v-528zM77 597l54 168h155l-99 -168h-110z" />
    <glyph glyph-name="icircumflex" unicode="&#xee;" horiz-adv-x="302" 
d="M249 0h-196v528h196v-528zM155 694l-50 -89h-120l84 149h175l73 -149h-116z" />
    <glyph glyph-name="idieresis" unicode="&#xef;" horiz-adv-x="302" 
d="M249 0h-196v528h196v-528zM43 599c-46 0 -83 37 -83 83c0 43 37 80 81 80c45 0 84 -35 84 -82c0 -45 -36 -81 -82 -81zM261 599c-46 0 -83 37 -83 83c0 43 37 80 81 80c45 0 84 -35 84 -82c0 -45 -36 -81 -82 -81z" />
    <glyph glyph-name="igrave" unicode="&#xec;" horiz-adv-x="302" 
d="M249 0h-196v528h196v-528zM216 597h-109l-100 168h156z" />
    <glyph glyph-name="ntilde" unicode="&#xf1;" horiz-adv-x="575" 
d="M249 528l-5 -98l2 -2c19 57 70 111 135 111c113 0 141 -96 141 -191v-348h-196v267c0 45 -3 77 -36 77c-38 0 -41 -36 -41 -90v-254h-196v528h196zM380 755h101v-17c0 -70 -43 -134 -118 -134c-62 0 -98 38 -134 38c-22 0 -30 -21 -30 -40h-103c-5 74 33 150 116 150
c33 0 57 -11 87 -23c16 -7 32 -15 49 -15c24 0 31 21 32 41z" />
    <glyph glyph-name="oacute" unicode="&#xf3;" horiz-adv-x="552" 
d="M276 539c169 0 246 -127 246 -275s-77 -275 -246 -275s-246 127 -246 275s77 275 246 275zM276 392c-47 0 -54 -74 -54 -128s7 -128 54 -128s54 74 54 128s-7 128 -54 128zM207 597l54 168h155l-99 -168h-110z" />
    <glyph glyph-name="ocircumflex" unicode="&#xf4;" horiz-adv-x="552" 
d="M276 539c169 0 246 -127 246 -275s-77 -275 -246 -275s-246 127 -246 275s77 275 246 275zM276 392c-47 0 -54 -74 -54 -128s7 -128 54 -128s54 74 54 128s-7 128 -54 128zM280 694l-50 -89h-120l84 149h175l73 -149h-116z" />
    <glyph glyph-name="odieresis" unicode="&#xf6;" horiz-adv-x="552" 
d="M276 539c169 0 246 -127 246 -275s-77 -275 -246 -275s-246 127 -246 275s77 275 246 275zM276 392c-47 0 -54 -74 -54 -128s7 -128 54 -128s54 74 54 128s-7 128 -54 128zM168 599c-46 0 -83 37 -83 83c0 43 37 80 81 80c45 0 84 -35 84 -82c0 -45 -36 -81 -82 -81z
M386 599c-46 0 -83 37 -83 83c0 43 37 80 81 80c45 0 84 -35 84 -82c0 -45 -36 -81 -82 -81z" />
    <glyph glyph-name="ograve" unicode="&#xf2;" horiz-adv-x="552" 
d="M276 539c169 0 246 -127 246 -275s-77 -275 -246 -275s-246 127 -246 275s77 275 246 275zM276 392c-47 0 -54 -74 -54 -128s7 -128 54 -128s54 74 54 128s-7 128 -54 128zM336 597h-109l-100 168h156z" />
    <glyph glyph-name="otilde" unicode="&#xf5;" horiz-adv-x="552" 
d="M276 539c169 0 246 -127 246 -275s-77 -275 -246 -275s-246 127 -246 275s77 275 246 275zM276 392c-47 0 -54 -74 -54 -128s7 -128 54 -128s54 74 54 128s-7 128 -54 128zM368 755h101v-17c0 -70 -43 -134 -118 -134c-62 0 -98 38 -134 38c-22 0 -30 -21 -30 -40h-103
c-5 74 33 150 116 150c33 0 57 -11 87 -23c16 -7 32 -15 49 -15c24 0 31 21 32 41z" />
    <glyph glyph-name="scaron" unicode="&#x161;" horiz-adv-x="461" 
d="M30 44l72 146c23 -25 62 -55 98 -55c17 0 38 8 38 27s-17 30 -51 42c-77 27 -138 67 -138 157c0 109 89 178 212 178c53 0 115 -17 161 -43l-67 -143c-23 21 -49 47 -82 47c-14 0 -29 -9 -29 -26c0 -27 38 -41 59 -49c71 -27 128 -65 128 -151
c0 -119 -102 -185 -211 -185c-72 0 -128 21 -190 55zM281 754h116l-73 -149h-175l-84 149h120l50 -89z" />
    <glyph glyph-name="uacute" unicode="&#xfa;" horiz-adv-x="565" 
d="M48 528h196v-284c0 -63 4 -91 38 -91c35 0 39 27 39 91v284h196v-311c0 -156 -91 -228 -235 -228c-152 0 -234 84 -234 228v311zM209 597l54 168h155l-99 -168h-110z" />
    <glyph glyph-name="ucircumflex" unicode="&#xfb;" horiz-adv-x="565" 
d="M48 528h196v-284c0 -63 4 -91 38 -91c35 0 39 27 39 91v284h196v-311c0 -156 -91 -228 -235 -228c-152 0 -234 84 -234 228v311zM287 694l-50 -89h-120l84 149h175l73 -149h-116z" />
    <glyph glyph-name="udieresis" unicode="&#xfc;" horiz-adv-x="565" 
d="M48 528h196v-284c0 -63 4 -91 38 -91c35 0 39 27 39 91v284h196v-311c0 -156 -91 -228 -235 -228c-152 0 -234 84 -234 228v311zM175 599c-46 0 -83 37 -83 83c0 43 37 80 81 80c45 0 84 -35 84 -82c0 -45 -36 -81 -82 -81zM393 599c-46 0 -83 37 -83 83
c0 43 37 80 81 80c45 0 84 -35 84 -82c0 -45 -36 -81 -82 -81z" />
    <glyph glyph-name="ugrave" unicode="&#xf9;" horiz-adv-x="565" 
d="M48 528h196v-284c0 -63 4 -91 38 -91c35 0 39 27 39 91v284h196v-311c0 -156 -91 -228 -235 -228c-152 0 -234 84 -234 228v311zM348 597h-109l-100 168h156z" />
    <glyph glyph-name="yacute" unicode="&#xfd;" horiz-adv-x="546" 
d="M285 -236h-203l90 258l-157 506h197l38 -182l23 -118h2c7 39 10 79 19 118l41 182h196zM214 597l54 168h155l-99 -168h-110z" />
    <glyph glyph-name="ydieresis" unicode="&#xff;" horiz-adv-x="546" 
d="M285 -236h-203l90 258l-157 506h197l38 -182l23 -118h2c7 39 10 79 19 118l41 182h196zM165 599c-46 0 -83 37 -83 83c0 43 37 80 81 80c45 0 84 -35 84 -82c0 -45 -36 -81 -82 -81zM383 599c-46 0 -83 37 -83 83c0 43 37 80 81 80c45 0 84 -35 84 -82
c0 -45 -36 -81 -82 -81z" />
    <glyph glyph-name="zcaron" unicode="&#x17e;" horiz-adv-x="499" 
d="M445 0h-422l179 374c-25 -1 -51 -3 -76 -3h-75v157h426l-178 -370c22 1 43 2 65 2h81v-160zM300 754h116l-73 -149h-175l-84 149h120l50 -89z" />
    <glyph glyph-name="Delta" unicode="&#x2206;" horiz-adv-x="714" 
d="M24 0v98l230 667h215l218 -664v-101h-663zM210 144h285l-88 244c-14 58 -41 143 -52 188h-3c-8 -37 -33 -112 -48 -173z" />
    <glyph glyph-name="Omega" unicode="&#x2126;" horiz-adv-x="752" 
d="M166 144v4c-57 56 -120 151 -120 278c0 173 127 337 332 337c221 0 325 -187 325 -328c0 -126 -59 -227 -122 -287v-4h137v-144h-304v107c28 18 55 48 75 94c19 46 32 109 32 194c0 127 -51 219 -144 219c-89 0 -149 -91 -149 -227c0 -151 49 -247 108 -280v-107h-305
v144h135z" />
    <glyph glyph-name="uni03BC" unicode="&#x3bc;" horiz-adv-x="575" 
d="M326 528h196v-348c0 -95 -28 -191 -141 -191c-65 0 -116 54 -135 111l-2 -2l5 -80v-254h-196v764h196v-254c0 -44 2 -90 41 -90c34 0 36 37 36 77v267z" />
    <glyph glyph-name="pi" unicode="&#x3c0;" horiz-adv-x="673" 
d="M650 417h-67v-256c0 -71 5 -124 12 -161h-173c-15 27 -20 89 -20 156v261h-112c-4 -99 -25 -298 -62 -417h-174c33 132 59 319 59 417c-39 0 -70 -2 -95 -8l-17 119c27 24 92 41 193 41h469z" />
    <glyph glyph-name="Euro" unicode="&#x20ac;" 
d="M552 728v-155c-21 24 -62 45 -127 45c-83 0 -123 -43 -136 -122h228l-33 -96h-204c-1 -7 -1 -18 -1 -27c0 -11 0 -23 1 -32h183l-34 -96h-137c13 -75 55 -111 133 -111c58 0 104 19 127 41v-153c-22 -15 -75 -34 -161 -34c-170 0 -263 84 -290 257h-85l33 96h42
c0 9 -1 19 -1 31c0 10 1 19 1 28h-75l33 96h50c27 164 110 270 292 270c81 0 139 -22 161 -38z" />
    <glyph glyph-name="afii61289" unicode="&#x2113;" horiz-adv-x="578" 
d="M493 226l69 -75c-64 -125 -156 -161 -242 -161c-133 0 -191 72 -206 160c-1 3 -1 7 -1 10c-16 -12 -33 -26 -51 -38l-42 92c33 27 63 48 91 74v252c0 189 90 286 213 286c115 0 165 -91 165 -203c0 -121 -77 -235 -205 -357l1 -52c2 -48 32 -81 78 -81c51 0 98 45 130 93
zM284 541v-116c59 71 95 153 95 207c0 45 -11 69 -44 69c-25 0 -51 -32 -51 -160z" />
    <glyph glyph-name="estimated" unicode="&#x212e;" horiz-adv-x="940" 
d="M903 366h-702c-3 0 -5 -1 -5 -5v-212c0 -9 3 -17 9 -24c68 -70 161 -115 265 -115c112 0 211 50 279 129h63c-78 -91 -203 -151 -343 -151c-239 0 -433 174 -433 388c0 216 194 391 433 391c240 0 434 -175 434 -391v-10zM744 394v213c0 10 -4 19 -11 26
c-68 67 -160 110 -263 110c-102 0 -196 -45 -264 -114c-7 -7 -10 -16 -10 -26v-209c0 -3 2 -7 5 -7h538c4 0 5 4 5 7z" />
    <glyph glyph-name="partialdiff" unicode="&#x2202;" horiz-adv-x="642" 
d="M112 655l-46 135c31 23 100 63 211 63c171 0 315 -143 315 -412c0 -280 -123 -449 -319 -449c-161 0 -237 149 -237 260c0 176 102 287 236 287c79 0 128 -49 144 -73h1v28c0 95 -56 212 -165 212c-66 0 -112 -29 -140 -51zM291 141h1c64 0 101 111 110 186
c-6 24 -38 69 -92 69c-61 0 -97 -76 -97 -152c0 -55 31 -103 78 -103z" />
    <glyph glyph-name="product" unicode="&#x220f;" horiz-adv-x="794" 
d="M768 590h-103v-694h-178v694h-181v-694h-178v694h-103v162h743v-162z" />
    <glyph glyph-name="summation" unicode="&#x2211;" horiz-adv-x="605" 
d="M587 -104h-562v112l237 318l-230 301v125h537v-151h-299v-4l193 -241l-220 -292v-3h344v-165z" />
    <glyph glyph-name="uni2219" unicode="&#x2219;" horiz-adv-x="302" 
d="M151 141c-64 0 -114 52 -114 116c0 61 51 113 110 113c65 0 119 -49 119 -116c0 -63 -52 -113 -115 -113z" />
    <glyph glyph-name="radical" unicode="&#x221a;" horiz-adv-x="657" 
d="M672 908l-244 -1051h-138l-152 450l-79 -32l-27 96l211 87l92 -298l24 -105l2 -1c4 26 10 70 19 116l170 738h122z" />
    <glyph glyph-name="infinity" unicode="&#x221e;" horiz-adv-x="838" 
d="M788 310v-1c0 -126 -89 -198 -179 -198c-58 0 -120 17 -189 117c-54 -70 -110 -117 -195 -117c-91 0 -176 75 -176 192c0 116 81 194 186 194c79 0 134 -38 189 -112c37 43 90 113 190 112c94 0 174 -73 174 -187zM236 204h2c54 0 93 44 132 94c-42 60 -72 108 -136 108
c-56 0 -91 -41 -92 -104c0 -54 42 -98 94 -98zM605 406h-1c-60 0 -102 -60 -134 -99c60 -82 90 -103 140 -103c54 0 84 57 84 98c0 57 -34 104 -89 104z" />
    <glyph glyph-name="integral" unicode="&#x222b;" horiz-adv-x="457" 
d="M428 927l-15 -122c-11 4 -22 8 -37 8c-23 0 -41 -9 -53 -29c-20 -27 -24 -91 -24 -172c0 -180 17 -293 17 -499c0 -92 -12 -167 -34 -214c-34 -70 -101 -94 -163 -94c-38 0 -74 8 -92 17l19 126c11 -5 26 -10 45 -10c17 0 34 4 45 19c17 24 24 68 24 154
c0 210 -17 324 -17 518c0 131 20 201 70 254c33 38 91 55 144 55c31 0 58 -6 71 -11z" />
    <glyph glyph-name="approxequal" unicode="&#x2248;" horiz-adv-x="582" 
d="M484 503l60 -56c-37 -71 -94 -118 -151 -118c-43 0 -70 12 -116 41c-31 20 -53 36 -87 36c-46 0 -70 -39 -96 -75l-60 57c31 62 93 115 162 115c52 0 83 -20 109 -36c39 -24 59 -39 87 -39c40 0 64 33 92 75zM484 290l60 -57c-36 -69 -92 -117 -152 -117
c-42 0 -72 14 -115 41c-32 21 -54 36 -87 36c-46 0 -69 -38 -96 -76l-60 57c31 63 93 116 162 116c52 0 83 -21 108 -35c33 -20 57 -41 87 -41c41 0 64 32 93 76z" />
    <glyph glyph-name="notequal" unicode="&#x2260;" horiz-adv-x="582" 
d="M439 559l-37 -87h130v-99h-166l-57 -136h223v-100h-260l-50 -118l-78 30l38 88h-133v100h170l56 136h-226v99h263l49 116z" />
    <glyph glyph-name="lessequal" unicode="&#x2264;" horiz-adv-x="582" 
d="M529 110l-475 238v108l475 238v-115l-380 -176v-2l380 -176v-115zM534 -28h-483v101h483v-101z" />
    <glyph glyph-name="greaterequal" unicode="&#x2265;" horiz-adv-x="582" 
d="M57 694l475 -238v-108l-475 -238v115l379 176v3l-379 175v115zM531 -28h-479v101h479v-101z" />
    <glyph glyph-name="lozenge" unicode="&#x25ca;" horiz-adv-x="654" 
d="M605 375l-211 -431h-142l-202 431l210 431h142zM450 371l-99 222c-8 22 -16 50 -20 71h-4c-5 -22 -13 -48 -21 -71l-101 -214l101 -228c6 -21 14 -51 17 -66h6c4 17 14 53 18 63z" />
    <glyph glyph-name="uni00A0" unicode="&#xa0;" horiz-adv-x="302" 
 />
    <glyph glyph-name="uni00AD" unicode="&#xad;" horiz-adv-x="321" 
d="M283 239h-245v162h245v-162z" />
    <glyph glyph-name="uni02C9" unicode="&#x2c9;" horiz-adv-x="380" 
d="M-3 626v106h386v-106h-386z" />
    <glyph glyph-name="uni03A9" unicode="&#x3a9;" horiz-adv-x="752" 
d="M166 144v4c-57 56 -120 151 -120 278c0 173 127 337 332 337c221 0 325 -187 325 -328c0 -126 -59 -227 -122 -287v-4h137v-144h-304v107c28 18 55 48 75 94c19 46 32 109 32 194c0 127 -51 219 -144 219c-89 0 -149 -91 -149 -227c0 -151 49 -247 108 -280v-107h-305
v144h135z" />
    <glyph glyph-name="uni2215" unicode="&#x2215;" horiz-adv-x="234" 
d="M-113 -26l-78 56l533 755l82 -57z" />
    </font>
</defs>
</svg>
