<?xml version="1.0" standalone="no"?>
<!DOCTYPE svg PUBLIC "-//W3C//DTD SVG 1.1//EN" "http://www.w3.org/Graphics/SVG/1.1/DTD/svg11.dtd" >
<svg xmlns="http://www.w3.org/2000/svg" width="100%" height="100%">
<metadata>
Created by FontXChange 20100429 at Mon Jan 21 13:17:54 2013
 By jpg
 Copyright 1987, 1991, 1992, 1993, 2002 Fundicion Tipografica Neufville S. A.
 This record material and the data recorded thereon is the property of
 Fundicion Tipografica Neufville S. A. and Adobe Systems Incorporated,
 or its licensors, and may not be reproduced, used, displayed, modified,
 disclosed or transferred in any manner without the express written
 approval of Fundicion Tipografica Neufville S. A. and Adobe Systems
 Incorporated. 
</metadata>
<defs>
<font id="FuturaStd-CondensedBoldObl" horiz-adv-x="490" >
  <font-face 
    font-family="Futura Std"
    font-weight="700"
    font-style="italic"
    font-stretch="condensed"
    units-per-em="1000"
    panose-1="2 11 7 6 2 2 4 3 2 4"
    ascent="825"
    descent="-175"
    x-height="505"
    cap-height="754"
    bbox="-140 -291 1233.87 990"
    underline-thickness="50"
    underline-position="-50"
    slope="-9"
    stemh="116"
    stemv="141"
    unicode-range="U+0020-FB02"
  />
<missing-glyph horiz-adv-x="611" 
d="M111 0v700h500v-700h-500zM361 395l170 255h-340zM391 350l170 -255v510zM191 50h340l-170 255zM161 605v-510l170 255z" />
    <glyph glyph-name="fi" unicode="fi" horiz-adv-x="535" 
d="M99 505h52l22 142c16 95 46 170 172 170c21 0 41 -5 60 -12l-22 -136c-8 5 -14 8 -24 8c-45 0 -48 -51 -53 -82l-14 -90h65l-18 -116h-65l-62 -389h-141l62 389h-52zM421 505h141l-80 -505h-141zM500 565c-49 0 -82 41 -74 91c8 51 55 89 106 89c49 0 80 -43 73 -91
c-8 -48 -56 -89 -105 -89z" />
    <glyph glyph-name="fl" unicode="fl" horiz-adv-x="535" 
d="M469 807h141l-128 -807h-141zM99 505h52l22 142c16 95 46 170 172 170c21 0 41 -5 60 -12l-22 -136c-8 5 -14 8 -24 8c-45 0 -48 -51 -53 -82l-14 -90h65l-18 -116h-65l-62 -389h-141l62 389h-52z" />
    <glyph glyph-name=".notdef" horiz-adv-x="611" 
d="M111 0v700h500v-700h-500zM361 395l170 255h-340zM391 350l170 -255v510zM191 50h340l-170 255zM161 605v-510l170 255z" />
    <glyph glyph-name="space" unicode=" " horiz-adv-x="245" 
 />
    <glyph glyph-name="exclam" unicode="!" horiz-adv-x="246" 
d="M316 754l-83 -528h-147l83 528h147zM151 178c52 0 88 -43 80 -95s-58 -95 -110 -95s-88 43 -80 95s58 95 110 95z" />
    <glyph glyph-name="quotedbl" unicode="&#x22;" horiz-adv-x="360" 
d="M399 463h-109l31 291h139zM216 463h-109l31 291h139z" />
    <glyph glyph-name="numbersign" unicode="#" 
d="M494 338l-16 -100h-86l-67 -238h-83l66 238h-74l-67 -238h-84l66 238h-85l16 100h98l25 94h-84l16 100h95l62 222h83l-61 -222h75l61 222h84l-62 -222h76l-16 -100h-88l-25 -94h75zM361 432h-74l-25 -94h73z" />
    <glyph glyph-name="dollar" unicode="$" 
d="M329 760l12 71h73l-12 -71c64 -10 115 -35 147 -88l-96 -90c-25 35 -58 58 -106 58c-51 0 -89 -26 -97 -79c-8 -51 26 -71 65 -88c110 -48 217 -97 193 -247c-19 -117 -107 -216 -228 -238l-14 -86h-73l14 86c-70 10 -131 35 -174 88l88 111c36 -41 72 -79 135 -79
c53 0 98 42 107 98c9 60 -33 83 -76 105c-102 50 -203 97 -181 236c19 121 104 194 223 213z" />
    <glyph glyph-name="percent" unicode="%" horiz-adv-x="858" 
d="M316 761c125 0 139 -113 122 -217c-16 -104 -66 -217 -191 -217s-139 113 -123 217c17 104 67 217 192 217zM297 647c-36 0 -49 -80 -53 -103c-3 -21 -14 -103 21 -103s50 81 53 103c4 22 14 103 -21 103zM730 427c125 0 139 -113 122 -217c-16 -104 -66 -217 -191 -217
s-139 113 -123 217c17 104 67 217 192 217zM712 313c-36 0 -50 -80 -54 -103c-3 -21 -14 -103 21 -103s50 81 53 103c4 22 15 103 -20 103zM673 754h107l-476 -754h-107z" />
    <glyph glyph-name="ampersand" unicode="&#x26;" horiz-adv-x="590" 
d="M322 497c32 16 59 45 64 80c4 22 -7 41 -31 41c-26 0 -49 -18 -53 -45c-5 -29 10 -52 20 -76zM329 146l-75 151c-23 -16 -44 -48 -48 -74c-8 -54 20 -98 68 -98c22 0 36 6 55 21zM402 0l-22 44c-42 -32 -98 -54 -147 -54c-123 0 -192 105 -173 223c14 87 65 148 140 199
c-19 47 -37 101 -28 156c16 101 104 165 202 165c89 0 165 -53 149 -150c-13 -86 -84 -152 -153 -204l75 -155c30 27 62 52 88 82l63 -107c-28 -28 -58 -52 -89 -74l-7 -5l60 -120h-158z" />
    <glyph glyph-name="quoteright" unicode="&#x2019;" horiz-adv-x="302" 
d="M245 754h150l-198 -306h-100z" />
    <glyph glyph-name="parenleft" unicode="(" horiz-adv-x="300" 
d="M274 766l125 -28c-86 -135 -145 -282 -168 -430c-23 -144 -8 -283 34 -415l-134 -29c-50 141 -64 291 -40 447c24 152 88 318 183 455z" />
    <glyph glyph-name="parenright" unicode=")" horiz-adv-x="300" 
d="M125 -136l-124 28c86 135 145 282 168 430c23 144 8 283 -34 415l133 29c51 -141 65 -291 41 -447c-25 -152 -88 -318 -184 -455z" />
    <glyph glyph-name="asterisk" unicode="*" horiz-adv-x="376" 
d="M277 754h64l-18 -119l109 63l23 -56l-115 -58l96 -59l-41 -57l-89 65l-19 -123h-64l19 123l-113 -65l-23 57l113 59l-94 58l41 56l93 -63z" />
    <glyph glyph-name="plus" unicode="+" 
d="M239 311l30 188h110l-30 -188h170l-17 -110h-170l-31 -194h-110l31 194h-169l17 110h169z" />
    <glyph glyph-name="comma" unicode="," horiz-adv-x="245" 
d="M93 162h151l-200 -306h-100z" />
    <glyph glyph-name="hyphen" unicode="-" horiz-adv-x="318" 
d="M97 397h250l-21 -133h-250z" />
    <glyph glyph-name="period" unicode="." horiz-adv-x="245" 
d="M150 178c53 0 88 -43 80 -95s-57 -95 -110 -95s-88 43 -80 95s57 95 110 95z" />
    <glyph glyph-name="slash" unicode="/" horiz-adv-x="547" 
d="M552 807h114l-547 -973h-114z" />
    <glyph glyph-name="zero" unicode="0" 
d="M366 766c181 0 172 -256 151 -389s-93 -389 -274 -389s-171 256 -150 389s92 389 273 389zM345 630c-74 0 -100 -204 -107 -253c-8 -49 -47 -253 27 -253s99 204 107 253c7 49 47 253 -27 253z" />
    <glyph glyph-name="one" unicode="1" 
d="M229 754h217l-119 -754h-145l99 624h-72z" />
    <glyph glyph-name="two" unicode="2" 
d="M268 492h-138l4 41c23 140 77 234 234 234c125 0 194 -63 173 -193c-12 -77 -49 -138 -95 -205l-163 -239h175l-21 -130h-396l219 312c51 72 125 174 138 257c6 39 3 93 -45 93c-57 0 -73 -81 -79 -122z" />
    <glyph glyph-name="three" unicode="3" 
d="M206 198l-4 -21c-4 -25 7 -59 47 -59c61 0 75 62 82 107c13 84 -12 108 -97 105l21 130c81 0 116 16 130 99c5 34 5 77 -39 77c-43 0 -57 -45 -63 -78l-2 -15h-129c13 121 72 223 211 223c122 0 179 -78 160 -197c-11 -72 -43 -149 -121 -178v-2c80 -21 100 -98 87 -179
c-22 -138 -120 -222 -258 -222c-127 0 -191 84 -165 210h140z" />
    <glyph glyph-name="four" unicode="4" 
d="M347 754h164l-72 -458h61l-18 -114h-61l-29 -182h-145l29 182h-219l18 112zM294 296l45 286h-2l-157 -286h114z" />
    <glyph glyph-name="five" unicode="5" 
d="M135 383l117 371h288l-20 -130h-184l-39 -122c151 -8 209 -101 185 -249c-25 -161 -123 -265 -290 -265c-53 0 -96 11 -140 34l46 131c23 -21 53 -35 87 -35c79 0 127 66 138 137c15 94 -42 134 -130 134c-19 0 -40 -3 -58 -6z" />
    <glyph glyph-name="six" unicode="6" 
d="M325 754h144l-190 -294l2 -2c32 25 60 41 100 41c114 0 129 -143 115 -234c-21 -135 -97 -277 -255 -277c-150 0 -185 133 -164 265c22 137 90 252 166 373zM307 367c-56 0 -81 -92 -87 -130c-6 -36 -7 -122 43 -122c57 0 79 96 85 134c6 37 10 118 -41 118z" />
    <glyph glyph-name="seven" unicode="7" 
d="M192 754h407l-403 -754h-155l334 624h-203z" />
    <glyph glyph-name="eight" unicode="8" 
d="M224 406l1 2c-65 23 -89 88 -78 159c17 111 105 199 220 199c114 0 174 -88 157 -199c-11 -71 -56 -135 -129 -160v-1c90 -30 115 -105 100 -200c-20 -124 -125 -218 -251 -218s-202 94 -182 218c15 97 63 169 162 200zM292 570c-4 -29 -9 -86 28 -86c46 0 55 57 59 85
c4 27 8 80 -33 80c-36 0 -49 -52 -54 -79zM297 334c-51 0 -73 -70 -79 -109c-7 -39 -6 -107 46 -107c51 0 75 70 81 107c5 37 1 109 -48 109z" />
    <glyph glyph-name="nine" unicode="9" 
d="M285 0h-144l191 295l-2 2c-32 -25 -61 -42 -101 -42c-114 0 -129 145 -114 235c21 135 96 276 254 276c151 0 185 -132 164 -265c-21 -136 -90 -252 -166 -372zM347 637c-57 0 -79 -94 -85 -132c-6 -36 -10 -118 41 -118c57 0 82 93 88 131c6 36 7 120 -44 119z" />
    <glyph glyph-name="colon" unicode=":" horiz-adv-x="245" 
d="M150 178c53 0 88 -43 80 -95s-57 -95 -110 -95s-88 43 -80 95s57 95 110 95zM204 515c53 0 88 -43 80 -95c-9 -52 -58 -95 -111 -95s-88 43 -79 95c8 52 57 95 110 95z" />
    <glyph glyph-name="semicolon" unicode=";" horiz-adv-x="245" 
d="M93 162h150l-199 -306h-100zM205 515c53 0 88 -43 80 -95c-9 -52 -58 -95 -111 -95s-88 43 -79 95c8 52 57 95 110 95z" />
    <glyph glyph-name="less" unicode="&#x3c;" 
d="M181 256l304 -162l-18 -111l-414 225l16 99l486 227l-18 -111z" />
    <glyph glyph-name="equal" unicode="=" 
d="M535 408l-18 -110h-449l18 110h449zM504 213l-18 -110h-449l18 110h449z" />
    <glyph glyph-name="greater" unicode="&#x3e;" 
d="M36 94l355 162l-303 167l18 111l413 -227l-16 -99l-485 -225z" />
    <glyph glyph-name="question" unicode="?" horiz-adv-x="454" 
d="M256 564l-3 -18h-141c16 127 93 220 227 220c133 0 195 -97 175 -225c-13 -82 -63 -184 -155 -207l-16 -98h-149l30 186c9 -2 16 -3 24 -3c68 0 98 65 106 119c5 32 9 98 -37 98c-37 0 -56 -41 -61 -72zM151 83c8 52 58 95 109 95c53 0 89 -43 81 -95s-58 -95 -111 -95
c-51 0 -87 43 -79 95z" />
    <glyph glyph-name="at" unicode="@" horiz-adv-x="833" 
d="M563 373c15 60 0 118 -64 113c-63 -5 -119 -62 -133 -126c-14 -65 13 -102 54 -108c73 -11 129 65 143 121zM620 518l19 53h98l-101 -306c-24 -64 123 20 148 161c32 165 -73 267 -242 267c-185 0 -337 -132 -366 -312c-31 -201 86 -320 283 -320c79 0 154 40 219 92h96
c-90 -102 -207 -165 -335 -165c-247 0 -378 160 -341 393c23 145 155 385 458 385c205 0 340 -128 311 -312c-38 -238 -256 -298 -307 -298c-25 0 -46 24 -32 62l-2 2c-49 -40 -92 -60 -133 -60c-106 0 -156 81 -140 182c19 121 121 236 250 236c53 0 94 -17 117 -60z" />
    <glyph glyph-name="A" unicode="A" horiz-adv-x="528" 
d="M302 754h157l62 -754h-159l-8 127h-151l-47 -127h-148zM351 245l-6 201l1 114h-2l-34 -114l-64 -201h105z" />
    <glyph glyph-name="B" unicode="B" horiz-adv-x="479" 
d="M333 229c10 59 -20 102 -79 100l-32 -204c59 -3 101 41 111 104zM198 0h-145l119 754h146c58 0 108 -2 150 -41c44 -40 60 -107 50 -170c-11 -67 -44 -118 -106 -156c58 -30 76 -110 66 -175c-24 -149 -144 -212 -280 -212zM377 540c8 55 -18 92 -75 89l-30 -184
c56 0 96 38 105 95z" />
    <glyph glyph-name="C" unicode="C" horiz-adv-x="452" 
d="M548 749l-22 -137c-18 5 -36 8 -55 8c-131 0 -207 -119 -225 -235c-18 -112 17 -250 147 -250c19 0 39 5 59 11l-22 -141c-24 -9 -47 -13 -71 -13c-215 0 -304 194 -272 392c29 187 184 379 387 379c26 0 50 -5 74 -14z" />
    <glyph glyph-name="D" unicode="D" horiz-adv-x="530" 
d="M186 0h-133l119 754h113c26 0 344 38 278 -383c-34 -215 -142 -371 -377 -371zM223 134c119 -6 176 144 191 238c15 96 9 248 -114 248z" />
    <glyph glyph-name="E" unicode="E" horiz-adv-x="392" 
d="M172 754h300l-22 -140h-151l-26 -164h133l-22 -140h-133l-27 -170h153l-22 -140h-302z" />
    <glyph glyph-name="F" unicode="F" horiz-adv-x="394" 
d="M172 754h301l-22 -140h-152l-25 -161h137l-22 -140h-137l-50 -313h-149z" />
    <glyph glyph-name="G" unicode="G" horiz-adv-x="563" 
d="M360 420h244l-10 -59c-25 -160 -98 -373 -301 -373s-234 218 -208 385c28 174 118 393 331 393c115 0 179 -72 194 -179l-154 -56c-1 38 -4 97 -61 97c-100 6 -139 -180 -150 -251c-13 -78 -35 -251 75 -251c76 0 104 102 112 154h-95z" />
    <glyph glyph-name="H" unicode="H" horiz-adv-x="555" 
d="M172 754h149l-46 -295h151l46 295h149l-119 -754h-149l51 319h-151l-51 -319h-149z" />
    <glyph glyph-name="I" unicode="I" horiz-adv-x="255" 
d="M172 754h149l-119 -754h-149z" />
    <glyph glyph-name="J" unicode="J" horiz-adv-x="352" 
d="M423 754l-80 -510c-10 -62 -34 -256 -221 -256c-37 0 -79 6 -108 23l23 149c15 -24 41 -42 72 -42c70 0 77 76 85 126l80 510h149z" />
    <glyph glyph-name="K" unicode="K" horiz-adv-x="513" 
d="M172 754h149l-53 -337h2l177 337h152l-194 -348l93 -406h-157l-76 384h-2l-61 -384h-149z" />
    <glyph glyph-name="L" unicode="L" horiz-adv-x="373" 
d="M172 754h149l-97 -614h156l-22 -140h-305z" />
    <glyph glyph-name="M" unicode="M" horiz-adv-x="722" 
d="M208 754h196l3 -445h2l130 445h200l-40 -754h-153l50 543h-2l-53 -186l-121 -357h-115l-16 361l2 168l2 14h-2l-108 -543h-160z" />
    <glyph glyph-name="N" unicode="N" horiz-adv-x="573" 
d="M172 754h143l114 -455l3 2c-4 36 0 75 6 114l53 339h149l-119 -754h-141l-112 455l-2 -2l-5 -76l-4 -31l-55 -346h-149z" />
    <glyph glyph-name="O" unicode="O" horiz-adv-x="582" 
d="M412 766c133 0 249 -106 204 -389s-194 -389 -327 -389s-248 106 -203 389s193 389 326 389zM245 377c-10 -60 -33 -251 66 -251s136 191 146 251c10 67 32 251 -67 251s-135 -184 -145 -251z" />
    <glyph glyph-name="P" unicode="P" horiz-adv-x="487" 
d="M202 0h-149l119 754h155c32 0 260 20 221 -223c-22 -141 -126 -222 -264 -222l-33 2zM302 631l-32 -199c72 -3 117 24 129 101c9 54 -5 98 -69 98h-28z" />
    <glyph glyph-name="Q" unicode="Q" horiz-adv-x="582" 
d="M364 307l56 -75c19 43 28 88 37 145c10 67 32 251 -67 251s-135 -184 -145 -251c-10 -60 -33 -251 66 -251c14 0 25 4 38 13l-74 93zM518 111l54 -66l-90 -74l-48 63c-45 -31 -92 -46 -145 -46c-133 0 -248 106 -203 389s193 389 326 389s249 -106 204 -389
c-14 -89 -42 -191 -98 -266z" />
    <glyph glyph-name="R" unicode="R" horiz-adv-x="530" 
d="M202 0h-149l119 754h150c95 0 264 -10 231 -216c-13 -83 -57 -154 -138 -195l77 -343h-157l-76 348h-2zM302 631l-32 -201l26 -1c68 0 102 46 112 108c9 54 -10 98 -86 94h-20z" />
    <glyph glyph-name="S" unicode="S" horiz-adv-x="440" 
d="M478 729l-23 -145c-25 26 -59 48 -100 48c-46 0 -79 -28 -87 -74c-19 -124 207 -131 174 -335c-21 -134 -114 -235 -254 -235c-42 0 -92 13 -122 38l23 142c31 -24 62 -40 106 -40c48 0 91 32 99 82c9 58 -33 80 -70 110c-77 58 -121 114 -104 224
c19 119 104 222 232 222c48 0 89 -13 126 -37z" />
    <glyph glyph-name="T" unicode="T" horiz-adv-x="414" 
d="M134 754h384l-22 -140h-118l-97 -614h-149l97 614h-117z" />
    <glyph glyph-name="U" unicode="U" horiz-adv-x="544" 
d="M168 754h149l-77 -488c-9 -57 -30 -143 51 -143c73 0 82 55 92 111l82 520h149l-87 -550c-12 -80 -43 -216 -258 -216c-139 0 -212 65 -189 206z" />
    <glyph glyph-name="V" unicode="V" horiz-adv-x="565" 
d="M127 754h160l33 -362c6 -43 4 -86 7 -129h2c15 44 24 87 43 131l148 360h156l-328 -754h-122z" />
    <glyph glyph-name="W" unicode="W" horiz-adv-x="793" 
d="M127 754h152l7 -360c1 -53 -6 -107 -9 -160h2c15 53 28 107 47 160l132 360h118l14 -520h2c13 53 23 105 40 158l116 362h156l-275 -754h-129l-14 398c2 46 1 92 1 138h-2c-15 -46 -28 -92 -46 -138l-149 -398h-130z" />
    <glyph glyph-name="X" unicode="X" horiz-adv-x="545" 
d="M141 754h168l27 -105c7 -37 16 -76 18 -115h2c14 39 32 77 52 115l61 105h161l-218 -365l111 -389h-173l-29 120c-8 38 -11 75 -15 113h-2c-17 -38 -32 -75 -51 -113l-63 -120h-168l222 389z" />
    <glyph glyph-name="Y" unicode="Y" horiz-adv-x="514" 
d="M123 754h164l46 -205l5 -37h2l26 56l96 186h167l-238 -393l-57 -361h-149l57 361z" />
    <glyph glyph-name="Z" unicode="Z" horiz-adv-x="508" 
d="M169 754h443l-355 -614h237l-22 -140h-454l348 614h-219z" />
    <glyph glyph-name="bracketleft" unicode="[" horiz-adv-x="320" 
d="M172 754h251l-15 -98h-121l-108 -682h123l-16 -98h-253z" />
    <glyph glyph-name="backslash" unicode="\" horiz-adv-x="250" 
d="M0 807h114l239 -973h-114z" />
    <glyph glyph-name="bracketright" unicode="]" horiz-adv-x="320" 
d="M135 754h251l-139 -878h-253l16 98h123l108 682h-121z" />
    <glyph glyph-name="asciicircum" unicode="^" 
d="M173 330l-92 47l223 377h120l106 -377l-108 -47l-79 291z" />
    <glyph glyph-name="underscore" unicode="_" horiz-adv-x="500" 
d="M-12 -75h500l-8 -50h-500z" />
    <glyph glyph-name="quoteleft" unicode="&#x2018;" horiz-adv-x="302" 
d="M247 448h-150l198 306h100z" />
    <glyph glyph-name="a" unicode="a" horiz-adv-x="433" 
d="M238 119c45 0 66 109 70 136c5 28 19 135 -29 135c-47 0 -67 -106 -72 -135c-5 -32 -19 -136 31 -136zM258 0l9 57h-2c-12 -19 -27 -36 -44 -48c-18 -12 -37 -19 -60 -19c-114 0 -108 182 -95 263c14 87 59 262 177 262c47 0 74 -31 83 -72h2l10 62h141l-80 -505h-141z
" />
    <glyph glyph-name="b" unicode="b" horiz-adv-x="433" 
d="M35 0l128 807h141l-58 -364h2c12 21 27 39 44 51c18 13 39 21 62 21c119 0 107 -175 93 -262c-13 -81 -63 -263 -178 -263c-46 0 -70 29 -82 67h-2l-9 -57h-141zM234 119c48 0 67 104 72 136c5 29 18 135 -28 135c-48 0 -67 -107 -72 -135c-4 -27 -18 -136 28 -136z" />
    <glyph glyph-name="c" unicode="c" horiz-adv-x="315" 
d="M314 137l-21 -129c-28 -12 -55 -18 -84 -18c-137 0 -162 144 -144 259c21 127 93 266 239 266c25 0 46 -5 67 -15l-19 -124c-12 12 -22 16 -39 16c-69 0 -97 -83 -105 -135c-9 -54 -11 -135 60 -135c16 0 31 6 46 15z" />
    <glyph glyph-name="d" unicode="d" horiz-adv-x="433" 
d="M258 0l9 57h-2c-12 -19 -27 -36 -44 -48c-18 -12 -37 -19 -60 -19c-114 0 -108 182 -95 263c14 87 59 262 177 262c47 0 74 -31 83 -72h2l58 364h141l-128 -807h-141zM238 119c45 0 66 109 70 136c5 28 19 135 -29 135c-47 0 -67 -106 -72 -135c-5 -32 -19 -136 31 -136z
" />
    <glyph glyph-name="e" unicode="e" horiz-adv-x="414" 
d="M314 302l2 12c5 33 7 93 -37 93c-43 0 -61 -58 -66 -90l-2 -15h103zM431 273l-12 -58h-223c-5 -37 -19 -117 35 -117c36 0 49 28 54 58h120c-14 -46 -34 -88 -65 -118c-30 -30 -70 -48 -122 -48c-143 0 -173 127 -154 252c19 121 88 273 235 273c93 0 165 -83 132 -242z
" />
    <glyph glyph-name="f" unicode="f" horiz-adv-x="299" 
d="M99 505h52l22 142c16 95 46 170 172 170c21 0 41 -5 60 -12l-22 -136c-8 5 -14 8 -24 8c-45 0 -48 -51 -53 -82l-14 -90h65l-18 -116h-65l-62 -389h-141l62 389h-52z" />
    <glyph glyph-name="g" unicode="g" horiz-adv-x="437" 
d="M239 119c45 0 65 109 69 136c5 28 20 135 -28 135s-68 -106 -73 -135c-5 -32 -19 -136 32 -136zM20 -67h125c-3 -32 0 -72 40 -72c63 0 69 95 76 138l10 64h-2c-12 -18 -26 -37 -42 -50c-16 -14 -36 -23 -61 -23c-52 0 -80 41 -95 84c-17 50 -15 115 -6 171
c14 88 59 270 179 270c47 0 76 -31 85 -71h2l10 61h141l-87 -549c-23 -148 -99 -207 -222 -207c-120 0 -164 69 -153 184z" />
    <glyph glyph-name="h" unicode="h" horiz-adv-x="424" 
d="M163 807h141l-60 -380h2c26 48 76 88 131 88c104 0 76 -116 65 -189l-52 -326h-141l44 277c4 26 25 96 -20 96c-32 0 -43 -33 -47 -58l-50 -315h-141z" />
    <glyph glyph-name="i" unicode="i" horiz-adv-x="209" 
d="M114 505h141l-80 -505h-141zM193 565c-49 0 -82 41 -74 91c8 51 55 89 106 89c49 0 80 -43 73 -91c-8 -48 -56 -89 -105 -89z" />
    <glyph glyph-name="j" unicode="j" horiz-adv-x="209" 
d="M114 505h141l-119 -754h-141zM193 565c-49 0 -82 41 -74 91c8 51 55 89 106 89c49 0 80 -43 73 -91c-8 -48 -56 -89 -105 -89z" />
    <glyph glyph-name="k" unicode="k" horiz-adv-x="440" 
d="M163 807h141l-76 -479h2l105 177h153l-147 -206l92 -299h-155l-63 234h-2l-37 -234h-141z" />
    <glyph glyph-name="l" unicode="l" horiz-adv-x="210" 
d="M163 807h141l-128 -807h-141z" />
    <glyph glyph-name="m" unicode="m" horiz-adv-x="639" 
d="M256 505l-12 -81h2c32 49 79 91 139 91c52 0 73 -40 73 -86h2c30 45 81 86 135 86c91 0 75 -101 64 -166l-55 -349h-141l43 274c5 26 23 100 -19 100c-33 0 -43 -34 -47 -57l-50 -317h-141l45 283c4 25 21 89 -19 89c-35 0 -45 -32 -49 -58l-50 -314h-141l80 505h141z
" />
    <glyph glyph-name="n" unicode="n" horiz-adv-x="424" 
d="M256 505l-12 -78h2c26 48 76 88 131 88c104 0 76 -116 65 -189l-52 -326h-141l44 277c4 26 25 96 -20 96c-32 0 -43 -33 -47 -58l-50 -315h-141l80 505h141z" />
    <glyph glyph-name="o" unicode="o" horiz-adv-x="436" 
d="M300 515c151 0 170 -134 150 -263c-21 -129 -83 -262 -234 -262s-171 133 -150 262c20 129 83 263 234 263zM279 388c-49 0 -67 -107 -72 -136s-20 -136 29 -136s68 107 73 136s19 136 -30 136z" />
    <glyph glyph-name="p" unicode="p" horiz-adv-x="433" 
d="M234 119c50 0 67 104 72 136c5 29 18 135 -28 135c-48 0 -67 -107 -72 -135c-4 -27 -18 -136 28 -136zM256 505l-10 -62h2c12 21 27 39 44 51c18 13 39 21 62 21c119 0 107 -175 93 -262c-13 -81 -63 -263 -178 -263c-46 0 -70 29 -82 67h-2l-48 -306h-141l119 754h141z
" />
    <glyph glyph-name="q" unicode="q" horiz-adv-x="433" 
d="M479 505l-119 -754h-141l48 306h-2c-12 -19 -27 -36 -44 -48c-18 -12 -37 -19 -60 -19c-114 0 -108 182 -95 263c14 87 59 262 177 262c47 0 74 -31 83 -72h2l10 62h141zM238 119c45 0 66 109 70 136c5 28 19 135 -29 135c-47 0 -67 -106 -72 -135
c-5 -32 -19 -136 31 -136z" />
    <glyph glyph-name="r" unicode="r" horiz-adv-x="315" 
d="M115 505h141l-10 -61h2c33 44 72 75 128 80l-22 -137c-7 1 -13 2 -21 2c-94 0 -105 -62 -117 -137l-40 -252h-141z" />
    <glyph glyph-name="s" unicode="s" horiz-adv-x="376" 
d="M421 472l-74 -103c-17 18 -33 33 -62 33c-25 0 -41 -15 -44 -37c-8 -59 153 -47 129 -198c-15 -100 -86 -177 -190 -177c-54 0 -106 23 -142 58l77 100c19 -18 37 -33 65 -33c22 0 44 16 48 42c12 67 -153 50 -128 210c15 96 104 148 193 148c51 0 92 -13 128 -43z" />
    <glyph glyph-name="t" unicode="t" horiz-adv-x="308" 
d="M181 645h141l-22 -140h58l-18 -116h-58l-62 -389h-141l62 389h-49l18 116h49z" />
    <glyph glyph-name="u" unicode="u" horiz-adv-x="423" 
d="M115 505h141l-44 -277c-4 -28 -28 -106 19 -106c38 0 43 50 47 75l50 308h140l-51 -322c-19 -117 -86 -193 -211 -193c-160 0 -154 120 -139 212z" />
    <glyph glyph-name="v" unicode="v" horiz-adv-x="452" 
d="M95 505h140l23 -277v-8h2l19 52l92 233h146l-226 -505h-131z" />
    <glyph glyph-name="w" unicode="w" horiz-adv-x="694" 
d="M95 505h137l21 -296h2l113 296h121l17 -296h2l19 54l98 242h134l-220 -505h-116l-19 171l-7 146h-2l-54 -161l-65 -156h-118z" />
    <glyph glyph-name="x" unicode="x" horiz-adv-x="489" 
d="M122 505h146l28 -77l10 -31l74 108h146l-166 -233l106 -272h-149l-52 139l-97 -139h-145l188 272z" />
    <glyph glyph-name="y" unicode="y" horiz-adv-x="452" 
d="M95 505h142l21 -204l3 -84h2l112 288h142l-336 -754h-139l122 259z" />
    <glyph glyph-name="z" unicode="z" horiz-adv-x="401" 
d="M119 505h339l-217 -388h139l-19 -117h-338l221 388h-144z" />
    <glyph glyph-name="braceleft" unicode="{" horiz-adv-x="300" 
d="M283 -124h-65c-120 0 -137 51 -120 155l22 138c9 61 0 106 -58 106l12 76c58 0 83 53 91 106l26 162c14 91 53 135 144 135h87l-12 -76c-67 0 -86 -42 -95 -100l-21 -132c-12 -73 -33 -115 -103 -131v-2c69 -12 70 -76 59 -142l-19 -119c-8 -53 -3 -100 64 -100z" />
    <glyph glyph-name="bar" unicode="|" horiz-adv-x="416" 
d="M211 875h116v-1166h-116v1166z" />
    <glyph glyph-name="braceright" unicode="}" horiz-adv-x="300" 
d="M42 -124h-65l12 76c67 0 88 47 96 100l19 119c11 66 32 130 105 142v2c-66 16 -73 58 -61 131l21 132c9 58 2 100 -65 100l12 76h87c91 0 116 -44 102 -135l-26 -162c-8 -53 1 -106 59 -106l-12 -76c-58 0 -83 -45 -92 -106l-22 -138c-17 -104 -50 -155 -170 -155z" />
    <glyph glyph-name="asciitilde" unicode="~" 
d="M471 359l44 -73c-39 -54 -81 -117 -147 -117c-60 0 -144 66 -176 66c-41 0 -66 -48 -90 -82l-45 74c37 57 88 124 153 124s134 -66 176 -66c37 0 61 44 85 74z" />
    <glyph glyph-name="exclamdown" unicode="&#xa1;" horiz-adv-x="246" 
d="M157 -249h-147l83 528h147zM205 518c52 0 88 -43 80 -95s-58 -95 -110 -95s-88 43 -80 95s58 95 110 95z" />
    <glyph glyph-name="cent" unicode="&#xa2;" 
d="M222 51l10 65c-100 32 -116 144 -100 243c16 104 64 239 183 276l11 69h65l-10 -63c19 -2 39 -6 56 -14l-20 -127c-10 8 -20 15 -34 15c-65 0 -96 -96 -103 -145c-8 -47 -7 -125 55 -125c16 0 29 5 44 13l-20 -127c-21 -9 -41 -14 -62 -18l-10 -62h-65z" />
    <glyph glyph-name="sterling" unicode="&#xa3;" 
d="M44 0l18 113c51 45 79 105 86 167h-93l13 77h86c4 61 -6 119 4 181c21 131 114 222 248 222c145 0 182 -93 159 -225h-128l3 16c6 38 3 86 -44 86c-57 0 -84 -52 -91 -95c-10 -62 0 -123 -7 -185h127l-13 -77h-130c-12 -55 -36 -110 -72 -158l21 1c52 0 98 -20 151 -20
c38 0 78 8 113 25l-18 -118c-29 -15 -61 -21 -91 -21c-81 0 -151 29 -231 29c-40 0 -72 -6 -111 -18z" />
    <glyph glyph-name="fraction" unicode="&#x2044;" horiz-adv-x="166" 
d="M339 754h86l-478 -754h-87z" />
    <glyph glyph-name="yen" unicode="&#xa5;" 
d="M617 754l-172 -286h75l-10 -66h-105l-25 -41l-7 -43h123l-10 -66h-123l-40 -252h-151l40 252h-124l10 66h124l7 43l-12 41h-105l10 66h75l-86 286h164l40 -245l5 -37h2l128 282h167z" />
    <glyph glyph-name="florin" unicode="&#x192;" 
d="M610 747l-38 -103c-12 7 -25 12 -40 12c-72 0 -82 -72 -99 -126l-10 -31h111l-15 -95h-124l-95 -295c-23 -71 -53 -161 -96 -224c-32 -46 -88 -70 -137 -70c-30 0 -58 5 -85 12l34 110c22 -19 64 -23 85 9c17 24 27 52 36 80l125 378h-111l15 95h126l28 78
c35 99 93 186 208 186c26 0 52 -7 76 -14c1 -1 4 -1 6 -2z" />
    <glyph glyph-name="section" unicode="&#xa7;" horiz-adv-x="491" 
d="M294 211l10 -7c37 12 65 39 71 75c10 59 -48 83 -87 108l-21 13c-31 -17 -51 -40 -56 -72c-10 -63 40 -89 83 -117zM190 10l-2 -13c-7 -42 3 -72 55 -72c34 0 53 31 59 67c10 65 -35 88 -81 119c-77 51 -156 89 -142 200c9 55 42 108 102 145c-32 28 -47 78 -39 130
c22 127 119 180 219 180c121 0 186 -65 167 -188l-4 -21h-133l4 23c7 42 -4 79 -53 79c-41 0 -62 -26 -67 -62c1 -67 57 -91 103 -118c78 -45 143 -76 129 -185c-8 -68 -50 -123 -117 -158c45 -34 60 -93 50 -153c-17 -109 -114 -165 -215 -165c-109 0 -194 56 -175 173
l3 19h137z" />
    <glyph glyph-name="currency" unicode="&#xa4;" 
d="M26 137l49 44c-17 43 -23 77 -15 128c8 49 25 88 55 129l-35 42l89 80l35 -43c39 22 88 38 129 38c44 0 87 -14 121 -38l50 43l59 -80l-48 -42c18 -40 24 -80 16 -128c-7 -45 -25 -92 -56 -129l34 -44l-85 -79l-36 43c-42 -23 -85 -38 -129 -38c-45 0 -87 13 -121 38
l-49 -43zM316 437c-66 0 -128 -62 -138 -127s32 -129 98 -129c67 0 127 64 137 129s-30 127 -97 127z" />
    <glyph glyph-name="quotesingle" unicode="'" horiz-adv-x="250" 
d="M253 463h-109l31 291h139z" />
    <glyph glyph-name="quotedblleft" unicode="&#x201c;" horiz-adv-x="491" 
d="M436 448h-150l198 306h100zM247 448h-150l198 306h100z" />
    <glyph glyph-name="guillemotleft" unicode="&#xab;" horiz-adv-x="433" 
d="M489 525l-134 -195l73 -189l-83 -43l-94 232l167 234zM316 525l-133 -195l72 -189l-82 -43l-95 232l168 234z" />
    <glyph glyph-name="guilsinglleft" unicode="&#x2039;" horiz-adv-x="260" 
d="M79 332l166 232l71 -43l-133 -189l72 -195l-83 -39z" />
    <glyph glyph-name="guilsinglright" unicode="&#x203a;" horiz-adv-x="260" 
d="M193 564l94 -232l-167 -234l-71 39l134 195l-73 189z" />
    <glyph glyph-name="endash" unicode="&#x2013;" horiz-adv-x="500" 
d="M63 397h500l-21 -133h-500z" />
    <glyph glyph-name="dagger" unicode="&#x2020;" horiz-adv-x="491" 
d="M296 754h137l-38 -241h128l-20 -128h-128l-87 -549h-137l87 549h-127l20 128h127z" />
    <glyph glyph-name="daggerdbl" unicode="&#x2021;" 
d="M295 754h137l-34 -216h127l-20 -128h-127l-27 -172h127l-21 -128h-127l-43 -274h-137l43 274h-126l21 128h126l27 172h-126l20 128h126z" />
    <glyph glyph-name="periodcentered" unicode="&#xb7;" horiz-adv-x="245" 
d="M178 351c53 0 88 -43 80 -95c-9 -52 -57 -95 -110 -95s-89 43 -80 95c8 52 57 95 110 95z" />
    <glyph glyph-name="paragraph" unicode="&#xb6;" horiz-adv-x="600" 
d="M353 -112l119 748h-68l-119 -748h-118l82 517c-104 0 -146 71 -130 171c22 135 103 178 228 178h303l-18 -118h-42l-119 -748h-118z" />
    <glyph glyph-name="bullet" unicode="&#x2022;" horiz-adv-x="420" 
d="M298 559c104 0 175 -84 159 -187c-17 -105 -115 -190 -219 -190c-105 0 -175 85 -158 190c16 103 113 187 218 187z" />
    <glyph glyph-name="quotesinglbase" unicode="&#x201a;" horiz-adv-x="303" 
d="M152 162h151l-200 -306h-100z" />
    <glyph glyph-name="quotedblbase" unicode="&#x201e;" horiz-adv-x="491" 
d="M152 162h150l-199 -306h-100zM341 162h150l-199 -306h-100z" />
    <glyph glyph-name="quotedblright" unicode="&#x201d;" horiz-adv-x="491" 
d="M245 754h150l-198 -306h-100zM434 754h150l-198 -306h-100z" />
    <glyph glyph-name="guillemotright" unicode="&#xbb;" horiz-adv-x="433" 
d="M192 564l94 -234l-167 -232l-70 43l132 189l-71 195zM365 564l94 -234l-167 -232l-70 43l132 189l-71 195z" />
    <glyph glyph-name="ellipsis" unicode="&#x2026;" horiz-adv-x="1000" 
d="M165 -12c-53 0 -88 43 -80 95s57 95 110 95s88 -43 80 -95s-57 -95 -110 -95zM498 -12c-53 0 -88 43 -80 95s57 95 110 95s88 -43 80 -95s-57 -95 -110 -95zM831 -12c-53 0 -88 43 -80 95s57 95 110 95s88 -43 80 -95s-57 -95 -110 -95z" />
    <glyph glyph-name="perthousand" unicode="&#x2030;" horiz-adv-x="1234" 
d="M316 761c125 0 139 -113 122 -217c-16 -104 -66 -217 -191 -217s-139 113 -123 217c17 104 67 217 192 217zM297 647c-36 0 -49 -80 -53 -103c-3 -21 -14 -103 21 -103s50 81 53 103c4 22 14 103 -21 103zM661 -7c-125 0 -139 113 -123 217c17 104 67 217 192 217
s139 -113 122 -217c-16 -104 -66 -217 -191 -217zM679 107c35 0 50 81 53 103c4 22 15 103 -20 103c-36 0 -50 -80 -54 -103c-3 -21 -14 -103 21 -103zM1037 -7c-125 0 -139 113 -123 217c17 104 67 217 192 217s139 -113 122 -217c-16 -104 -66 -217 -191 -217zM1055 107
c35 0 50 81 53 103c4 22 15 103 -20 103c-36 0 -50 -80 -54 -103c-3 -21 -14 -103 21 -103zM304 0h-107l476 754h107z" />
    <glyph glyph-name="questiondown" unicode="&#xbf;" horiz-adv-x="454" 
d="M191 269h149l-30 -186c-9 2 -16 3 -24 3c-68 0 -98 -65 -106 -119c-5 -32 -9 -98 37 -98c37 0 56 41 61 72l3 18h141c-16 -127 -93 -220 -227 -220c-133 0 -195 97 -175 225c13 82 63 184 155 207zM304 518c53 0 89 -43 81 -95s-58 -95 -111 -95c-51 0 -87 43 -79 95
s58 95 109 95z" />
    <glyph glyph-name="grave" unicode="`" horiz-adv-x="300" 
d="M272 754l74 -144l-76 -40l-107 138z" />
    <glyph glyph-name="acute" unicode="&#xb4;" horiz-adv-x="300" 
d="M266 754l95 -46l-151 -138l-62 40z" />
    <glyph glyph-name="circumflex" unicode="&#x2c6;" horiz-adv-x="300" 
d="M267 748l127 -121l-71 -62l-73 70l-100 -70l-43 70z" />
    <glyph glyph-name="tilde" unicode="&#x2dc;" horiz-adv-x="300" 
d="M355 740l74 -5c-19 -60 -46 -133 -121 -133c-27 0 -51 11 -74 22c-13 6 -24 13 -40 13c-20 0 -31 -14 -37 -32h-73c15 60 40 133 115 133c53 0 77 -38 114 -38c26 0 37 18 42 40z" />
    <glyph glyph-name="macron" unicode="&#xaf;" horiz-adv-x="300" 
d="M428 666h-346l12 74h346z" />
    <glyph glyph-name="breve" unicode="&#x2d8;" horiz-adv-x="300" 
d="M377 780h65c-27 -94 -97 -145 -191 -145c-108 0 -161 61 -145 145h65c-3 -48 33 -70 86 -70c71 0 105 22 120 70z" />
    <glyph glyph-name="dotaccent" unicode="&#x2d9;" horiz-adv-x="300" 
d="M329 659c-6 -40 -45 -73 -86 -73c-40 0 -69 33 -63 73c7 42 45 76 88 76c41 0 68 -35 61 -76z" />
    <glyph glyph-name="dieresis" unicode="&#xa8;" horiz-adv-x="300" 
d="M225 659c-6 -40 -45 -73 -86 -73c-40 0 -69 33 -63 73c7 42 45 76 88 76c41 0 68 -35 61 -76zM433 659c-6 -40 -45 -73 -86 -73c-40 0 -69 33 -63 73c7 42 45 76 88 76c41 0 68 -35 61 -76z" />
    <glyph glyph-name="ring" unicode="&#x2da;" horiz-adv-x="300" 
d="M238 549c-60 0 -101 48 -92 109c10 61 66 108 127 108c60 0 98 -51 89 -110c-9 -58 -65 -107 -124 -107zM248 615c22 0 44 19 48 41c4 24 -11 44 -34 44c-24 0 -46 -18 -50 -43c-4 -24 12 -42 36 -42z" />
    <glyph glyph-name="cedilla" unicode="&#xb8;" horiz-adv-x="300" 
d="M136 -48l85 -36l-127 -134l-57 32z" />
    <glyph glyph-name="hungarumlaut" unicode="&#x2dd;" horiz-adv-x="300" 
d="M173 754l95 -46l-151 -138l-62 40zM359 754l95 -46l-151 -138l-62 40z" />
    <glyph glyph-name="ogonek" unicode="&#x2db;" horiz-adv-x="300" 
d="M227 -104l-14 -86c-13 -6 -45 -15 -76 -15c-61 0 -112 31 -101 99c8 48 60 81 100 106h68v-2c-34 -16 -71 -49 -75 -76c-4 -25 14 -44 39 -44c18 0 41 12 59 18z" />
    <glyph glyph-name="caron" unicode="&#x2c7;" horiz-adv-x="300" 
d="M241 565l-126 121l70 62l74 -70l99 70l44 -70z" />
    <glyph glyph-name="emdash" unicode="&#x2014;" horiz-adv-x="1000" 
d="M193 397h740l-21 -133h-740z" />
    <glyph glyph-name="AE" unicode="&#xc6;" horiz-adv-x="674" 
d="M350 244l-9 143l3 172h-2l-99 -315h107zM364 0l-8 126h-157l-43 -126h-148l290 754h307l10 -140h-149l15 -156h149l11 -140h-147l14 -178h145l13 -140h-302z" />
    <glyph glyph-name="ordfeminine" unicode="&#xaa;" horiz-adv-x="300" 
d="M298 760h93l-48 -303h-93l6 34h-2c-15 -23 -36 -40 -66 -40c-72 0 -72 104 -64 158c9 52 36 157 113 157c31 0 48 -19 55 -43h1zM261 690c-30 0 -42 -63 -44 -80c-3 -19 -13 -83 20 -83c29 0 43 67 46 83c2 17 10 80 -22 80z" />
    <glyph glyph-name="Lslash" unicode="&#x141;" horiz-adv-x="373" 
d="M172 754h149l-39 -250l89 56l-18 -110l-89 -58l-40 -252h156l-22 -140h-305l46 288l-60 -40l19 120l60 40z" />
    <glyph glyph-name="Oslash" unicode="&#xd8;" horiz-adv-x="582" 
d="M246 382l-11 -107h2l222 290c-9 33 -28 63 -68 63c-102 0 -135 -181 -145 -246zM454 361l14 107h-2l-220 -285c10 -31 33 -57 68 -57c92 0 130 171 140 235zM617 760l52 -34l-66 -85c32 -76 26 -180 12 -267c-49 -314 -223 -386 -325 -386c-60 0 -113 26 -152 63l-46 -58
l-52 37l62 78c-36 80 -31 179 -16 271c28 174 119 387 331 387c60 0 115 -26 151 -68z" />
    <glyph glyph-name="OE" unicode="&#x152;" horiz-adv-x="745" 
d="M397 0l9 57h-2c-36 -43 -88 -69 -142 -69c-195 0 -201 230 -177 383c25 159 105 395 309 395c47 0 91 -18 114 -54h2l6 42h309l-22 -140h-161l-25 -158h144l-22 -140h-144l-28 -176h162l-22 -140h-310zM456 378c11 69 39 254 -63 254c-101 0 -137 -185 -148 -254
c-11 -68 -33 -256 67 -256c101 0 133 187 144 256z" />
    <glyph glyph-name="ordmasculine" unicode="&#xba;" horiz-adv-x="300" 
d="M271 766c98 0 113 -80 100 -158c-12 -76 -52 -157 -150 -157s-112 81 -100 157c13 78 52 158 150 158zM259 690c-32 0 -43 -64 -46 -82c-2 -15 -11 -81 20 -81s44 66 46 81c3 18 12 82 -20 82z" />
    <glyph glyph-name="ae" unicode="&#xe6;" horiz-adv-x="640" 
d="M437 302h103l2 12c5 33 7 93 -37 93c-43 0 -61 -58 -66 -90zM645 215h-223c-5 -37 -19 -117 35 -117c36 0 49 28 54 58h120c-14 -46 -34 -88 -65 -118c-30 -30 -70 -48 -122 -48c-53 0 -93 21 -116 62c-42 -39 -84 -62 -139 -62c-99 0 -155 61 -139 161
c14 88 86 152 175 152c24 0 55 -3 72 -18c11 64 12 114 -65 114c-35 0 -69 -11 -103 -26l19 121c39 13 79 21 119 21c60 0 108 -17 127 -74c33 49 79 74 131 74c93 0 165 -83 132 -242zM222 94c30 0 58 24 62 54c5 29 -16 53 -44 53s-57 -23 -61 -51c-5 -29 12 -56 43 -56z
" />
    <glyph glyph-name="dotlessi" unicode="&#x131;" horiz-adv-x="209" 
d="M114 505h141l-80 -505h-141z" />
    <glyph glyph-name="lslash" unicode="&#x142;" horiz-adv-x="210" 
d="M35 0l53 336l-73 -51l16 99l73 51l59 372h141l-43 -273l72 52l-16 -97l-72 -53l-69 -436h-141z" />
    <glyph glyph-name="oslash" unicode="&#xf8;" horiz-adv-x="436" 
d="M207 255c-5 -31 -18 -138 32 -138c45 0 66 108 70 134c5 31 18 137 -32 137c-46 0 -65 -106 -70 -133zM400 482l34 44l46 -32l-45 -58c24 -59 25 -122 15 -184c-20 -123 -86 -262 -231 -262c-43 0 -75 11 -105 36l-34 -44l-46 34l45 60c-21 52 -22 121 -12 181
c18 116 86 258 232 258c36 0 76 -9 101 -33z" />
    <glyph glyph-name="oe" unicode="&#x153;" horiz-adv-x="653" 
d="M450 302h103l2 12c5 33 7 93 -37 93c-43 0 -61 -58 -66 -90zM457 -10c-58 0 -101 20 -130 55c-33 -37 -77 -55 -122 -55c-133 0 -159 137 -139 262s90 263 223 263c56 0 92 -18 115 -50c40 34 74 50 134 50c93 0 165 -83 132 -242l-12 -58h-223c-5 -37 -19 -117 35 -117
c36 0 49 28 54 58h120c-14 -46 -34 -88 -65 -118c-30 -30 -70 -48 -122 -48zM307 255c5 28 20 136 -27 136c-49 0 -68 -110 -73 -139s-20 -138 29 -138c46 0 67 114 71 141z" />
    <glyph glyph-name="germandbls" unicode="&#xdf;" horiz-adv-x="478" 
d="M151 505l8 52c12 75 22 260 225 260c138 0 166 -100 149 -206c-10 -64 -32 -133 -102 -159c69 -41 73 -126 60 -205c-18 -114 -60 -254 -204 -254c-15 0 -29 3 -43 6l20 127c59 -2 69 91 76 130c6 38 19 128 -35 130l20 127c48 5 52 47 57 82c4 26 15 95 -25 95
c-45 0 -47 -73 -52 -101l-93 -589h-141l62 389h-52l18 116h52z" />
    <glyph glyph-name="onesuperior" unicode="&#xb9;" horiz-adv-x="294" 
d="M176 754h149l-71 -448h-102l59 370h-47z" />
    <glyph glyph-name="logicalnot" unicode="&#xac;" 
d="M378 112l29 186h-339l18 110h449l-47 -296h-110z" />
    <glyph glyph-name="mu" unicode="&#xb5;" horiz-adv-x="423" 
d="M328 505h141l-52 -326c-11 -73 -21 -189 -125 -189c-55 0 -91 40 -103 88h-2l-51 -327h-141l119 754h141l-50 -315c-4 -25 -3 -58 29 -58c45 0 46 70 50 96z" />
    <glyph glyph-name="trademark" unicode="&#x2122;" horiz-adv-x="800" 
d="M893 754l-64 -404h-80l52 326h-2l-157 -326h-47l-53 326h-2l-52 -326h-80l64 404h129l44 -239h2l117 239h129zM429 754l-12 -78h-115l-52 -326h-80l52 326h-114l12 78h309z" />
    <glyph glyph-name="Eth" unicode="&#xd0;" horiz-adv-x="530" 
d="M186 0h-133l49 310h-53l22 139h53l48 305h113c26 0 344 38 278 -383c-34 -215 -142 -371 -377 -371zM414 372c15 96 9 248 -114 248l-27 -170h53l-22 -140h-53l-28 -176c119 -6 176 144 191 238z" />
    <glyph glyph-name="onehalf" unicode="&#xbd;" horiz-adv-x="735" 
d="M581 754h86l-478 -754h-87zM175 754h149l-71 -448h-102l59 370h-47zM676 0h-263l139 182c32 43 79 105 87 154c4 24 0 52 -28 52c-34 0 -43 -44 -46 -69l-4 -29h-95l2 25c13 80 48 140 154 140c87 0 128 -38 116 -116c-8 -46 -30 -82 -60 -123l-106 -134h117z" />
    <glyph glyph-name="plusminus" unicode="&#xb1;" 
d="M252 394l22 134h110l-22 -134h170l-17 -110h-170l-21 -134h-110l21 134h-169l17 110h169zM21 0l17 110h449l-17 -110h-449z" />
    <glyph glyph-name="Thorn" unicode="&#xde;" horiz-adv-x="487" 
d="M202 0h-149l119 754h149l-22 -140c38 0 265 20 227 -223c-22 -141 -126 -222 -264 -222l-33 2zM280 491l-32 -199c72 -3 117 24 129 101c9 54 -5 98 -69 98h-28z" />
    <glyph glyph-name="onequarter" unicode="&#xbc;" horiz-adv-x="735" 
d="M549 0l17 106h-145l11 70l173 272h117l-42 -262h38l-12 -80h-38l-17 -106h-102zM608 754h86l-478 -754h-87zM172 754h149l-71 -448h-102l59 370h-47zM578 186l26 164h-2l-96 -164h72z" />
    <glyph glyph-name="divide" unicode="&#xf7;" 
d="M53 201l17 110h449l-17 -110h-449zM369 384h-127l18 115h127zM310 13h-127l18 115h127z" />
    <glyph glyph-name="brokenbar" unicode="&#xa6;" horiz-adv-x="416" 
d="M211 788h116v-408h-116v408zM211 204h116v-407h-116v407z" />
    <glyph glyph-name="degree" unicode="&#xb0;" horiz-adv-x="400" 
d="M321 766c82 0 140 -68 127 -150c-14 -83 -92 -150 -174 -150c-83 0 -140 67 -126 150c12 82 90 150 173 150zM309 687c-39 0 -77 -32 -82 -71c-7 -40 20 -71 60 -71c39 0 75 31 82 71c6 39 -20 71 -60 71z" />
    <glyph glyph-name="thorn" unicode="&#xfe;" horiz-adv-x="433" 
d="M288 707l-42 -264h2c12 21 27 39 44 51c18 13 39 21 62 21c119 0 107 -175 93 -262c-13 -81 -63 -263 -178 -263c-46 0 -70 29 -82 67h-2l-48 -306h-141l151 956h141zM234 119c50 0 67 104 72 136c5 29 18 135 -28 135c-48 0 -67 -107 -72 -135c-4 -27 -18 -136 28 -136z
" />
    <glyph glyph-name="threequarters" unicode="&#xbe;" horiz-adv-x="735" 
d="M669 0h-102l17 106h-145l11 70l173 272h117l-42 -262h38l-12 -80h-38zM596 184l26 162h-2l-96 -162h72zM651 754h86l-478 -754h-87zM193 425l-2 -13c-3 -21 3 -43 26 -43c37 0 47 45 51 72c7 48 -9 63 -60 61l12 76c50 0 72 10 80 59c3 20 3 49 -22 49s-35 -30 -38 -50
l-2 -9h-90c6 40 19 73 41 97c22 23 55 37 99 37c82 0 119 -47 108 -118c-7 -42 -27 -88 -77 -105v-2c52 -12 66 -58 58 -104c-13 -83 -76 -133 -169 -133c-86 0 -128 50 -112 126h97z" />
    <glyph glyph-name="twosuperior" unicode="&#xb2;" horiz-adv-x="294" 
d="M213 596h-95l2 25c13 80 49 140 155 140c87 0 128 -38 115 -116c-7 -46 -30 -82 -59 -123l-107 -134h117l-13 -82h-263l139 182c32 43 80 105 88 154c3 24 0 52 -28 52c-34 0 -43 -44 -47 -69z" />
    <glyph glyph-name="registered" unicode="&#xae;" horiz-adv-x="830" 
d="M414 -12c-218 0 -366 174 -332 391c34 215 237 387 455 387c217 0 365 -172 331 -387c-34 -217 -237 -391 -454 -391zM426 61c174 1 336 143 364 318c27 173 -90 314 -264 314c-177 0 -339 -141 -366 -314c-28 -175 89 -317 266 -318zM563 347l74 -180h-97l-65 180h-83
l-29 -180h-83l68 425h205c36 0 83 -1 111 -21c34 -25 40 -66 33 -110c-12 -77 -58 -109 -134 -114zM402 410h124c47 -1 82 10 90 64c9 55 -51 55 -92 55h-103z" />
    <glyph glyph-name="minus" unicode="&#x2212;" 
d="M53 201l17 110h449l-17 -110h-449z" />
    <glyph glyph-name="eth" unicode="&#xf0;" horiz-adv-x="436" 
d="M207 252c-5 -29 -20 -136 29 -136s68 107 73 136s19 136 -30 136s-67 -107 -72 -136zM174 576l-24 62l89 43c-15 32 -32 60 -50 86l113 53c18 -25 34 -53 51 -83l93 45l29 -60l-93 -45c58 -126 91 -278 68 -425c-19 -120 -83 -263 -234 -263s-171 134 -150 263
c20 124 78 256 224 256c7 0 16 -1 26 -4c-17 41 -32 81 -49 117z" />
    <glyph glyph-name="multiply" unicode="&#xd7;" 
d="M397 29l-126 149l-167 -144l-65 78l167 144l-122 144l91 78l121 -144l173 149l65 -78l-172 -149l125 -149z" />
    <glyph glyph-name="threesuperior" unicode="&#xb3;" horiz-adv-x="294" 
d="M170 425l-2 -13c-3 -21 3 -43 26 -43c37 0 47 45 51 72c7 48 -9 63 -60 61l12 76c50 0 72 10 80 59c3 20 3 49 -22 49s-35 -30 -38 -50l-2 -9h-90c6 40 19 73 41 97c22 23 55 37 99 37c82 0 119 -47 108 -118c-7 -42 -27 -88 -77 -105v-2c52 -12 66 -58 58 -104
c-13 -83 -76 -133 -169 -133c-86 0 -128 50 -112 126h97z" />
    <glyph glyph-name="copyright" unicode="&#xa9;" horiz-adv-x="830" 
d="M414 -12c-218 0 -366 174 -332 391c34 215 237 387 455 387c217 0 365 -172 331 -387c-34 -217 -237 -391 -454 -391zM426 61c174 1 336 143 364 318c27 173 -90 314 -264 314c-177 0 -339 -141 -366 -314c-28 -175 89 -317 266 -318zM576 309h89
c-26 -94 -116 -152 -208 -152c-131 0 -201 99 -181 225c20 129 117 224 250 224c95 0 160 -55 163 -148h-89c-2 49 -36 76 -86 76c-84 0 -138 -73 -150 -150c-12 -74 22 -155 104 -155c48 0 97 32 108 80z" />
    <glyph glyph-name="Aacute" unicode="&#xc1;" horiz-adv-x="528" 
d="M302 754h157l62 -754h-159l-8 127h-151l-47 -127h-148zM351 245l-6 201l1 114h-2l-34 -114l-64 -201h105zM431 978l95 -46l-151 -138l-63 40z" />
    <glyph glyph-name="Acircumflex" unicode="&#xc2;" horiz-adv-x="528" 
d="M302 754h157l62 -754h-159l-8 127h-151l-47 -127h-148zM351 245l-6 201l1 114h-2l-34 -114l-64 -201h105zM417 972l127 -121l-71 -62l-74 70l-99 -70l-44 70z" />
    <glyph glyph-name="Adieresis" unicode="&#xc4;" horiz-adv-x="528" 
d="M302 754h157l62 -754h-159l-8 127h-151l-47 -127h-148zM351 245l-6 201l1 114h-2l-34 -114l-64 -201h105zM375 883c-6 -40 -46 -73 -87 -73c-40 0 -68 33 -62 73c7 42 45 76 88 76c41 0 67 -35 61 -76zM583 883c-6 -40 -46 -73 -87 -73c-40 0 -68 33 -62 73
c7 42 45 76 88 76c41 0 67 -35 61 -76z" />
    <glyph glyph-name="Agrave" unicode="&#xc0;" horiz-adv-x="528" 
d="M302 754h157l62 -754h-159l-8 127h-151l-47 -127h-148zM351 245l-6 201l1 114h-2l-34 -114l-64 -201h105zM407 978l73 -144l-75 -40l-107 138z" />
    <glyph glyph-name="Aring" unicode="&#xc5;" horiz-adv-x="528" 
d="M302 754h157l62 -754h-159l-8 127h-151l-47 -127h-148zM351 245l-6 201l1 114h-2l-34 -114l-64 -201h105zM381 773c-60 0 -101 48 -91 109c9 61 66 108 127 108c60 0 98 -51 88 -110c-9 -58 -65 -107 -124 -107zM392 839c22 0 44 19 47 41c4 24 -11 44 -34 44
c-24 0 -46 -18 -49 -43c-4 -24 12 -42 36 -42z" />
    <glyph glyph-name="Atilde" unicode="&#xc3;" horiz-adv-x="528" 
d="M302 754h157l62 -754h-159l-8 127h-151l-47 -127h-148zM351 245l-6 201l1 114h-2l-34 -114l-64 -201h105zM505 964l74 -5c-20 -60 -46 -133 -121 -133c-27 0 -51 11 -75 22c-13 6 -24 13 -40 13c-20 0 -31 -14 -37 -32h-73c16 60 40 133 115 133c53 0 77 -38 114 -38
c26 0 37 18 43 40z" />
    <glyph glyph-name="Ccedilla" unicode="&#xc7;" horiz-adv-x="452" 
d="M548 749l-22 -137c-18 5 -36 8 -55 8c-131 0 -207 -119 -225 -235c-18 -112 17 -250 147 -250c19 0 39 5 59 11l-22 -141c-24 -9 -47 -13 -71 -13c-215 0 -304 194 -272 392c29 187 184 379 387 379c26 0 50 -5 74 -14zM242 -48l85 -36l-127 -134l-57 32z" />
    <glyph glyph-name="Eacute" unicode="&#xc9;" horiz-adv-x="392" 
d="M172 754h300l-22 -140h-151l-26 -164h133l-22 -140h-133l-27 -170h153l-22 -140h-302zM383 978l95 -46l-151 -138l-63 40z" />
    <glyph glyph-name="Ecircumflex" unicode="&#xca;" horiz-adv-x="392" 
d="M172 754h300l-22 -140h-151l-26 -164h133l-22 -140h-133l-27 -170h153l-22 -140h-302zM349 972l127 -121l-71 -62l-74 70l-99 -70l-44 70z" />
    <glyph glyph-name="Edieresis" unicode="&#xcb;" horiz-adv-x="392" 
d="M172 754h300l-22 -140h-151l-26 -164h133l-22 -140h-133l-27 -170h153l-22 -140h-302zM307 883c-6 -40 -46 -73 -87 -73c-40 0 -68 33 -62 73c7 42 45 76 88 76c41 0 67 -35 61 -76zM515 883c-6 -40 -46 -73 -87 -73c-40 0 -68 33 -62 73c7 42 45 76 88 76
c41 0 67 -35 61 -76z" />
    <glyph glyph-name="Egrave" unicode="&#xc8;" horiz-adv-x="392" 
d="M172 754h300l-22 -140h-151l-26 -164h133l-22 -140h-133l-27 -170h153l-22 -140h-302zM339 978l73 -144l-75 -40l-107 138z" />
    <glyph glyph-name="Iacute" unicode="&#xcd;" horiz-adv-x="255" 
d="M172 754h149l-119 -754h-149zM299 978l95 -46l-151 -138l-63 40z" />
    <glyph glyph-name="Icircumflex" unicode="&#xce;" horiz-adv-x="255" 
d="M172 754h149l-119 -754h-149zM281 972l127 -121l-71 -62l-74 70l-99 -70l-44 70z" />
    <glyph glyph-name="Idieresis" unicode="&#xcf;" horiz-adv-x="255" 
d="M172 754h149l-119 -754h-149zM239 883c-6 -40 -46 -73 -87 -73c-40 0 -68 33 -62 73c7 42 45 76 88 76c41 0 67 -35 61 -76zM447 883c-6 -40 -46 -73 -87 -73c-40 0 -68 33 -62 73c7 42 45 76 88 76c41 0 67 -35 61 -76z" />
    <glyph glyph-name="Igrave" unicode="&#xcc;" horiz-adv-x="255" 
d="M172 754h149l-119 -754h-149zM265 978l73 -144l-75 -40l-107 138z" />
    <glyph glyph-name="Ntilde" unicode="&#xd1;" horiz-adv-x="573" 
d="M172 754h143l114 -455l3 2c-4 36 0 75 6 114l53 339h149l-119 -754h-141l-112 455l-2 -2l-5 -76l-4 -31l-55 -346h-149zM528 964l74 -5c-20 -60 -46 -133 -121 -133c-27 0 -51 11 -75 22c-13 6 -24 13 -40 13c-20 0 -31 -14 -37 -32h-73c16 60 40 133 115 133
c53 0 77 -38 114 -38c26 0 37 18 43 40z" />
    <glyph glyph-name="Oacute" unicode="&#xd3;" horiz-adv-x="582" 
d="M412 766c133 0 249 -106 204 -389s-194 -389 -327 -389s-248 106 -203 389s193 389 326 389zM245 377c-10 -60 -33 -251 66 -251s136 191 146 251c10 67 32 251 -67 251s-135 -184 -145 -251zM478 978l95 -46l-151 -138l-63 40z" />
    <glyph glyph-name="Ocircumflex" unicode="&#xd4;" horiz-adv-x="582" 
d="M412 766c133 0 249 -106 204 -389s-194 -389 -327 -389s-248 106 -203 389s193 389 326 389zM245 377c-10 -60 -33 -251 66 -251s136 191 146 251c10 67 32 251 -67 251s-135 -184 -145 -251zM444 972l127 -121l-71 -62l-74 70l-99 -70l-44 70z" />
    <glyph glyph-name="Odieresis" unicode="&#xd6;" horiz-adv-x="582" 
d="M412 766c133 0 249 -106 204 -389s-194 -389 -327 -389s-248 106 -203 389s193 389 326 389zM245 377c-10 -60 -33 -251 66 -251s136 191 146 251c10 67 32 251 -67 251s-135 -184 -145 -251zM402 883c-6 -40 -46 -73 -87 -73c-40 0 -68 33 -62 73c7 42 45 76 88 76
c41 0 67 -35 61 -76zM610 883c-6 -40 -46 -73 -87 -73c-40 0 -68 33 -62 73c7 42 45 76 88 76c41 0 67 -35 61 -76z" />
    <glyph glyph-name="Ograve" unicode="&#xd2;" horiz-adv-x="582" 
d="M412 766c133 0 249 -106 204 -389s-194 -389 -327 -389s-248 106 -203 389s193 389 326 389zM245 377c-10 -60 -33 -251 66 -251s136 191 146 251c10 67 32 251 -67 251s-135 -184 -145 -251zM424 978l73 -144l-75 -40l-107 138z" />
    <glyph glyph-name="Otilde" unicode="&#xd5;" horiz-adv-x="582" 
d="M412 766c133 0 249 -106 204 -389s-194 -389 -327 -389s-248 106 -203 389s193 389 326 389zM245 377c-10 -60 -33 -251 66 -251s136 191 146 251c10 67 32 251 -67 251s-135 -184 -145 -251zM532 964l74 -5c-20 -60 -46 -133 -121 -133c-27 0 -51 11 -75 22
c-13 6 -24 13 -40 13c-20 0 -31 -14 -37 -32h-73c16 60 40 133 115 133c53 0 77 -38 114 -38c26 0 37 18 43 40z" />
    <glyph glyph-name="Scaron" unicode="&#x160;" horiz-adv-x="440" 
d="M478 729l-23 -145c-25 26 -59 48 -100 48c-46 0 -79 -28 -87 -74c-19 -124 207 -131 174 -335c-21 -134 -114 -235 -254 -235c-42 0 -92 13 -122 38l23 142c31 -24 62 -40 106 -40c48 0 91 32 99 82c9 58 -33 80 -70 110c-77 58 -121 114 -104 224
c19 119 104 222 232 222c48 0 89 -13 126 -37zM347 789l-127 121l71 62l74 -70l99 70l44 -70z" />
    <glyph glyph-name="Uacute" unicode="&#xda;" horiz-adv-x="544" 
d="M168 754h149l-77 -488c-9 -57 -30 -143 51 -143c73 0 82 55 92 111l82 520h149l-87 -550c-12 -80 -43 -216 -258 -216c-139 0 -212 65 -189 206zM459 978l95 -46l-151 -138l-63 40z" />
    <glyph glyph-name="Ucircumflex" unicode="&#xdb;" horiz-adv-x="544" 
d="M168 754h149l-77 -488c-9 -57 -30 -143 51 -143c73 0 82 55 92 111l82 520h149l-87 -550c-12 -80 -43 -216 -258 -216c-139 0 -212 65 -189 206zM425 972l127 -121l-71 -62l-74 70l-99 -70l-44 70z" />
    <glyph glyph-name="Udieresis" unicode="&#xdc;" horiz-adv-x="544" 
d="M168 754h149l-77 -488c-9 -57 -30 -143 51 -143c73 0 82 55 92 111l82 520h149l-87 -550c-12 -80 -43 -216 -258 -216c-139 0 -212 65 -189 206zM383 883c-6 -40 -46 -73 -87 -73c-40 0 -68 33 -62 73c7 42 45 76 88 76c41 0 67 -35 61 -76zM591 883
c-6 -40 -46 -73 -87 -73c-40 0 -68 33 -62 73c7 42 45 76 88 76c41 0 67 -35 61 -76z" />
    <glyph glyph-name="Ugrave" unicode="&#xd9;" horiz-adv-x="544" 
d="M168 754h149l-77 -488c-9 -57 -30 -143 51 -143c73 0 82 55 92 111l82 520h149l-87 -550c-12 -80 -43 -216 -258 -216c-139 0 -212 65 -189 206zM395 978l73 -144l-75 -40l-107 138z" />
    <glyph glyph-name="Yacute" unicode="&#xdd;" horiz-adv-x="514" 
d="M123 754h164l46 -205l5 -37h2l26 56l96 186h167l-238 -393l-57 -361h-149l57 361zM459 978l95 -46l-151 -138l-63 40z" />
    <glyph glyph-name="Ydieresis" unicode="&#x178;" horiz-adv-x="514" 
d="M123 754h164l46 -205l5 -37h2l26 56l96 186h167l-238 -393l-57 -361h-149l57 361zM374 883c-6 -40 -46 -73 -87 -73c-40 0 -68 33 -62 73c7 42 45 76 88 76c41 0 67 -35 61 -76zM582 883c-6 -40 -46 -73 -87 -73c-40 0 -68 33 -62 73c7 42 45 76 88 76
c41 0 67 -35 61 -76z" />
    <glyph glyph-name="Zcaron" unicode="&#x17d;" horiz-adv-x="508" 
d="M169 754h443l-355 -614h237l-22 -140h-454l348 614h-219zM381 789l-127 121l71 62l74 -70l99 70l44 -70z" />
    <glyph glyph-name="aacute" unicode="&#xe1;" horiz-adv-x="433" 
d="M238 119c45 0 66 109 70 136c5 28 19 135 -29 135c-47 0 -67 -106 -72 -135c-5 -32 -19 -136 31 -136zM258 0l9 57h-2c-12 -19 -27 -36 -44 -48c-18 -12 -37 -19 -60 -19c-114 0 -108 182 -95 263c14 87 59 262 177 262c47 0 74 -31 83 -72h2l10 62h141l-80 -505h-141z
M373 754l95 -46l-151 -138l-62 40z" />
    <glyph glyph-name="acircumflex" unicode="&#xe2;" horiz-adv-x="433" 
d="M238 119c45 0 66 109 70 136c5 28 19 135 -29 135c-47 0 -67 -106 -72 -135c-5 -32 -19 -136 31 -136zM258 0l9 57h-2c-12 -19 -27 -36 -44 -48c-18 -12 -37 -19 -60 -19c-114 0 -108 182 -95 263c14 87 59 262 177 262c47 0 74 -31 83 -72h2l10 62h141l-80 -505h-141z
M344 748l127 -121l-71 -62l-73 70l-100 -70l-43 70z" />
    <glyph glyph-name="adieresis" unicode="&#xe4;" horiz-adv-x="433" 
d="M238 119c45 0 66 109 70 136c5 28 19 135 -29 135c-47 0 -67 -106 -72 -135c-5 -32 -19 -136 31 -136zM258 0l9 57h-2c-12 -19 -27 -36 -44 -48c-18 -12 -37 -19 -60 -19c-114 0 -108 182 -95 263c14 87 59 262 177 262c47 0 74 -31 83 -72h2l10 62h141l-80 -505h-141z
M300 659c-6 -40 -45 -73 -86 -73c-40 0 -69 33 -63 73c7 42 45 76 88 76c41 0 68 -35 61 -76zM508 659c-6 -40 -45 -73 -86 -73c-40 0 -69 33 -63 73c7 42 45 76 88 76c41 0 68 -35 61 -76z" />
    <glyph glyph-name="agrave" unicode="&#xe0;" horiz-adv-x="433" 
d="M238 119c45 0 66 109 70 136c5 28 19 135 -29 135c-47 0 -67 -106 -72 -135c-5 -32 -19 -136 31 -136zM258 0l9 57h-2c-12 -19 -27 -36 -44 -48c-18 -12 -37 -19 -60 -19c-114 0 -108 182 -95 263c14 87 59 262 177 262c47 0 74 -31 83 -72h2l10 62h141l-80 -505h-141z
M314 754l74 -144l-76 -40l-107 138z" />
    <glyph glyph-name="aring" unicode="&#xe5;" horiz-adv-x="433" 
d="M238 119c45 0 66 109 70 136c5 28 19 135 -29 135c-47 0 -67 -106 -72 -135c-5 -32 -19 -136 31 -136zM258 0l9 57h-2c-12 -19 -27 -36 -44 -48c-18 -12 -37 -19 -60 -19c-114 0 -108 182 -95 263c14 87 59 262 177 262c47 0 74 -31 83 -72h2l10 62h141l-80 -505h-141z
M313 549c-60 0 -101 48 -92 109c10 61 66 108 127 108c60 0 98 -51 89 -110c-9 -58 -65 -107 -124 -107zM323 615c22 0 44 19 48 41c4 24 -11 44 -34 44c-24 0 -46 -18 -50 -43c-4 -24 12 -42 36 -42z" />
    <glyph glyph-name="atilde" unicode="&#xe3;" horiz-adv-x="433" 
d="M238 119c45 0 66 109 70 136c5 28 19 135 -29 135c-47 0 -67 -106 -72 -135c-5 -32 -19 -136 31 -136zM258 0l9 57h-2c-12 -19 -27 -36 -44 -48c-18 -12 -37 -19 -60 -19c-114 0 -108 182 -95 263c14 87 59 262 177 262c47 0 74 -31 83 -72h2l10 62h141l-80 -505h-141z
M430 740l74 -5c-19 -60 -46 -133 -121 -133c-27 0 -51 11 -74 22c-13 6 -24 13 -40 13c-20 0 -31 -14 -37 -32h-73c15 60 40 133 115 133c53 0 77 -38 114 -38c26 0 37 18 42 40z" />
    <glyph glyph-name="ccedilla" unicode="&#xe7;" horiz-adv-x="315" 
d="M314 137l-21 -129c-28 -12 -55 -18 -84 -18c-137 0 -162 144 -144 259c21 127 93 266 239 266c25 0 46 -5 67 -15l-19 -124c-12 12 -22 16 -39 16c-69 0 -97 -83 -105 -135c-9 -54 -11 -135 60 -135c16 0 31 6 46 15zM154 -48l85 -36l-127 -134l-57 32z" />
    <glyph glyph-name="eacute" unicode="&#xe9;" horiz-adv-x="414" 
d="M314 302l2 12c5 33 7 93 -37 93c-43 0 -61 -58 -66 -90l-2 -15h103zM431 273l-12 -58h-223c-5 -37 -19 -117 35 -117c36 0 49 28 54 58h120c-14 -46 -34 -88 -65 -118c-30 -30 -70 -48 -122 -48c-143 0 -173 127 -154 252c19 121 88 273 235 273c93 0 165 -83 132 -242z
M363 754l95 -46l-151 -138l-62 40z" />
    <glyph glyph-name="ecircumflex" unicode="&#xea;" horiz-adv-x="414" 
d="M314 302l2 12c5 33 7 93 -37 93c-43 0 -61 -58 -66 -90l-2 -15h103zM431 273l-12 -58h-223c-5 -37 -19 -117 35 -117c36 0 49 28 54 58h120c-14 -46 -34 -88 -65 -118c-30 -30 -70 -48 -122 -48c-143 0 -173 127 -154 252c19 121 88 273 235 273c93 0 165 -83 132 -242z
M332 748l127 -121l-71 -62l-73 70l-100 -70l-43 70z" />
    <glyph glyph-name="edieresis" unicode="&#xeb;" horiz-adv-x="414" 
d="M314 302l2 12c5 33 7 93 -37 93c-43 0 -61 -58 -66 -90l-2 -15h103zM431 273l-12 -58h-223c-5 -37 -19 -117 35 -117c36 0 49 28 54 58h120c-14 -46 -34 -88 -65 -118c-30 -30 -70 -48 -122 -48c-143 0 -173 127 -154 252c19 121 88 273 235 273c93 0 165 -83 132 -242z
M282 659c-6 -40 -45 -73 -86 -73c-40 0 -69 33 -63 73c7 42 45 76 88 76c41 0 68 -35 61 -76zM490 659c-6 -40 -45 -73 -86 -73c-40 0 -69 33 -63 73c7 42 45 76 88 76c41 0 68 -35 61 -76z" />
    <glyph glyph-name="egrave" unicode="&#xe8;" horiz-adv-x="414" 
d="M314 302l2 12c5 33 7 93 -37 93c-43 0 -61 -58 -66 -90l-2 -15h103zM431 273l-12 -58h-223c-5 -37 -19 -117 35 -117c36 0 49 28 54 58h120c-14 -46 -34 -88 -65 -118c-30 -30 -70 -48 -122 -48c-143 0 -173 127 -154 252c19 121 88 273 235 273c93 0 165 -83 132 -242z
M304 754l74 -144l-76 -40l-107 138z" />
    <glyph glyph-name="iacute" unicode="&#xed;" horiz-adv-x="209" 
d="M114 505h141l-80 -505h-141zM235 754l95 -46l-151 -138l-62 40z" />
    <glyph glyph-name="icircumflex" unicode="&#xee;" horiz-adv-x="209" 
d="M114 505h141l-80 -505h-141zM222 748l127 -121l-71 -62l-73 70l-100 -70l-43 70z" />
    <glyph glyph-name="idieresis" unicode="&#xef;" horiz-adv-x="209" 
d="M114 505h141l-80 -505h-141zM180 659c-6 -40 -45 -73 -86 -73c-40 0 -69 33 -63 73c7 42 45 76 88 76c41 0 68 -35 61 -76zM388 659c-6 -40 -45 -73 -86 -73c-40 0 -69 33 -63 73c7 42 45 76 88 76c41 0 68 -35 61 -76z" />
    <glyph glyph-name="igrave" unicode="&#xec;" horiz-adv-x="209" 
d="M114 505h141l-80 -505h-141zM211 754l74 -144l-76 -40l-107 138z" />
    <glyph glyph-name="ntilde" unicode="&#xf1;" horiz-adv-x="424" 
d="M256 505l-12 -78h2c26 48 76 88 131 88c104 0 76 -116 65 -189l-52 -326h-141l44 277c4 26 25 96 -20 96c-32 0 -43 -33 -47 -58l-50 -315h-141l80 505h141zM417 740l74 -5c-19 -60 -46 -133 -121 -133c-27 0 -51 11 -74 22c-13 6 -24 13 -40 13c-20 0 -31 -14 -37 -32
h-73c15 60 40 133 115 133c53 0 77 -38 114 -38c26 0 37 18 42 40z" />
    <glyph glyph-name="oacute" unicode="&#xf3;" horiz-adv-x="436" 
d="M300 515c151 0 170 -134 150 -263c-21 -129 -83 -262 -234 -262s-171 133 -150 262c20 129 83 263 234 263zM279 388c-49 0 -67 -107 -72 -136s-20 -136 29 -136s68 107 73 136s19 136 -30 136zM374 754l95 -46l-151 -138l-62 40z" />
    <glyph glyph-name="ocircumflex" unicode="&#xf4;" horiz-adv-x="436" 
d="M300 515c151 0 170 -134 150 -263c-21 -129 -83 -262 -234 -262s-171 133 -150 262c20 129 83 263 234 263zM279 388c-49 0 -67 -107 -72 -136s-20 -136 29 -136s68 107 73 136s19 136 -30 136zM335 748l127 -121l-71 -62l-73 70l-100 -70l-43 70z" />
    <glyph glyph-name="odieresis" unicode="&#xf6;" horiz-adv-x="436" 
d="M300 515c151 0 170 -134 150 -263c-21 -129 -83 -262 -234 -262s-171 133 -150 262c20 129 83 263 234 263zM279 388c-49 0 -67 -107 -72 -136s-20 -136 29 -136s68 107 73 136s19 136 -30 136zM293 659c-6 -40 -45 -73 -86 -73c-40 0 -69 33 -63 73c7 42 45 76 88 76
c41 0 68 -35 61 -76zM501 659c-6 -40 -45 -73 -86 -73c-40 0 -69 33 -63 73c7 42 45 76 88 76c41 0 68 -35 61 -76z" />
    <glyph glyph-name="ograve" unicode="&#xf2;" horiz-adv-x="436" 
d="M300 515c151 0 170 -134 150 -263c-21 -129 -83 -262 -234 -262s-171 133 -150 262c20 129 83 263 234 263zM279 388c-49 0 -67 -107 -72 -136s-20 -136 29 -136s68 107 73 136s19 136 -30 136zM315 754l74 -144l-76 -40l-107 138z" />
    <glyph glyph-name="otilde" unicode="&#xf5;" horiz-adv-x="436" 
d="M300 515c151 0 170 -134 150 -263c-21 -129 -83 -262 -234 -262s-171 133 -150 262c20 129 83 263 234 263zM279 388c-49 0 -67 -107 -72 -136s-20 -136 29 -136s68 107 73 136s19 136 -30 136zM423 740l74 -5c-19 -60 -46 -133 -121 -133c-27 0 -51 11 -74 22
c-13 6 -24 13 -40 13c-20 0 -31 -14 -37 -32h-73c15 60 40 133 115 133c53 0 77 -38 114 -38c26 0 37 18 42 40z" />
    <glyph glyph-name="scaron" unicode="&#x161;" horiz-adv-x="376" 
d="M421 472l-74 -103c-17 18 -33 33 -62 33c-25 0 -41 -15 -44 -37c-8 -59 153 -47 129 -198c-15 -100 -86 -177 -190 -177c-54 0 -106 23 -142 58l77 100c19 -18 37 -33 65 -33c22 0 44 16 48 42c12 67 -153 50 -128 210c15 96 104 148 193 148c51 0 92 -13 128 -43z
M287 565l-126 121l70 62l74 -70l99 70l44 -70z" />
    <glyph glyph-name="uacute" unicode="&#xfa;" horiz-adv-x="423" 
d="M115 505h141l-44 -277c-4 -28 -28 -106 19 -106c38 0 43 50 47 75l50 308h140l-51 -322c-19 -117 -86 -193 -211 -193c-160 0 -154 120 -139 212zM368 754l95 -46l-151 -138l-62 40z" />
    <glyph glyph-name="ucircumflex" unicode="&#xfb;" horiz-adv-x="423" 
d="M115 505h141l-44 -277c-4 -28 -28 -106 19 -106c38 0 43 50 47 75l50 308h140l-51 -322c-19 -117 -86 -193 -211 -193c-160 0 -154 120 -139 212zM329 748l127 -121l-71 -62l-73 70l-100 -70l-43 70z" />
    <glyph glyph-name="udieresis" unicode="&#xfc;" horiz-adv-x="423" 
d="M115 505h141l-44 -277c-4 -28 -28 -106 19 -106c38 0 43 50 47 75l50 308h140l-51 -322c-19 -117 -86 -193 -211 -193c-160 0 -154 120 -139 212zM287 659c-6 -40 -45 -73 -86 -73c-40 0 -69 33 -63 73c7 42 45 76 88 76c41 0 68 -35 61 -76zM495 659
c-6 -40 -45 -73 -86 -73c-40 0 -69 33 -63 73c7 42 45 76 88 76c41 0 68 -35 61 -76z" />
    <glyph glyph-name="ugrave" unicode="&#xf9;" horiz-adv-x="423" 
d="M115 505h141l-44 -277c-4 -28 -28 -106 19 -106c38 0 43 50 47 75l50 308h140l-51 -322c-19 -117 -86 -193 -211 -193c-160 0 -154 120 -139 212zM294 754l74 -144l-76 -40l-107 138z" />
    <glyph glyph-name="yacute" unicode="&#xfd;" horiz-adv-x="452" 
d="M95 505h142l21 -204l3 -84h2l112 288h142l-336 -754h-139l122 259zM392 754l95 -46l-151 -138l-62 40z" />
    <glyph glyph-name="ydieresis" unicode="&#xff;" horiz-adv-x="452" 
d="M95 505h142l21 -204l3 -84h2l112 288h142l-336 -754h-139l122 259zM301 659c-6 -40 -45 -73 -86 -73c-40 0 -69 33 -63 73c7 42 45 76 88 76c41 0 68 -35 61 -76zM509 659c-6 -40 -45 -73 -86 -73c-40 0 -69 33 -63 73c7 42 45 76 88 76c41 0 68 -35 61 -76z" />
    <glyph glyph-name="zcaron" unicode="&#x17e;" horiz-adv-x="401" 
d="M119 505h339l-217 -388h139l-19 -117h-338l221 388h-144zM292 565l-126 121l70 62l74 -70l99 70l44 -70z" />
    <glyph glyph-name="Delta" unicode="&#x2206;" horiz-adv-x="588" 
d="M25 0l13 83l303 681h157l77 -678l-14 -86h-536zM177 114h266l-37 277c-3 63 -16 151 -18 198h-2c-13 -42 -50 -118 -75 -183z" />
    <glyph glyph-name="Omega" unicode="&#x2126;" horiz-adv-x="604" 
d="M158 116l1 3c-41 66 -72 171 -51 301c29 183 157 341 318 341c177 0 225 -186 202 -330c-21 -132 -90 -248 -149 -312l-1 -3h114l-18 -116h-234l13 83c48 37 107 139 135 314c21 131 0 243 -84 243c-81 0 -144 -104 -167 -249c-25 -160 0 -271 36 -308l-13 -83h-233
l18 116h113z" />
    <glyph glyph-name="uni03BC" unicode="&#x3bc;" horiz-adv-x="423" 
d="M328 505h141l-52 -326c-11 -73 -21 -189 -125 -189c-55 0 -91 40 -103 88h-2l-51 -327h-141l119 754h141l-50 -315c-4 -25 -3 -58 29 -58c45 0 46 70 50 96z" />
    <glyph glyph-name="pi" unicode="&#x3c0;" horiz-adv-x="550" 
d="M599 442h-59l-47 -296c-11 -70 -13 -112 -11 -146h-128c-7 26 -4 77 7 145l47 297h-108c-21 -102 -72 -312 -127 -442h-128c54 137 106 334 125 442c-40 0 -63 -3 -82 -8l1 96c27 20 82 36 160 36h379z" />
    <glyph glyph-name="Euro" unicode="&#x20ac;" 
d="M567 735l-20 -128c-15 18 -45 34 -98 34c-68 0 -112 -39 -136 -132h192l-46 -100h-172l-5 -29l-5 -34h153l-46 -100h-113c-5 -95 28 -134 94 -134c52 0 87 14 109 32l-21 -129c-19 -13 -64 -26 -134 -26c-126 0 -194 76 -188 257h-75l45 100h36c0 9 2 21 4 33
c2 10 3 20 6 30h-65l45 100h44c48 169 138 256 271 256c64 0 109 -17 125 -30z" />
    <glyph glyph-name="afii61289" unicode="&#x2113;" horiz-adv-x="464" 
d="M432 190l41 -56c-64 -107 -138 -143 -208 -143c-124 0 -154 86 -143 177c0 4 1 8 1 13c-15 -12 -36 -28 -54 -41l-18 73c34 28 61 49 89 75l43 276c28 177 121 262 213 262c87 0 113 -80 96 -190c-19 -119 -104 -241 -225 -359l-10 -63c-11 -75 12 -113 55 -113
c44 0 87 45 120 89zM309 545l-21 -137c68 79 120 170 130 238c8 51 3 78 -30 78c-25 0 -56 -38 -79 -179z" />
    <glyph glyph-name="estimated" unicode="&#x212e;" horiz-adv-x="1059" 
d="M1022 366h-699c-4 0 -6 -1 -6 -4v-212c0 -9 3 -17 9 -24c68 -71 161 -115 265 -115c111 0 210 50 278 128h62c-77 -91 -202 -150 -341 -150c-239 0 -432 173 -432 388s193 389 432 389s432 -174 432 -389v-11zM863 394v213c0 9 -3 18 -10 25c-68 67 -160 110 -262 110
c-103 0 -196 -44 -264 -113c-7 -7 -10 -17 -10 -27v-208c0 -3 2 -7 6 -7h536c3 0 4 4 4 7z" />
    <glyph glyph-name="partialdiff" unicode="&#x2202;" horiz-adv-x="531" 
d="M207 682l-17 111c34 25 91 59 176 59c129 0 232 -124 188 -405c-46 -288 -165 -453 -329 -453c-125 0 -168 130 -149 252c29 182 138 286 243 286c63 0 97 -41 106 -65h1c2 7 5 25 6 32c18 113 -15 234 -104 234c-51 0 -92 -26 -121 -51zM257 115h1c61 0 115 128 140 231
c-4 29 -25 71 -72 71c-57 0 -106 -90 -120 -180c-11 -68 6 -122 51 -122z" />
    <glyph glyph-name="product" unicode="&#x220f;" horiz-adv-x="779" 
d="M754 622h-85v-726h-132v726h-174v-726h-132v726h-86v129h609v-129z" />
    <glyph glyph-name="summation" unicode="&#x2211;" horiz-adv-x="620" 
d="M603 -104h-459v94l210 337l-205 324v100h440v-117h-270v-3l181 -277l-206 -322v-4h309v-132z" />
    <glyph glyph-name="uni2219" unicode="&#x2219;" horiz-adv-x="245" 
d="M178 351c53 0 88 -43 80 -95c-9 -52 -57 -95 -110 -95s-89 43 -80 95c8 52 57 95 110 95z" />
    <glyph glyph-name="radical" unicode="&#x221a;" horiz-adv-x="672" 
d="M674 906l-200 -1049h-104l-128 463l-68 -27l-20 80l168 68l81 -309c6 -39 14 -80 18 -104l1 -1c3 24 8 69 15 113l149 766h88z" />
    <glyph glyph-name="infinity" unicode="&#x221e;" horiz-adv-x="836" 
d="M790 310v-1c0 -110 -78 -175 -159 -175c-57 0 -109 21 -173 110c-50 -64 -101 -110 -180 -110c-82 0 -156 68 -156 170s70 172 164 172c72 0 123 -39 174 -106c38 44 87 107 176 106c85 0 154 -65 154 -166zM287 208h2c53 0 90 44 128 92c-40 56 -71 104 -132 104
c-57 0 -88 -43 -88 -101c0 -53 40 -95 90 -95zM629 404h-1c-59 0 -101 -61 -131 -96c58 -75 85 -100 136 -100c52 0 82 54 82 95c0 57 -34 101 -86 101z" />
    <glyph glyph-name="integral" unicode="&#x222b;" horiz-adv-x="520" 
d="M488 920l-12 -99c-9 4 -18 8 -31 8c-18 0 -33 -8 -45 -27c-20 -28 -24 -91 -24 -180c0 -176 13 -316 13 -513c0 -100 -10 -172 -32 -217c-27 -58 -82 -79 -132 -79c-33 0 -60 8 -73 16l16 102c9 -4 20 -10 38 -10c14 0 29 5 38 20c15 24 21 71 21 164
c0 201 -13 343 -13 529c0 128 16 196 58 245c28 34 75 51 119 51c25 0 48 -5 59 -10z" />
    <glyph glyph-name="approxequal" unicode="&#x2248;" horiz-adv-x="576" 
d="M495 475l46 -40c-25 -60 -71 -108 -126 -108c-35 0 -59 11 -101 39c-29 20 -48 34 -77 34c-41 0 -60 -37 -80 -71l-47 39c26 61 74 107 134 107c46 0 76 -23 97 -35c32 -21 52 -36 76 -36c36 0 55 31 78 71zM495 288l46 -40c-25 -60 -71 -108 -126 -108
c-35 0 -60 12 -101 39c-29 20 -49 35 -77 35c-41 0 -59 -38 -80 -73l-47 40c26 61 75 107 134 107c46 0 76 -22 97 -35c30 -18 51 -36 76 -36c36 0 55 31 78 71z" />
    <glyph glyph-name="notequal" unicode="&#x2260;" horiz-adv-x="589" 
d="M461 532l-34 -83h117v-79h-143l-54 -132h197v-78h-223l-44 -106l-60 21l35 85h-120v78h147l53 132h-200v79h226l43 105z" />
    <glyph glyph-name="lessequal" unicode="&#x2264;" horiz-adv-x="603" 
d="M555 106l-403 224v86l403 224v-94l-331 -171v-3l331 -172v-94zM560 -12h-412v80h412v-80z" />
    <glyph glyph-name="greaterequal" unicode="&#x2265;" horiz-adv-x="603" 
d="M154 640l404 -224v-86l-403 -224v94l331 172v2l-332 172v94zM560 -12h-411v80h411v-80z" />
    <glyph glyph-name="lozenge" unicode="&#x25ca;" horiz-adv-x="671" 
d="M625 375l-178 -424h-109l-169 424l178 425h109zM507 372l-88 234c-7 23 -14 53 -18 76h-4c-4 -24 -11 -51 -19 -76l-91 -228l89 -240c7 -24 13 -55 16 -71h5c4 18 13 57 17 68z" />
    <glyph glyph-name="uni00A0" unicode="&#xa0;" horiz-adv-x="245" 
 />
    <glyph glyph-name="uni00AD" unicode="&#xad;" horiz-adv-x="318" 
d="M97 397h250l-21 -133h-250z" />
    <glyph glyph-name="uni02C9" unicode="&#x2c9;" horiz-adv-x="300" 
d="M428 666h-346l12 74h346z" />
    <glyph glyph-name="uni03A9" unicode="&#x3a9;" horiz-adv-x="604" 
d="M158 116l1 3c-41 66 -72 171 -51 301c29 183 157 341 318 341c177 0 225 -186 202 -330c-21 -132 -90 -248 -149 -312l-1 -3h114l-18 -116h-234l13 83c48 37 107 139 135 314c21 131 0 243 -84 243c-81 0 -144 -104 -167 -249c-25 -160 0 -271 36 -308l-13 -83h-233
l18 116h113z" />
    <glyph glyph-name="uni2215" unicode="&#x2215;" horiz-adv-x="166" 
d="M339 754h86l-478 -754h-87z" />
    </font>
</defs>
</svg>
